Graphik-SemiboldItalic.ufo
<glyph name="exclam" format="2">
  <advance width="316"/>
  <unicode hex="0021"/>
  <outline>
    <contour>
      <point x="92" y="223" type="line"/>
      <point x="149" y="715" type="line"/>
      <point x="311" y="715" type="line"/>
      <point x="210" y="223" type="line"/>
    </contour>
    <contour>
      <point x="130" y="-9" type="curve" smooth="yes"/>
      <point x="80" y="-9"/>
      <point x="42" y="29"/>
      <point x="42" y="77" type="curve" smooth="yes"/>
      <point x="42" y="125"/>
      <point x="81" y="164"/>
      <point x="131" y="164" type="curve" smooth="yes"/>
      <point x="181" y="164"/>
      <point x="221" y="126"/>
      <point x="221" y="78" type="curve" smooth="yes"/>
      <point x="221" y="30"/>
      <point x="180" y="-9"/>
    </contour>
  </outline>
</glyph>
<glyph name="quotedbl" format="2">
  <advance width="430"/>
  <unicode hex="0022"/>
  <outline>
    <contour>
      <point x="97" y="451" type="line"/>
      <point x="118" y="715" type="line"/>
      <point x="258" y="715" type="line"/>
      <point x="200" y="451" type="line"/>
    </contour>
    <contour>
      <point x="292" y="451" type="line"/>
      <point x="313" y="715" type="line"/>
      <point x="453" y="715" type="line"/>
      <point x="394" y="451" type="line"/>
    </contour>
  </outline>
</glyph>
<glyph name="numbersign" format="2">
  <advance width="545"/>
  <unicode hex="0023"/>
  <outline>
    <contour>
      <point x="258" y="99" type="line"/>
      <point x="295" y="256" type="line"/>
      <point x="220" y="256" type="line"/>
      <point x="183" y="99" type="line"/>
      <point x="81" y="99" type="line"/>
      <point x="118" y="256" type="line"/>
      <point x="37" y="256" type="line"/>
      <point x="56" y="371" type="line"/>
      <point x="145" y="371" type="line"/>
      <point x="168" y="467" type="line"/>
      <point x="86" y="467" type="line"/>
      <point x="103" y="578" type="line"/>
      <point x="194" y="578" type="line"/>
      <point x="227" y="715" type="line"/>
      <point x="328" y="715" type="line"/>
      <point x="295" y="578" type="line"/>
      <point x="371" y="578" type="line"/>
      <point x="404" y="715" type="line"/>
      <point x="505" y="715" type="line"/>
      <point x="472" y="578" type="line"/>
      <point x="555" y="578" type="line"/>
      <point x="538" y="467" type="line"/>
      <point x="446" y="467" type="line"/>
      <point x="423" y="371" type="line"/>
      <point x="508" y="371" type="line"/>
      <point x="489" y="256" type="line"/>
      <point x="396" y="256" type="line"/>
      <point x="359" y="99" type="line"/>
    </contour>
    <contour>
      <point x="269" y="467" type="line"/>
      <point x="247" y="371" type="line"/>
      <point x="322" y="371" type="line"/>
      <point x="345" y="467" type="line"/>
    </contour>
  </outline>
</glyph>
<glyph name="dollar" format="2">
  <advance width="634"/>
  <unicode hex="0024"/>
  <outline>
    <contour>
      <point x="311" y="-11" type="curve" smooth="yes"/>
      <point x="309" y="-11" type="line"/>
      <point x="290" y="-135" type="line"/>
      <point x="219" y="-135" type="line"/>
      <point x="239" y="-5" type="line"/>
      <point x="111" y="15"/>
      <point x="22" y="94"/>
      <point x="20" y="223" type="curve"/>
      <point x="168" y="223" type="line"/>
      <point x="169" y="168"/>
      <point x="197" y="125"/>
      <point x="257" y="109" type="curve"/>
      <point x="288" y="305" type="line"/>
      <point x="153" y="340"/>
      <point x="86" y="394"/>
      <point x="86" y="504" type="curve" smooth="yes"/>
      <point x="86" y="634"/>
      <point x="202" y="723"/>
      <point x="355" y="725" type="curve"/>
      <point x="369" y="813" type="line"/>
      <point x="440" y="813" type="line"/>
      <point x="425" y="720" type="line"/>
      <point x="538" y="704"/>
      <point x="621" y="641"/>
      <point x="625" y="514" type="curve"/>
      <point x="482" y="514" type="line"/>
      <point x="477" y="566"/>
      <point x="449" y="594"/>
      <point x="407" y="605" type="curve"/>
      <point x="378" y="422" type="line"/>
      <point x="512" y="387"/>
      <point x="591" y="336"/>
      <point x="591" y="223" type="curve" smooth="yes"/>
      <point x="591" y="77"/>
      <point x="477" y="-11"/>
    </contour>
    <contour>
      <point x="443" y="203" type="curve" smooth="yes"/>
      <point x="443" y="243"/>
      <point x="422" y="265"/>
      <point x="357" y="287" type="curve"/>
      <point x="327" y="102" type="line"/>
      <point x="403" y="106"/>
      <point x="443" y="142"/>
    </contour>
    <contour>
      <point x="229" y="522" type="curve" smooth="yes"/>
      <point x="229" y="483"/>
      <point x="246" y="462"/>
      <point x="310" y="441" type="curve"/>
      <point x="337" y="612" type="line"/>
      <point x="272" y="608"/>
      <point x="229" y="575"/>
    </contour>
  </outline>
</glyph>
<glyph name="percent" format="2">
  <advance width="811"/>
  <unicode hex="0025"/>
  <outline>
    <contour>
      <point x="175" y="530" type="curve" smooth="yes"/>
      <point x="175" y="495"/>
      <point x="190" y="460"/>
      <point x="238" y="460" type="curve" smooth="yes"/>
      <point x="287" y="461"/>
      <point x="313" y="509"/>
      <point x="313" y="563" type="curve" smooth="yes"/>
      <point x="313" y="599"/>
      <point x="297" y="634"/>
      <point x="252" y="634" type="curve" smooth="yes"/>
      <point x="200" y="634"/>
      <point x="175" y="586"/>
    </contour>
    <contour>
      <point x="235" y="371" type="curve" smooth="yes"/>
      <point x="138" y="371"/>
      <point x="64" y="432"/>
      <point x="64" y="529" type="curve" smooth="yes"/>
      <point x="64" y="635"/>
      <point x="144" y="722"/>
      <point x="256" y="722" type="curve" smooth="yes"/>
      <point x="351" y="722"/>
      <point x="424" y="659"/>
      <point x="424" y="562" type="curve" smooth="yes"/>
      <point x="424" y="459"/>
      <point x="345" y="371"/>
    </contour>
    <contour>
      <point x="96" y="0" type="line"/>
      <point x="661" y="715" type="line"/>
      <point x="753" y="715" type="line"/>
      <point x="187" y="0" type="line"/>
    </contour>
    <contour>
      <point x="534" y="149" type="curve" smooth="yes"/>
      <point x="534" y="113"/>
      <point x="548" y="79"/>
      <point x="597" y="79" type="curve" smooth="yes"/>
      <point x="645" y="80"/>
      <point x="671" y="127"/>
      <point x="671" y="182" type="curve" smooth="yes"/>
      <point x="671" y="217"/>
      <point x="655" y="253"/>
      <point x="610" y="253" type="curve" smooth="yes"/>
      <point x="558" y="253"/>
      <point x="534" y="205"/>
    </contour>
    <contour>
      <point x="593" y="-11" type="curve" smooth="yes"/>
      <point x="497" y="-11"/>
      <point x="422" y="51"/>
      <point x="422" y="148" type="curve" smooth="yes"/>
      <point x="422" y="252"/>
      <point x="502" y="341"/>
      <point x="614" y="341" type="curve" smooth="yes"/>
      <point x="710" y="341"/>
      <point x="783" y="278"/>
      <point x="783" y="181" type="curve" smooth="yes"/>
      <point x="783" y="78"/>
      <point x="703" y="-11"/>
    </contour>
  </outline>
</glyph>
<glyph name="ampersand" format="2">
  <advance width="732"/>
  <unicode hex="0026"/>
  <outline>
    <contour>
      <point x="660" y="0" type="line"/>
      <point x="487" y="0" type="line"/>
      <point x="443" y="65" type="line"/>
      <point x="399" y="26"/>
      <point x="332" y="-9"/>
      <point x="247" y="-9" type="curve" smooth="yes"/>
      <point x="136" y="-9"/>
      <point x="25" y="41"/>
      <point x="25" y="181" type="curve" smooth="yes"/>
      <point x="25" y="303"/>
      <point x="117" y="371"/>
      <point x="219" y="410" type="curve"/>
      <point x="196" y="448"/>
      <point x="183" y="492"/>
      <point x="183" y="530" type="curve" smooth="yes"/>
      <point x="183" y="652"/>
      <point x="281" y="722"/>
      <point x="399" y="722" type="curve" smooth="yes"/>
      <point x="494" y="722"/>
      <point x="587" y="673"/>
      <point x="587" y="565" type="curve" smooth="yes"/>
      <point x="587" y="462"/>
      <point x="506" y="413"/>
      <point x="417" y="376" type="curve"/>
      <point x="505" y="240" type="line"/>
      <point x="590" y="371" type="line"/>
      <point x="722" y="371" type="line"/>
      <point x="571" y="139" type="line"/>
    </contour>
    <contour>
      <point x="180" y="200" type="curve" smooth="yes"/>
      <point x="180" y="143"/>
      <point x="216" y="108"/>
      <point x="277" y="108" type="curve" smooth="yes"/>
      <point x="316" y="108"/>
      <point x="355" y="126"/>
      <point x="383" y="156" type="curve"/>
      <point x="272" y="323" type="line"/>
      <point x="225" y="302"/>
      <point x="180" y="269"/>
    </contour>
    <contour>
      <point x="396" y="618" type="curve" smooth="yes"/>
      <point x="354" y="618"/>
      <point x="323" y="588"/>
      <point x="323" y="537" type="curve" smooth="yes"/>
      <point x="323" y="510"/>
      <point x="336" y="481"/>
      <point x="358" y="449" type="curve"/>
      <point x="407" y="470"/>
      <point x="458" y="495"/>
      <point x="458" y="555" type="curve" smooth="yes"/>
      <point x="458" y="589"/>
      <point x="437" y="618"/>
    </contour>
  </outline>
</glyph>
<glyph name="quotesingle" format="2">
  <advance width="240"/>
  <unicode hex="0027"/>
  <outline>
    <contour>
      <point x="97" y="451" type="line"/>
      <point x="118" y="715" type="line"/>
      <point x="263" y="715" type="line"/>
      <point x="204" y="451" type="line"/>
    </contour>
  </outline>
</glyph>
<glyph name="parenleft" format="2">
  <advance width="343"/>
  <unicode hex="0028"/>
  <outline>
    <contour>
      <point x="146" y="-148" type="line"/>
      <point x="88" y="-61"/>
      <point x="40" y="53"/>
      <point x="40" y="207" type="curve" smooth="yes"/>
      <point x="40" y="437"/>
      <point x="139" y="629"/>
      <point x="290" y="774" type="curve"/>
      <point x="416" y="774" type="line"/>
      <point x="272" y="607"/>
      <point x="180" y="432"/>
      <point x="180" y="199" type="curve" smooth="yes"/>
      <point x="180" y="61"/>
      <point x="213" y="-55"/>
      <point x="263" y="-148" type="curve"/>
    </contour>
  </outline>
</glyph>
<glyph name="parenright" format="2">
  <advance width="343"/>
  <unicode hex="0029"/>
  <outline>
    <contour>
      <point x="211" y="776" type="line"/>
      <point x="269" y="689"/>
      <point x="317" y="575"/>
      <point x="317" y="421" type="curve" smooth="yes"/>
      <point x="317" y="191"/>
      <point x="219" y="-1"/>
      <point x="67" y="-146" type="curve"/>
      <point x="-59" y="-146" type="line"/>
      <point x="85" y="21"/>
      <point x="177" y="196"/>
      <point x="177" y="429" type="curve" smooth="yes"/>
      <point x="177" y="567"/>
      <point x="144" y="683"/>
      <point x="94" y="776" type="curve"/>
    </contour>
  </outline>
</glyph>
<glyph name="asterisk" format="2">
  <advance width="434"/>
  <unicode hex="002A"/>
  <outline>
    <contour>
      <point x="174" y="390" type="line"/>
      <point x="95" y="458" type="line"/>
      <point x="196" y="549" type="line"/>
      <point x="80" y="576" type="line"/>
      <point x="127" y="676" type="line"/>
      <point x="231" y="618" type="line"/>
      <point x="234" y="743" type="line"/>
      <point x="351" y="743" type="line"/>
      <point x="313" y="614" type="line"/>
      <point x="433" y="657" type="line"/>
      <point x="447" y="553" type="line"/>
      <point x="324" y="542" type="line"/>
      <point x="396" y="440" type="line"/>
      <point x="297" y="382" type="line"/>
      <point x="253" y="502" type="line"/>
    </contour>
  </outline>
</glyph>
<glyph name="plus" format="2">
  <advance width="551"/>
  <unicode hex="002B"/>
  <outline>
    <contour>
      <point x="189" y="91" type="line"/>
      <point x="219" y="286" type="line"/>
      <point x="39" y="286" type="line"/>
      <point x="57" y="395" type="line"/>
      <point x="237" y="395" type="line"/>
      <point x="267" y="590" type="line"/>
      <point x="385" y="590" type="line"/>
      <point x="355" y="395" type="line"/>
      <point x="534" y="395" type="line"/>
      <point x="517" y="286" type="line"/>
      <point x="337" y="286" type="line"/>
      <point x="307" y="91" type="line"/>
    </contour>
  </outline>
</glyph>
<glyph name="comma" format="2">
  <advance width="298"/>
  <unicode hex="002C"/>
  <outline>
    <contour>
      <point x="64" y="-123" type="line"/>
      <point x="-17" y="-85" type="line"/>
      <point x="93" y="161" type="line"/>
      <point x="221" y="110" type="line"/>
    </contour>
  </outline>
</glyph>
<glyph name="hyphen" format="2">
  <advance width="365"/>
  <unicode hex="002D"/>
  <outline>
    <contour>
      <point x="47" y="224" type="line"/>
      <point x="65" y="339" type="line"/>
      <point x="321" y="339" type="line"/>
      <point x="303" y="224" type="line"/>
    </contour>
  </outline>
</glyph>
<glyph name="period" format="2">
  <advance width="293"/>
  <unicode hex="002E"/>
  <outline>
    <contour>
      <point x="116" y="-9" type="curve" smooth="yes"/>
      <point x="65" y="-9"/>
      <point x="27" y="30"/>
      <point x="27" y="79" type="curve" smooth="yes"/>
      <point x="27" y="127"/>
      <point x="64" y="166"/>
      <point x="115" y="166" type="curve" smooth="yes"/>
      <point x="166" y="166"/>
      <point x="206" y="127"/>
      <point x="206" y="79" type="curve" smooth="yes"/>
      <point x="206" y="30"/>
      <point x="167" y="-9"/>
    </contour>
  </outline>
</glyph>
<glyph name="slash" format="2">
  <advance width="423"/>
  <unicode hex="002F"/>
  <outline>
    <contour>
      <point x="-75" y="-148" type="line"/>
      <point x="368" y="776" type="line"/>
      <point x="490" y="776" type="line"/>
      <point x="45" y="-148" type="line"/>
    </contour>
  </outline>
</glyph>
<glyph name="zero" format="2">
  <advance width="713"/>
  <unicode hex="0030"/>
  <outline>
    <contour>
      <point x="337" y="-11" type="curve" smooth="yes"/>
      <point x="154" y="-11"/>
      <point x="53" y="103"/>
      <point x="52" y="274" type="curve" smooth="yes"/>
      <point x="52" y="301"/>
      <point x="55" y="331"/>
      <point x="59" y="359" type="curve" smooth="yes"/>
      <point x="64" y="391" type="line" smooth="yes"/>
      <point x="98" y="604"/>
      <point x="229" y="725"/>
      <point x="408" y="725" type="curve" smooth="yes"/>
      <point x="586" y="725"/>
      <point x="689" y="611"/>
      <point x="689" y="437" type="curve" smooth="yes"/>
      <point x="689" y="411"/>
      <point x="687" y="382"/>
      <point x="682" y="355" type="curve" smooth="yes"/>
      <point x="677" y="322" type="line" smooth="yes"/>
      <point x="644" y="111"/>
      <point x="521" y="-11"/>
    </contour>
    <contour>
      <point x="344" y="116" type="curve" smooth="yes"/>
      <point x="440" y="116"/>
      <point x="494" y="191"/>
      <point x="517" y="334" type="curve" smooth="yes"/>
      <point x="522" y="365" type="line" smooth="yes"/>
      <point x="526" y="391"/>
      <point x="529" y="418"/>
      <point x="529" y="442" type="curve" smooth="yes"/>
      <point x="529" y="525"/>
      <point x="501" y="600"/>
      <point x="402" y="600" type="curve" smooth="yes"/>
      <point x="308" y="600"/>
      <point x="248" y="525"/>
      <point x="225" y="382" type="curve" smooth="yes"/>
      <point x="220" y="350" type="line" smooth="yes"/>
      <point x="216" y="324"/>
      <point x="213" y="296"/>
      <point x="213" y="270" type="curve" smooth="yes"/>
      <point x="213" y="191"/>
      <point x="241" y="116"/>
    </contour>
  </outline>
</glyph>
<glyph name="one" format="2">
  <advance width="431"/>
  <unicode hex="0031"/>
  <outline>
    <contour>
      <point x="135" y="0" type="line"/>
      <point x="222" y="555" type="line"/>
      <point x="62" y="458" type="line"/>
      <point x="85" y="600" type="line"/>
      <point x="268" y="715" type="line"/>
      <point x="410" y="715" type="line"/>
      <point x="297" y="0" type="line"/>
    </contour>
  </outline>
</glyph>
<glyph name="two" format="2">
  <advance width="593"/>
  <unicode hex="0032"/>
  <outline>
    <contour>
      <point x="-36" y="0" type="line"/>
      <point x="-32" y="26" type="line"/>
      <point x="280" y="302" type="line" smooth="yes"/>
      <point x="354" y="366"/>
      <point x="421" y="433"/>
      <point x="421" y="514" type="curve" smooth="yes"/>
      <point x="421" y="562"/>
      <point x="392" y="601"/>
      <point x="336" y="601" type="curve" smooth="yes"/>
      <point x="276" y="602"/>
      <point x="229" y="570"/>
      <point x="206" y="470" type="curve"/>
      <point x="58" y="470" type="line"/>
      <point x="81" y="643"/>
      <point x="197" y="725"/>
      <point x="349" y="725" type="curve" smooth="yes"/>
      <point x="481" y="725"/>
      <point x="583" y="656"/>
      <point x="583" y="525" type="curve" smooth="yes"/>
      <point x="583" y="408"/>
      <point x="503" y="330"/>
      <point x="408" y="250" type="curve" smooth="yes"/>
      <point x="256" y="123" type="line"/>
      <point x="529" y="123" type="line"/>
      <point x="510" y="0" type="line"/>
    </contour>
  </outline>
</glyph>
<glyph name="three" format="2">
  <advance width="635"/>
  <unicode hex="0033"/>
  <outline>
    <contour>
      <point x="298" y="-11" type="curve" smooth="yes"/>
      <point x="132" y="-11"/>
      <point x="24" y="70"/>
      <point x="24" y="227" type="curve"/>
      <point x="172" y="227" type="line"/>
      <point x="172" y="160"/>
      <point x="206" y="108"/>
      <point x="294" y="108" type="curve" smooth="yes"/>
      <point x="370" y="108"/>
      <point x="418" y="147"/>
      <point x="418" y="224" type="curve" smooth="yes"/>
      <point x="418" y="279"/>
      <point x="385" y="314"/>
      <point x="312" y="314" type="curve" smooth="yes"/>
      <point x="264" y="314" type="line"/>
      <point x="281" y="422" type="line"/>
      <point x="344" y="422" type="line" smooth="yes"/>
      <point x="406" y="422"/>
      <point x="452" y="451"/>
      <point x="452" y="521" type="curve" smooth="yes"/>
      <point x="453" y="576"/>
      <point x="416" y="606"/>
      <point x="361" y="606" type="curve" smooth="yes"/>
      <point x="294" y="606"/>
      <point x="247" y="570"/>
      <point x="231" y="498" type="curve"/>
      <point x="88" y="498" type="line"/>
      <point x="107" y="634"/>
      <point x="215" y="725"/>
      <point x="371" y="725" type="curve" smooth="yes"/>
      <point x="490" y="725"/>
      <point x="607" y="672"/>
      <point x="607" y="539" type="curve" smooth="yes"/>
      <point x="607" y="457"/>
      <point x="557" y="392"/>
      <point x="470" y="369" type="curve"/>
      <point x="540" y="349"/>
      <point x="581" y="294"/>
      <point x="581" y="221" type="curve" smooth="yes"/>
      <point x="581" y="69"/>
      <point x="450" y="-11"/>
    </contour>
  </outline>
</glyph>
<glyph name="four" format="2">
  <advance width="656"/>
  <unicode hex="0034"/>
  <outline>
    <contour>
      <point x="335" y="0" type="line"/>
      <point x="357" y="142" type="line"/>
      <point x="6" y="142" type="line"/>
      <point x="16" y="201" type="line"/>
      <point x="406" y="715" type="line"/>
      <point x="605" y="715" type="line"/>
      <point x="532" y="258" type="line"/>
      <point x="627" y="258" type="line"/>
      <point x="608" y="142" type="line"/>
      <point x="513" y="142" type="line"/>
      <point x="492" y="0" type="line"/>
    </contour>
    <contour>
      <point x="189" y="258" type="line"/>
      <point x="379" y="258" type="line"/>
      <point x="430" y="586" type="line"/>
    </contour>
  </outline>
</glyph>
<glyph name="five" format="2">
  <advance width="615"/>
  <unicode hex="0035"/>
  <outline>
    <contour>
      <point x="279" y="-11" type="curve" smooth="yes"/>
      <point x="139" y="-11"/>
      <point x="24" y="56"/>
      <point x="22" y="213" type="curve"/>
      <point x="174" y="213" type="line"/>
      <point x="177" y="152"/>
      <point x="208" y="113"/>
      <point x="280" y="113" type="curve" smooth="yes"/>
      <point x="359" y="113"/>
      <point x="406" y="169"/>
      <point x="406" y="257" type="curve" smooth="yes"/>
      <point x="407" y="323"/>
      <point x="369" y="366"/>
      <point x="295" y="366" type="curve" smooth="yes"/>
      <point x="233" y="366"/>
      <point x="190" y="341"/>
      <point x="159" y="308" type="curve"/>
      <point x="72" y="308" type="line"/>
      <point x="144" y="715" type="line"/>
      <point x="596" y="715" type="line"/>
      <point x="577" y="592" type="line"/>
      <point x="245" y="592" type="line"/>
      <point x="215" y="417" type="line"/>
      <point x="247" y="450"/>
      <point x="299" y="479"/>
      <point x="372" y="479" type="curve" smooth="yes"/>
      <point x="490" y="479"/>
      <point x="571" y="402"/>
      <point x="570" y="270" type="curve" smooth="yes"/>
      <point x="570" y="103"/>
      <point x="455" y="-11"/>
    </contour>
  </outline>
</glyph>
<glyph name="six" format="2">
  <advance width="654"/>
  <unicode hex="0036"/>
  <outline>
    <contour>
      <point x="322" y="-11" type="curve" smooth="yes"/>
      <point x="151" y="-11"/>
      <point x="50" y="80"/>
      <point x="51" y="255" type="curve" smooth="yes"/>
      <point x="51" y="285"/>
      <point x="54" y="317"/>
      <point x="59" y="350" type="curve" smooth="yes"/>
      <point x="63" y="377" type="line" smooth="yes"/>
      <point x="93" y="563"/>
      <point x="204" y="725"/>
      <point x="404" y="725" type="curve" smooth="yes"/>
      <point x="536" y="725"/>
      <point x="633" y="663"/>
      <point x="638" y="527" type="curve"/>
      <point x="488" y="527" type="line"/>
      <point x="484" y="573"/>
      <point x="460" y="603"/>
      <point x="399" y="603" type="curve" smooth="yes"/>
      <point x="291" y="603"/>
      <point x="244" y="497"/>
      <point x="223" y="382" type="curve"/>
      <point x="261" y="431"/>
      <point x="317" y="467"/>
      <point x="397" y="467" type="curve" smooth="yes"/>
      <point x="512" y="467"/>
      <point x="611" y="392"/>
      <point x="611" y="261" type="curve" smooth="yes"/>
      <point x="611" y="97"/>
      <point x="486" y="-11"/>
    </contour>
    <contour>
      <point x="210" y="220" type="curve" smooth="yes"/>
      <point x="210" y="158"/>
      <point x="246" y="106"/>
      <point x="323" y="106" type="curve" smooth="yes"/>
      <point x="400" y="106"/>
      <point x="451" y="170"/>
      <point x="451" y="252" type="curve" smooth="yes"/>
      <point x="451" y="310"/>
      <point x="417" y="360"/>
      <point x="341" y="360" type="curve" smooth="yes"/>
      <point x="266" y="360"/>
      <point x="210" y="299"/>
    </contour>
  </outline>
</glyph>
<glyph name="seven" format="2">
  <advance width="558"/>
  <unicode hex="0037"/>
  <outline>
    <contour>
      <point x="72" y="0" type="line"/>
      <point x="385" y="584" type="line"/>
      <point x="75" y="584" type="line"/>
      <point x="96" y="715" type="line"/>
      <point x="613" y="715" type="line"/>
      <point x="610" y="697" type="line"/>
      <point x="239" y="0" type="line"/>
    </contour>
  </outline>
</glyph>
<glyph name="eight" format="2">
  <advance width="639"/>
  <unicode hex="0038"/>
  <outline>
    <contour>
      <point x="302" y="-11" type="curve" smooth="yes"/>
      <point x="164" y="-11"/>
      <point x="31" y="53"/>
      <point x="31" y="187" type="curve" smooth="yes"/>
      <point x="31" y="292"/>
      <point x="97" y="359"/>
      <point x="192" y="388" type="curve"/>
      <point x="140" y="413"/>
      <point x="108" y="462"/>
      <point x="108" y="518" type="curve" smooth="yes"/>
      <point x="108" y="650"/>
      <point x="230" y="725"/>
      <point x="370" y="725" type="curve" smooth="yes"/>
      <point x="485" y="725"/>
      <point x="612" y="667"/>
      <point x="612" y="539" type="curve" smooth="yes"/>
      <point x="612" y="455"/>
      <point x="561" y="402"/>
      <point x="484" y="375" type="curve"/>
      <point x="553" y="348"/>
      <point x="592" y="288"/>
      <point x="592" y="219" type="curve" smooth="yes"/>
      <point x="592" y="67"/>
      <point x="465" y="-11"/>
    </contour>
    <contour>
      <point x="194" y="209" type="curve" smooth="yes"/>
      <point x="194" y="146"/>
      <point x="242" y="107"/>
      <point x="309" y="107" type="curve" smooth="yes"/>
      <point x="381" y="107"/>
      <point x="433" y="150"/>
      <point x="433" y="227" type="curve" smooth="yes"/>
      <point x="433" y="289"/>
      <point x="387" y="327"/>
      <point x="324" y="327" type="curve" smooth="yes"/>
      <point x="251" y="327"/>
      <point x="194" y="287"/>
    </contour>
    <contour>
      <point x="257" y="513" type="curve" smooth="yes"/>
      <point x="257" y="464"/>
      <point x="295" y="426"/>
      <point x="355" y="426" type="curve" smooth="yes"/>
      <point x="409" y="426"/>
      <point x="461" y="456"/>
      <point x="461" y="524" type="curve" smooth="yes"/>
      <point x="461" y="575"/>
      <point x="422" y="612"/>
      <point x="364" y="612" type="curve" smooth="yes"/>
      <point x="308" y="612"/>
      <point x="257" y="579"/>
    </contour>
  </outline>
</glyph>
<glyph name="nine" format="2">
  <advance width="655"/>
  <unicode hex="0039"/>
  <outline>
    <contour>
      <point x="281" y="-10" type="curve" smooth="yes"/>
      <point x="151" y="-10"/>
      <point x="41" y="47"/>
      <point x="32" y="193" type="curve"/>
      <point x="184" y="193" type="line"/>
      <point x="192" y="133"/>
      <point x="229" y="113"/>
      <point x="288" y="113" type="curve" smooth="yes"/>
      <point x="378" y="113"/>
      <point x="433" y="187"/>
      <point x="458" y="328" type="curve"/>
      <point x="421" y="279"/>
      <point x="365" y="247"/>
      <point x="286" y="247" type="curve" smooth="yes"/>
      <point x="174" y="247"/>
      <point x="71" y="313"/>
      <point x="71" y="451" type="curve" smooth="yes"/>
      <point x="71" y="616"/>
      <point x="195" y="726"/>
      <point x="364" y="726" type="curve" smooth="yes"/>
      <point x="532" y="726"/>
      <point x="630" y="631"/>
      <point x="631" y="457" type="curve" smooth="yes"/>
      <point x="631" y="428"/>
      <point x="629" y="397"/>
      <point x="623" y="364" type="curve" smooth="yes"/>
      <point x="618" y="333" type="line" smooth="yes"/>
      <point x="580" y="102"/>
      <point x="467" y="-10"/>
    </contour>
    <contour>
      <point x="229" y="463" type="curve" smooth="yes"/>
      <point x="229" y="400"/>
      <point x="264" y="355"/>
      <point x="330" y="355" type="curve" smooth="yes"/>
      <point x="407" y="355"/>
      <point x="470" y="404"/>
      <point x="470" y="495" type="curve" smooth="yes"/>
      <point x="470" y="555"/>
      <point x="437" y="609"/>
      <point x="360" y="609" type="curve" smooth="yes"/>
      <point x="284" y="609"/>
      <point x="229" y="549"/>
    </contour>
  </outline>
</glyph>
<glyph name="semicolon" format="2">
  <advance width="310"/>
  <unicode hex="003B"/>
  <outline>
    <contour>
      <point x="55" y="-123" type="line"/>
      <point x="-26" y="-85" type="line"/>
      <point x="85" y="161" type="line"/>
      <point x="212" y="110" type="line"/>
    </contour>
    <contour>
      <point x="183" y="281" type="curve" smooth="yes"/>
      <point x="133" y="281"/>
      <point x="94" y="320"/>
      <point x="94" y="369" type="curve" smooth="yes"/>
      <point x="94" y="417"/>
      <point x="132" y="456"/>
      <point x="182" y="456" type="curve" smooth="yes"/>
      <point x="233" y="456"/>
      <point x="273" y="417"/>
      <point x="273" y="369" type="curve" smooth="yes"/>
      <point x="273" y="320"/>
      <point x="234" y="281"/>
    </contour>
  </outline>
</glyph>
<glyph name="less" format="2">
  <advance width="509"/>
  <unicode hex="003C"/>
  <outline>
    <contour>
      <point x="423" y="72" type="line"/>
      <point x="52" y="312" type="line"/>
      <point x="57" y="342" type="line"/>
      <point x="502" y="572" type="line"/>
      <point x="481" y="437" type="line"/>
      <point x="245" y="322" type="line"/>
      <point x="443" y="199" type="line"/>
    </contour>
  </outline>
</glyph>
<glyph name="equal" format="2">
  <advance width="530"/>
  <unicode hex="003D"/>
  <outline>
    <contour>
      <point x="25" y="178" type="line"/>
      <point x="41" y="281" type="line"/>
      <point x="493" y="281" type="line"/>
      <point x="477" y="178" type="line"/>
    </contour>
    <contour>
      <point x="55" y="368" type="line"/>
      <point x="71" y="472" type="line"/>
      <point x="523" y="472" type="line"/>
      <point x="507" y="368" type="line"/>
    </contour>
  </outline>
</glyph>
<glyph name="greater" format="2">
  <advance width="509"/>
  <unicode hex="003E"/>
  <outline>
    <contour>
      <point x="103" y="573" type="line"/>
      <point x="474" y="333" type="line"/>
      <point x="469" y="303" type="line"/>
      <point x="25" y="73" type="line"/>
      <point x="46" y="209" type="line"/>
      <point x="282" y="324" type="line"/>
      <point x="83" y="447" type="line"/>
    </contour>
  </outline>
</glyph>
<glyph name="question" format="2">
  <advance width="532"/>
  <unicode hex="003F"/>
  <outline>
    <contour>
      <point x="165" y="223" type="line"/>
      <point x="170" y="255" type="line" smooth="yes"/>
      <point x="184" y="343"/>
      <point x="245" y="388"/>
      <point x="298" y="428" type="curve" smooth="yes"/>
      <point x="346" y="464"/>
      <point x="383" y="490"/>
      <point x="383" y="542" type="curve" smooth="yes"/>
      <point x="382" y="582"/>
      <point x="356" y="607"/>
      <point x="308" y="607" type="curve" smooth="yes"/>
      <point x="256" y="607"/>
      <point x="216" y="573"/>
      <point x="204" y="504" type="curve"/>
      <point x="64" y="504" type="line"/>
      <point x="82" y="650"/>
      <point x="184" y="726"/>
      <point x="318" y="725" type="curve" smooth="yes"/>
      <point x="461" y="725"/>
      <point x="536" y="649"/>
      <point x="536" y="551" type="curve" smooth="yes"/>
      <point x="536" y="461"/>
      <point x="483" y="414"/>
      <point x="424" y="370" type="curve" smooth="yes"/>
      <point x="373" y="333"/>
      <point x="312" y="300"/>
      <point x="300" y="229" type="curve" smooth="yes"/>
      <point x="299" y="223" type="line"/>
    </contour>
    <contour>
      <point x="212" y="-9" type="curve" smooth="yes"/>
      <point x="161" y="-9"/>
      <point x="123" y="29"/>
      <point x="123" y="77" type="curve" smooth="yes"/>
      <point x="123" y="126"/>
      <point x="162" y="164"/>
      <point x="212" y="164" type="curve" smooth="yes"/>
      <point x="262" y="164"/>
      <point x="302" y="126"/>
      <point x="302" y="78" type="curve" smooth="yes"/>
      <point x="302" y="30"/>
      <point x="262" y="-9"/>
    </contour>
  </outline>
</glyph>
<glyph name="at" format="2">
  <advance width="917"/>
  <unicode hex="0040"/>
  <outline>
    <contour>
      <point x="691" y="461" type="line"/>
      <point x="649" y="196" type="line" smooth="yes"/>
      <point x="643" y="149"/>
      <point x="656" y="125"/>
      <point x="693" y="125" type="curve" smooth="yes"/>
      <point x="748" y="125"/>
      <point x="810" y="183"/>
      <point x="810" y="325" type="curve" smooth="yes"/>
      <point x="810" y="502"/>
      <point x="684" y="622"/>
      <point x="480" y="622" type="curve" smooth="yes"/>
      <point x="276" y="622"/>
      <point x="119" y="476"/>
      <point x="119" y="254" type="curve" smooth="yes"/>
      <point x="119" y="67"/>
      <point x="236" y="-86"/>
      <point x="465" y="-86" type="curve" smooth="yes"/>
      <point x="578" y="-86"/>
      <point x="659" y="-50"/>
      <point x="714" y="0" type="curve"/>
      <point x="800" y="0" type="line"/>
      <point x="740" y="-92"/>
      <point x="613" y="-154"/>
      <point x="463" y="-154" type="curve" smooth="yes"/>
      <point x="194" y="-154"/>
      <point x="37" y="33"/>
      <point x="37" y="255" type="curve" smooth="yes"/>
      <point x="37" y="512"/>
      <point x="245" y="690"/>
      <point x="481" y="690" type="curve" smooth="yes"/>
      <point x="717" y="690"/>
      <point x="887" y="539"/>
      <point x="887" y="325" type="curve" smooth="yes"/>
      <point x="887" y="130"/>
      <point x="774" y="58"/>
      <point x="674" y="58" type="curve" smooth="yes"/>
      <point x="594" y="58"/>
      <point x="553" y="90"/>
      <point x="541" y="141" type="curve"/>
      <point x="514" y="89"/>
      <point x="468" y="54"/>
      <point x="398" y="54" type="curve" smooth="yes"/>
      <point x="304" y="54"/>
      <point x="242" y="119"/>
      <point x="241" y="227" type="curve" smooth="yes"/>
      <point x="241" y="369"/>
      <point x="331" y="469"/>
      <point x="446" y="469" type="curve" smooth="yes"/>
      <point x="512" y="469"/>
      <point x="545" y="440"/>
      <point x="558" y="406" type="curve"/>
      <point x="567" y="461" type="line"/>
    </contour>
    <contour>
      <point x="438" y="152" type="curve" smooth="yes"/>
      <point x="492" y="152"/>
      <point x="540" y="209"/>
      <point x="540" y="291" type="curve" smooth="yes"/>
      <point x="540" y="343"/>
      <point x="511" y="371"/>
      <point x="466" y="371" type="curve" smooth="yes"/>
      <point x="412" y="371"/>
      <point x="368" y="319"/>
      <point x="368" y="232" type="curve" smooth="yes"/>
      <point x="368" y="181"/>
      <point x="396" y="152"/>
    </contour>
  </outline>
</glyph>
<glyph name="B" format="2">
  <advance width="659"/>
  <unicode hex="0042"/>
  <outline>
    <contour>
      <point x="35" y="0" type="line"/>
      <point x="148" y="715" type="line"/>
      <point x="406" y="715" type="line" smooth="yes"/>
      <point x="558" y="715"/>
      <point x="628" y="650"/>
      <point x="627" y="543" type="curve" smooth="yes"/>
      <point x="627" y="451"/>
      <point x="576" y="393"/>
      <point x="490" y="370" type="curve"/>
      <point x="565" y="353"/>
      <point x="612" y="304"/>
      <point x="613" y="218" type="curve" smooth="yes"/>
      <point x="613" y="86"/>
      <point x="508" y="0"/>
      <point x="346" y="0" type="curve" smooth="yes"/>
    </contour>
    <contour>
      <point x="210" y="112" type="line"/>
      <point x="327" y="112" type="line" smooth="yes"/>
      <point x="412" y="112"/>
      <point x="455" y="159"/>
      <point x="455" y="226" type="curve" smooth="yes"/>
      <point x="455" y="286"/>
      <point x="422" y="317"/>
      <point x="339" y="317" type="curve" smooth="yes"/>
      <point x="243" y="317" type="line"/>
    </contour>
    <contour>
      <point x="259" y="421" type="line"/>
      <point x="357" y="421" type="line" smooth="yes"/>
      <point x="439" y="421"/>
      <point x="477" y="457"/>
      <point x="477" y="525" type="curve" smooth="yes"/>
      <point x="477" y="580"/>
      <point x="447" y="604"/>
      <point x="380" y="604" type="curve" smooth="yes"/>
      <point x="288" y="604" type="line"/>
    </contour>
  </outline>
</glyph>
<glyph name="D" format="2">
  <advance width="730"/>
  <unicode hex="0044"/>
  <outline>
    <contour>
      <point x="35" y="0" type="line"/>
      <point x="148" y="715" type="line"/>
      <point x="358" y="715" type="line" smooth="yes"/>
      <point x="598" y="715"/>
      <point x="710" y="594"/>
      <point x="711" y="410" type="curve" smooth="yes"/>
      <point x="711" y="162"/>
      <point x="553" y="0"/>
      <point x="296" y="0" type="curve" smooth="yes"/>
    </contour>
    <contour>
      <point x="217" y="126" type="line"/>
      <point x="295" y="126" type="line" smooth="yes"/>
      <point x="453" y="126"/>
      <point x="543" y="228"/>
      <point x="543" y="405" type="curve" smooth="yes"/>
      <point x="543" y="517"/>
      <point x="487" y="590"/>
      <point x="354" y="590" type="curve" smooth="yes"/>
      <point x="290" y="590" type="line"/>
    </contour>
  </outline>
</glyph>
<glyph name="H" format="2">
  <advance width="764"/>
  <unicode hex="0048"/>
  <outline>
    <contour>
      <point x="35" y="0" type="line"/>
      <point x="148" y="715" type="line"/>
      <point x="310" y="715" type="line"/>
      <point x="264" y="423" type="line"/>
      <point x="550" y="423" type="line"/>
      <point x="597" y="715" type="line"/>
      <point x="759" y="715" type="line"/>
      <point x="646" y="0" type="line"/>
      <point x="484" y="0" type="line"/>
      <point x="530" y="295" type="line"/>
      <point x="243" y="295" type="line"/>
      <point x="197" y="0" type="line"/>
    </contour>
  </outline>
</glyph>
<glyph name="J" format="2">
  <advance width="457"/>
  <unicode hex="004A"/>
  <outline>
    <contour>
      <point x="134" y="-9" type="curve" smooth="yes"/>
      <point x="57" y="-9"/>
      <point x="19" y="7"/>
      <point x="-5" y="20" type="curve"/>
      <point x="14" y="142" type="line"/>
      <point x="39" y="131"/>
      <point x="68" y="120"/>
      <point x="110" y="120" type="curve" smooth="yes"/>
      <point x="169" y="120"/>
      <point x="208" y="149"/>
      <point x="219" y="222" type="curve" smooth="yes"/>
      <point x="297" y="715" type="line"/>
      <point x="460" y="715" type="line"/>
      <point x="380" y="214" type="line" smooth="yes"/>
      <point x="356" y="59"/>
      <point x="265" y="-9"/>
    </contour>
  </outline>
</glyph>
<glyph name="K" format="2">
  <advance width="686"/>
  <unicode hex="004B"/>
  <outline>
    <contour>
      <point x="35" y="0" type="line"/>
      <point x="148" y="715" type="line"/>
      <point x="310" y="715" type="line"/>
      <point x="261" y="408" type="line"/>
      <point x="562" y="715" type="line"/>
      <point x="739" y="715" type="line"/>
      <point x="397" y="372" type="line"/>
      <point x="632" y="0" type="line"/>
      <point x="455" y="0" type="line"/>
      <point x="249" y="331" type="line"/>
      <point x="197" y="0" type="line"/>
    </contour>
  </outline>
</glyph>
<glyph name="M" format="2">
  <advance width="910"/>
  <unicode hex="004D"/>
  <outline>
    <contour>
      <point x="35" y="0" type="line"/>
      <point x="148" y="715" type="line"/>
      <point x="355" y="715" type="line"/>
      <point x="453" y="271" type="line"/>
      <point x="688" y="715" type="line"/>
      <point x="904" y="715" type="line"/>
      <point x="791" y="0" type="line"/>
      <point x="630" y="0" type="line"/>
      <point x="710" y="504" type="line"/>
      <point x="432" y="0" type="line"/>
      <point x="379" y="0" type="line"/>
      <point x="260" y="504" type="line"/>
      <point x="180" y="0" type="line"/>
    </contour>
  </outline>
</glyph>
<glyph name="P" format="2">
  <advance width="626"/>
  <unicode hex="0050"/>
  <outline>
    <contour>
      <point x="35" y="0" type="line"/>
      <point x="148" y="715" type="line"/>
      <point x="384" y="715" type="line" smooth="yes"/>
      <point x="540" y="715"/>
      <point x="632" y="643"/>
      <point x="632" y="517" type="curve" smooth="yes"/>
      <point x="632" y="341"/>
      <point x="507" y="260"/>
      <point x="342" y="260" type="curve" smooth="yes"/>
      <point x="238" y="260" type="line"/>
      <point x="197" y="0" type="line"/>
    </contour>
    <contour>
      <point x="255" y="373" type="line"/>
      <point x="339" y="373" type="line" smooth="yes"/>
      <point x="429" y="373"/>
      <point x="477" y="419"/>
      <point x="477" y="503" type="curve" smooth="yes"/>
      <point x="477" y="563"/>
      <point x="440" y="593"/>
      <point x="366" y="593" type="curve" smooth="yes"/>
      <point x="290" y="593" type="line"/>
    </contour>
  </outline>
</glyph>
<glyph name="Q" format="2">
  <advance width="816"/>
  <unicode hex="0051"/>
  <outline>
    <contour>
      <point x="392" y="-11" type="curve" smooth="yes"/>
      <point x="199" y="-11"/>
      <point x="53" y="111"/>
      <point x="53" y="305" type="curve" smooth="yes"/>
      <point x="53" y="546"/>
      <point x="221" y="725"/>
      <point x="453" y="725" type="curve" smooth="yes"/>
      <point x="654" y="725"/>
      <point x="793" y="600"/>
      <point x="793" y="406" type="curve" smooth="yes"/>
      <point x="793" y="267"/>
      <point x="738" y="152"/>
      <point x="649" y="78" type="curve"/>
      <point x="716" y="-5" type="line"/>
      <point x="610" y="-93" type="line"/>
      <point x="527" y="10" type="line"/>
      <point x="485" y="-3"/>
      <point x="440" y="-11"/>
    </contour>
    <contour>
      <point x="400" y="114" type="curve" smooth="yes"/>
      <point x="414" y="114"/>
      <point x="427" y="115"/>
      <point x="440" y="118" type="curve"/>
      <point x="380" y="192" type="line"/>
      <point x="487" y="279" type="line"/>
      <point x="558" y="190" type="line"/>
      <point x="601" y="242"/>
      <point x="624" y="318"/>
      <point x="624" y="402" type="curve" smooth="yes"/>
      <point x="624" y="509"/>
      <point x="567" y="597"/>
      <point x="448" y="597" type="curve" smooth="yes"/>
      <point x="303" y="598"/>
      <point x="221" y="462"/>
      <point x="221" y="310" type="curve" smooth="yes"/>
      <point x="221" y="194"/>
      <point x="289" y="114"/>
    </contour>
  </outline>
</glyph>
<glyph name="S" format="2">
  <advance width="640"/>
  <unicode hex="0053"/>
  <outline>
    <contour>
      <point x="309" y="-11" type="curve" smooth="yes"/>
      <point x="120" y="-11"/>
      <point x="20" y="86"/>
      <point x="21" y="224" type="curve"/>
      <point x="175" y="224" type="line"/>
      <point x="177" y="163"/>
      <point x="214" y="107"/>
      <point x="314" y="107" type="curve" smooth="yes"/>
      <point x="392" y="106"/>
      <point x="435" y="144"/>
      <point x="435" y="205" type="curve" smooth="yes"/>
      <point x="435" y="251"/>
      <point x="407" y="274"/>
      <point x="315" y="297" type="curve" smooth="yes"/>
      <point x="155" y="334"/>
      <point x="88" y="386"/>
      <point x="88" y="502" type="curve" smooth="yes"/>
      <point x="88" y="626"/>
      <point x="189" y="725"/>
      <point x="358" y="725" type="curve" smooth="yes"/>
      <point x="516" y="725"/>
      <point x="614" y="655"/>
      <point x="614" y="511" type="curve"/>
      <point x="466" y="511" type="line"/>
      <point x="461" y="580"/>
      <point x="418" y="606"/>
      <point x="351" y="606" type="curve" smooth="yes"/>
      <point x="278" y="606"/>
      <point x="244" y="570"/>
      <point x="244" y="519" type="curve" smooth="yes"/>
      <point x="244" y="478"/>
      <point x="270" y="458"/>
      <point x="365" y="434" type="curve" smooth="yes"/>
      <point x="519" y="396"/>
      <point x="594" y="345"/>
      <point x="594" y="228" type="curve" smooth="yes"/>
      <point x="594" y="89"/>
      <point x="491" y="-10"/>
    </contour>
  </outline>
</glyph>
<glyph name="T" format="2">
  <advance width="597"/>
  <unicode hex="0054"/>
  <outline>
    <contour>
      <point x="175" y="0" type="line"/>
      <point x="267" y="589" type="line"/>
      <point x="74" y="589" type="line"/>
      <point x="95" y="715" type="line"/>
      <point x="644" y="715" type="line"/>
      <point x="623" y="589" type="line"/>
      <point x="430" y="589" type="line"/>
      <point x="338" y="0" type="line"/>
    </contour>
  </outline>
</glyph>
<glyph name="V" format="2">
  <advance width="689"/>
  <unicode hex="0056"/>
  <outline>
    <contour>
      <point x="210" y="0" type="line"/>
      <point x="84" y="715" type="line"/>
      <point x="250" y="715" type="line"/>
      <point x="333" y="166" type="line"/>
      <point x="590" y="715" type="line"/>
      <point x="747" y="715" type="line"/>
      <point x="396" y="0" type="line"/>
    </contour>
  </outline>
</glyph>
<glyph name="X" format="2">
  <advance width="681"/>
  <unicode hex="0058"/>
  <outline>
    <contour>
      <point x="-24" y="0" type="line"/>
      <point x="259" y="375" type="line"/>
      <point x="105" y="715" type="line"/>
      <point x="278" y="715" type="line"/>
      <point x="379" y="475" type="line"/>
      <point x="549" y="715" type="line"/>
      <point x="716" y="715" type="line"/>
      <point x="461" y="364" type="line"/>
      <point x="626" y="0" type="line"/>
      <point x="451" y="0" type="line"/>
      <point x="337" y="267" type="line"/>
      <point x="145" y="0" type="line"/>
    </contour>
  </outline>
</glyph>
<glyph name="Z" format="2">
  <advance width="614"/>
  <unicode hex="005A"/>
  <outline>
    <contour>
      <point x="-24" y="0" type="line"/>
      <point x="-21" y="20" type="line"/>
      <point x="407" y="590" type="line"/>
      <point x="106" y="590" type="line"/>
      <point x="126" y="715" type="line"/>
      <point x="660" y="715" type="line"/>
      <point x="657" y="696" type="line"/>
      <point x="234" y="126" type="line"/>
      <point x="552" y="126" type="line"/>
      <point x="532" y="0" type="line"/>
    </contour>
  </outline>
</glyph>
<glyph name="bracketleft" format="2">
  <advance width="390"/>
  <unicode hex="005B"/>
  <outline>
    <contour>
      <point x="8" y="-148" type="line"/>
      <point x="154" y="776" type="line"/>
      <point x="430" y="776" type="line"/>
      <point x="413" y="669" type="line"/>
      <point x="282" y="669" type="line"/>
      <point x="170" y="-41" type="line"/>
      <point x="301" y="-41" type="line"/>
      <point x="284" y="-148" type="line"/>
    </contour>
  </outline>
</glyph>
<glyph name="backslash" format="2">
  <advance width="423"/>
  <unicode hex="005C"/>
  <outline>
    <contour>
      <point x="260" y="-148" type="line"/>
      <point x="86" y="776" type="line"/>
      <point x="200" y="776" type="line"/>
      <point x="374" y="-148" type="line"/>
    </contour>
  </outline>
</glyph>
<glyph name="bracketright" format="2">
  <advance width="458"/>
  <unicode hex="005D"/>
  <outline>
    <contour>
      <point x="-25" y="-148" type="line"/>
      <point x="-8" y="-41" type="line"/>
      <point x="122" y="-41" type="line"/>
      <point x="234" y="669" type="line"/>
      <point x="104" y="669" type="line"/>
      <point x="121" y="776" type="line"/>
      <point x="396" y="776" type="line"/>
      <point x="250" y="-148" type="line"/>
    </contour>
  </outline>
</glyph>
<glyph name="asciicircum" format="2">
  <advance width="522"/>
  <unicode hex="005E"/>
  <outline>
    <contour>
      <point x="51" y="399" type="line"/>
      <point x="264" y="715" type="line"/>
      <point x="394" y="715" type="line"/>
      <point x="512" y="399" type="line"/>
      <point x="388" y="399" type="line"/>
      <point x="313" y="597" type="line"/>
      <point x="180" y="399" type="line"/>
    </contour>
  </outline>
</glyph>
<glyph name="underscore" format="2">
  <advance width="419"/>
  <unicode hex="005F"/>
  <outline>
    <contour>
      <point x="-68" y="-160" type="line"/>
      <point x="-55" y="-81" type="line"/>
      <point x="365" y="-81" type="line"/>
      <point x="352" y="-160" type="line"/>
    </contour>
  </outline>
</glyph>
<glyph name="grave" format="2">
  <advance width="400"/>
  <unicode hex="0060"/>
  <outline>
    <contour>
      <point x="209" y="594" type="line"/>
      <point x="119" y="753" type="line"/>
      <point x="269" y="753" type="line"/>
      <point x="311" y="594" type="line"/>
    </contour>
  </outline>
</glyph>
<glyph name="b" format="2">
  <advance width="637"/>
  <unicode hex="0062"/>
  <outline>
    <contour>
      <point x="352" y="-11" type="curve" smooth="yes"/>
      <point x="260" y="-11"/>
      <point x="203" y="36"/>
      <point x="180" y="89" type="curve"/>
      <point x="166" y="0" type="line"/>
      <point x="22" y="0" type="line"/>
      <point x="142" y="760" type="line"/>
      <point x="286" y="760" type="line"/>
      <point x="236" y="444" type="line"/>
      <point x="272" y="499"/>
      <point x="333" y="535"/>
      <point x="412" y="535" type="curve" smooth="yes"/>
      <point x="524" y="535"/>
      <point x="608" y="453"/>
      <point x="608" y="308" type="curve" smooth="yes"/>
      <point x="608" y="119"/>
      <point x="504" y="-11"/>
    </contour>
    <contour>
      <point x="318" y="100" type="curve" smooth="yes"/>
      <point x="405" y="100"/>
      <point x="458" y="182"/>
      <point x="458" y="298" type="curve" smooth="yes"/>
      <point x="458" y="380"/>
      <point x="420" y="426"/>
      <point x="353" y="426" type="curve" smooth="yes"/>
      <point x="266" y="426"/>
      <point x="200" y="346"/>
      <point x="200" y="226" type="curve" smooth="yes"/>
      <point x="200" y="146"/>
      <point x="244" y="100"/>
    </contour>
  </outline>
</glyph>
<glyph name="c" format="2">
  <advance width="570"/>
  <unicode hex="0063"/>
  <outline>
    <contour>
      <point x="287" y="-10" type="curve" smooth="yes"/>
      <point x="132" y="-10"/>
      <point x="29" y="79"/>
      <point x="29" y="229" type="curve" smooth="yes"/>
      <point x="29" y="418"/>
      <point x="154" y="534"/>
      <point x="315" y="534" type="curve" smooth="yes"/>
      <point x="443" y="534"/>
      <point x="542" y="473"/>
      <point x="548" y="331" type="curve"/>
      <point x="412" y="331" type="line"/>
      <point x="405" y="398"/>
      <point x="369" y="421"/>
      <point x="311" y="421" type="curve" smooth="yes"/>
      <point x="225" y="421"/>
      <point x="174" y="342"/>
      <point x="174" y="228" type="curve" smooth="yes"/>
      <point x="174" y="146"/>
      <point x="211" y="97"/>
      <point x="292" y="97" type="curve" smooth="yes"/>
      <point x="350" y="97"/>
      <point x="396" y="132"/>
      <point x="408" y="198" type="curve"/>
      <point x="539" y="198" type="line"/>
      <point x="519" y="65"/>
      <point x="425" y="-10"/>
    </contour>
  </outline>
</glyph>
<glyph name="f" format="2">
  <advance width="365"/>
  <unicode hex="0066"/>
  <outline>
    <contour>
      <point x="40" y="420" type="line"/>
      <point x="56" y="523" type="line"/>
      <point x="124" y="523" type="line"/>
      <point x="137" y="602" type="line" smooth="yes"/>
      <point x="156" y="717"/>
      <point x="237" y="768"/>
      <point x="339" y="768" type="curve" smooth="yes"/>
      <point x="382" y="768"/>
      <point x="403" y="763"/>
      <point x="423" y="755" type="curve"/>
      <point x="406" y="647" type="line"/>
      <point x="393" y="653"/>
      <point x="378" y="656"/>
      <point x="356" y="656" type="curve" smooth="yes"/>
      <point x="310" y="656"/>
      <point x="287" y="631"/>
      <point x="280" y="590" type="curve" smooth="yes"/>
      <point x="269" y="523" type="line"/>
      <point x="383" y="523" type="line"/>
      <point x="367" y="420" type="line"/>
      <point x="253" y="420" type="line"/>
      <point x="186" y="0" type="line"/>
      <point x="42" y="0" type="line"/>
      <point x="108" y="420" type="line"/>
    </contour>
  </outline>
</glyph>
<glyph name="g" format="2">
  <advance width="634"/>
  <unicode hex="0067"/>
  <outline>
    <contour>
      <point x="286" y="131" type="curve" smooth="yes"/>
      <point x="372" y="131"/>
      <point x="435" y="202"/>
      <point x="435" y="310" type="curve" smooth="yes"/>
      <point x="435" y="381"/>
      <point x="389" y="426"/>
      <point x="322" y="426" type="curve" smooth="yes"/>
      <point x="232" y="426"/>
      <point x="182" y="343"/>
      <point x="182" y="254" type="curve" smooth="yes"/>
      <point x="182" y="181"/>
      <point x="217" y="131"/>
    </contour>
    <contour>
      <point x="612" y="523" type="line"/>
      <point x="534" y="29" type="line" smooth="yes"/>
      <point x="510" y="-120"/>
      <point x="427" y="-193"/>
      <point x="257" y="-193" type="curve" smooth="yes"/>
      <point x="73" y="-193"/>
      <point x="5" y="-104"/>
      <point x="-2" y="-11" type="curve"/>
      <point x="142" y="-11" type="line"/>
      <point x="148" y="-51"/>
      <point x="180" y="-87"/>
      <point x="254" y="-87" type="curve" smooth="yes"/>
      <point x="343" y="-87"/>
      <point x="378" y="-41"/>
      <point x="390" y="32" type="curve" smooth="yes"/>
      <point x="402" y="106" type="line"/>
      <point x="366" y="52"/>
      <point x="313" y="23"/>
      <point x="239" y="23" type="curve" smooth="yes"/>
      <point x="119" y="23"/>
      <point x="33" y="105"/>
      <point x="33" y="245" type="curve" smooth="yes"/>
      <point x="33" y="410"/>
      <point x="141" y="535"/>
      <point x="291" y="535" type="curve" smooth="yes"/>
      <point x="379" y="535"/>
      <point x="430" y="495"/>
      <point x="455" y="443" type="curve"/>
      <point x="468" y="523" type="line"/>
    </contour>
  </outline>
</glyph>
<glyph name="h" format="2">
  <advance width="611"/>
  <unicode hex="0068"/>
  <outline>
    <contour>
      <point x="22" y="0" type="line"/>
      <point x="142" y="760" type="line"/>
      <point x="286" y="760" type="line"/>
      <point x="236" y="436" type="line"/>
      <point x="270" y="491"/>
      <point x="325" y="535"/>
      <point x="410" y="535" type="curve" smooth="yes"/>
      <point x="512" y="535"/>
      <point x="584" y="472"/>
      <point x="559" y="314" type="curve" smooth="yes"/>
      <point x="509" y="0" type="line"/>
      <point x="365" y="0" type="line"/>
      <point x="414" y="313" type="line" smooth="yes"/>
      <point x="426" y="383"/>
      <point x="401" y="417"/>
      <point x="344" y="417" type="curve" smooth="yes"/>
      <point x="277" y="417"/>
      <point x="225" y="374"/>
      <point x="213" y="294" type="curve" smooth="yes"/>
      <point x="166" y="0" type="line"/>
    </contour>
  </outline>
</glyph>
<glyph name="j" format="2">
  <advance width="281"/>
  <unicode hex="006A"/>
  <outline>
    <contour>
      <point x="-71" y="-185" type="curve"/>
      <point x="-55" y="-79" type="line"/>
      <point x="-5" y="-76"/>
      <point x="17" y="-55"/>
      <point x="24" y="-12" type="curve" smooth="yes"/>
      <point x="109" y="523" type="line"/>
      <point x="252" y="523" type="line"/>
      <point x="166" y="-25" type="line" smooth="yes"/>
      <point x="151" y="-121"/>
      <point x="93" y="-191"/>
    </contour>
    <contour>
      <point x="202" y="595" type="curve" smooth="yes"/>
      <point x="155" y="595"/>
      <point x="121" y="628"/>
      <point x="121" y="673" type="curve" smooth="yes"/>
      <point x="121" y="717"/>
      <point x="156" y="751"/>
      <point x="203" y="751" type="curve" smooth="yes"/>
      <point x="249" y="751"/>
      <point x="284" y="718"/>
      <point x="284" y="674" type="curve" smooth="yes"/>
      <point x="284" y="629"/>
      <point x="248" y="595"/>
    </contour>
  </outline>
</glyph>
<glyph name="m" format="2">
  <advance width="916"/>
  <unicode hex="006D"/>
  <outline>
    <contour>
      <point x="22" y="0" type="line"/>
      <point x="78" y="357" type="line" smooth="yes"/>
      <point x="90" y="431"/>
      <point x="94" y="477"/>
      <point x="96" y="523" type="curve"/>
      <point x="235" y="523" type="line"/>
      <point x="235" y="496"/>
      <point x="234" y="465"/>
      <point x="230" y="432" type="curve"/>
      <point x="266" y="491"/>
      <point x="327" y="535"/>
      <point x="402" y="535" type="curve" smooth="yes"/>
      <point x="472" y="535"/>
      <point x="522" y="502"/>
      <point x="539" y="432" type="curve"/>
      <point x="589" y="507"/>
      <point x="654" y="535"/>
      <point x="718" y="535" type="curve" smooth="yes"/>
      <point x="818" y="535"/>
      <point x="889" y="473"/>
      <point x="865" y="322" type="curve" smooth="yes"/>
      <point x="815" y="0" type="line"/>
      <point x="670" y="0" type="line"/>
      <point x="720" y="312" type="line" smooth="yes"/>
      <point x="731" y="384"/>
      <point x="708" y="417"/>
      <point x="654" y="417" type="curve" smooth="yes"/>
      <point x="600" y="417"/>
      <point x="550" y="380"/>
      <point x="538" y="303" type="curve" smooth="yes"/>
      <point x="490" y="0" type="line"/>
      <point x="347" y="0" type="line"/>
      <point x="396" y="315" type="line" smooth="yes"/>
      <point x="407" y="383"/>
      <point x="383" y="417"/>
      <point x="330" y="417" type="curve" smooth="yes"/>
      <point x="273" y="417"/>
      <point x="226" y="377"/>
      <point x="214" y="303" type="curve" smooth="yes"/>
      <point x="166" y="0" type="line"/>
    </contour>
  </outline>
</glyph>
<glyph name="p" format="2">
  <advance width="637"/>
  <unicode hex="0070"/>
  <outline>
    <contour>
      <point x="412" y="535" type="curve" smooth="yes"/>
      <point x="524" y="535"/>
      <point x="608" y="453"/>
      <point x="608" y="308" type="curve" smooth="yes"/>
      <point x="608" y="119"/>
      <point x="505" y="-11"/>
      <point x="352" y="-11" type="curve" smooth="yes"/>
      <point x="260" y="-11"/>
      <point x="203" y="36"/>
      <point x="180" y="89" type="curve"/>
      <point x="138" y="-178" type="line"/>
      <point x="-6" y="-178" type="line"/>
      <point x="78" y="357" type="line" smooth="yes"/>
      <point x="90" y="431"/>
      <point x="94" y="477"/>
      <point x="96" y="523" type="curve"/>
      <point x="235" y="523" type="line"/>
      <point x="235" y="497"/>
      <point x="234" y="465"/>
      <point x="231" y="434" type="curve"/>
      <point x="269" y="498"/>
      <point x="332" y="535"/>
    </contour>
    <contour>
      <point x="318" y="100" type="curve" smooth="yes"/>
      <point x="405" y="100"/>
      <point x="458" y="182"/>
      <point x="458" y="298" type="curve" smooth="yes"/>
      <point x="458" y="380"/>
      <point x="420" y="426"/>
      <point x="353" y="426" type="curve" smooth="yes"/>
      <point x="266" y="426"/>
      <point x="200" y="346"/>
      <point x="200" y="226" type="curve" smooth="yes"/>
      <point x="200" y="146"/>
      <point x="244" y="100"/>
    </contour>
  </outline>
</glyph>
<glyph name="q" format="2">
  <advance width="637"/>
  <unicode hex="0071"/>
  <outline>
    <contour>
      <point x="358" y="-178" type="line"/>
      <point x="399" y="75" type="line"/>
      <point x="363" y="22"/>
      <point x="310" y="-11"/>
      <point x="232" y="-11" type="curve" smooth="yes"/>
      <point x="114" y="-11"/>
      <point x="29" y="72"/>
      <point x="29" y="218" type="curve" smooth="yes"/>
      <point x="29" y="406"/>
      <point x="136" y="535"/>
      <point x="293" y="535" type="curve" smooth="yes"/>
      <point x="381" y="535"/>
      <point x="431" y="495"/>
      <point x="456" y="443" type="curve"/>
      <point x="469" y="523" type="line"/>
      <point x="613" y="523" type="line"/>
      <point x="503" y="-178" type="line"/>
    </contour>
    <contour>
      <point x="285" y="99" type="curve" smooth="yes"/>
      <point x="371" y="99"/>
      <point x="435" y="173"/>
      <point x="435" y="300" type="curve" smooth="yes"/>
      <point x="435" y="379"/>
      <point x="390" y="425"/>
      <point x="322" y="425" type="curve" smooth="yes"/>
      <point x="233" y="425"/>
      <point x="178" y="344"/>
      <point x="178" y="228" type="curve" smooth="yes"/>
      <point x="178" y="147"/>
      <point x="216" y="99"/>
    </contour>
  </outline>
</glyph>
<glyph name="v" format="2">
  <advance width="556"/>
  <unicode hex="0076"/>
  <outline>
    <contour>
      <point x="153" y="0" type="line"/>
      <point x="51" y="523" type="line"/>
      <point x="201" y="523" type="line"/>
      <point x="261" y="146" type="line"/>
      <point x="441" y="523" type="line"/>
      <point x="586" y="523" type="line"/>
      <point x="315" y="0" type="line"/>
    </contour>
  </outline>
</glyph>
<glyph name="w" format="2">
  <advance width="807"/>
  <unicode hex="0077"/>
  <outline>
    <contour>
      <point x="125" y="0" type="line"/>
      <point x="54" y="523" type="line"/>
      <point x="202" y="523" type="line"/>
      <point x="236" y="168" type="line"/>
      <point x="389" y="523" type="line"/>
      <point x="508" y="523" type="line"/>
      <point x="544" y="168" type="line"/>
      <point x="693" y="523" type="line"/>
      <point x="835" y="523" type="line"/>
      <point x="592" y="0" type="line"/>
      <point x="450" y="0" type="line"/>
      <point x="415" y="331" type="line"/>
      <point x="269" y="0" type="line"/>
    </contour>
  </outline>
</glyph>
<glyph name="x" format="2">
  <advance width="551"/>
  <unicode hex="0078"/>
  <outline>
    <contour>
      <point x="-34" y="0" type="line"/>
      <point x="186" y="272" type="line"/>
      <point x="60" y="523" type="line"/>
      <point x="219" y="523" type="line"/>
      <point x="293" y="368" type="line"/>
      <point x="412" y="523" type="line"/>
      <point x="566" y="523" type="line"/>
      <point x="361" y="272" type="line"/>
      <point x="500" y="0" type="line"/>
      <point x="340" y="0" type="line"/>
      <point x="258" y="175" type="line"/>
      <point x="120" y="0" type="line"/>
    </contour>
  </outline>
</glyph>
<glyph name="z" format="2">
  <advance width="494"/>
  <unicode hex="007A"/>
  <outline>
    <contour>
      <point x="-28" y="0" type="line"/>
      <point x="-26" y="16" type="line"/>
      <point x="286" y="412" type="line"/>
      <point x="61" y="412" type="line"/>
      <point x="78" y="523" type="line"/>
      <point x="516" y="523" type="line"/>
      <point x="513" y="505" type="line"/>
      <point x="201" y="112" type="line"/>
      <point x="443" y="112" type="line"/>
      <point x="426" y="0" type="line"/>
    </contour>
  </outline>
</glyph>
<glyph name="braceleft" format="2">
  <advance width="405"/>
  <unicode hex="007B"/>
  <outline>
    <contour>
      <point x="298" y="-147" type="line"/>
      <point x="121" y="-143"/>
      <point x="44" y="-62"/>
      <point x="95" y="87" type="curve" smooth="yes"/>
      <point x="124" y="171" type="line" smooth="yes"/>
      <point x="144" y="228"/>
      <point x="122" y="267"/>
      <point x="36" y="271" type="curve"/>
      <point x="51" y="372" type="line"/>
      <point x="139" y="371"/>
      <point x="171" y="402"/>
      <point x="169" y="465" type="curve" smooth="yes"/>
      <point x="168" y="557" type="line" smooth="yes"/>
      <point x="165" y="724"/>
      <point x="255" y="779"/>
      <point x="445" y="778" type="curve"/>
      <point x="428" y="672" type="line"/>
      <point x="336" y="670"/>
      <point x="308" y="642"/>
      <point x="308" y="553" type="curve" smooth="yes"/>
      <point x="307" y="455" type="line" smooth="yes"/>
      <point x="306" y="374"/>
      <point x="260" y="331"/>
      <point x="186" y="315" type="curve"/>
      <point x="259" y="296"/>
      <point x="286" y="243"/>
      <point x="261" y="164" type="curve" smooth="yes"/>
      <point x="234" y="78" type="line" smooth="yes"/>
      <point x="206" y="-7"/>
      <point x="229" y="-36"/>
      <point x="315" y="-42" type="curve"/>
    </contour>
  </outline>
</glyph>
<glyph name="braceright" format="2">
  <advance width="405"/>
  <unicode hex="007D"/>
  <outline>
    <contour>
      <point x="121" y="778" type="line"/>
      <point x="298" y="773"/>
      <point x="373" y="692"/>
      <point x="324" y="543" type="curve" smooth="yes"/>
      <point x="295" y="459" type="line" smooth="yes"/>
      <point x="276" y="403"/>
      <point x="297" y="363"/>
      <point x="384" y="356" type="curve"/>
      <point x="369" y="255" type="line"/>
      <point x="280" y="259"/>
      <point x="250" y="230"/>
      <point x="250" y="166" type="curve" smooth="yes"/>
      <point x="252" y="73" type="line" smooth="yes"/>
      <point x="253" y="-94"/>
      <point x="164" y="-149"/>
      <point x="-26" y="-147" type="curve"/>
      <point x="-9" y="-42" type="line"/>
      <point x="83" y="-39"/>
      <point x="111" y="-11"/>
      <point x="111" y="77" type="curve" smooth="yes"/>
      <point x="112" y="179" type="line" smooth="yes"/>
      <point x="113" y="262"/>
      <point x="161" y="302"/>
      <point x="233" y="314" type="curve"/>
      <point x="161" y="335"/>
      <point x="133" y="390"/>
      <point x="157" y="463" type="curve" smooth="yes"/>
      <point x="185" y="552" type="line" smooth="yes"/>
      <point x="213" y="637"/>
      <point x="191" y="666"/>
      <point x="104" y="672" type="curve"/>
    </contour>
  </outline>
</glyph>
<glyph name="asciitilde" format="2">
  <advance width="492"/>
  <unicode hex="007E"/>
  <outline>
    <contour>
      <point x="29" y="218" type="line"/>
      <point x="48" y="341"/>
      <point x="109" y="390"/>
      <point x="174" y="390" type="curve" smooth="yes"/>
      <point x="243" y="390"/>
      <point x="290" y="343"/>
      <point x="324" y="343" type="curve" smooth="yes"/>
      <point x="349" y="343"/>
      <point x="369" y="360"/>
      <point x="375" y="392" type="curve"/>
      <point x="473" y="392" type="line"/>
      <point x="457" y="273"/>
      <point x="392" y="219"/>
      <point x="329" y="219" type="curve" smooth="yes"/>
      <point x="257" y="219"/>
      <point x="211" y="266"/>
      <point x="177" y="266" type="curve" smooth="yes"/>
      <point x="152" y="266"/>
      <point x="134" y="248"/>
      <point x="127" y="218" type="curve"/>
    </contour>
  </outline>
</glyph>
<glyph name="exclamdown" format="2">
  <advance width="317"/>
  <unicode hex="00A1"/>
  <outline>
    <contour>
      <point x="234" y="375" type="line"/>
      <point x="177" y="-117" type="line"/>
      <point x="16" y="-117" type="line"/>
      <point x="116" y="375" type="line"/>
    </contour>
    <contour>
      <point x="196" y="607" type="curve" smooth="yes"/>
      <point x="246" y="607"/>
      <point x="284" y="569"/>
      <point x="284" y="521" type="curve" smooth="yes"/>
      <point x="284" y="473"/>
      <point x="245" y="434"/>
      <point x="195" y="434" type="curve" smooth="yes"/>
      <point x="145" y="434"/>
      <point x="105" y="472"/>
      <point x="105" y="520" type="curve" smooth="yes"/>
      <point x="105" y="568"/>
      <point x="146" y="607"/>
    </contour>
  </outline>
</glyph>
<glyph name="cent" format="2">
  <advance width="582"/>
  <unicode hex="00A2"/>
  <outline>
    <contour>
      <point x="206" y="-135" type="line"/>
      <point x="226" y="-5" type="line"/>
      <point x="108" y="16"/>
      <point x="28" y="98"/>
      <point x="28" y="224" type="curve" smooth="yes"/>
      <point x="28" y="407"/>
      <point x="151" y="527"/>
      <point x="312" y="534" type="curve"/>
      <point x="327" y="629" type="line"/>
      <point x="398" y="629" type="line"/>
      <point x="382" y="529" type="line"/>
      <point x="485" y="513"/>
      <point x="556" y="450"/>
      <point x="562" y="330" type="curve"/>
      <point x="430" y="330" type="line"/>
      <point x="427" y="382"/>
      <point x="402" y="409"/>
      <point x="365" y="420" type="curve"/>
      <point x="313" y="93" type="line"/>
      <point x="368" y="98"/>
      <point x="410" y="128"/>
      <point x="425" y="198" type="curve"/>
      <point x="552" y="198" type="line"/>
      <point x="534" y="63"/>
      <point x="430" y="-9"/>
      <point x="296" y="-11" type="curve"/>
      <point x="277" y="-135" type="line"/>
    </contour>
    <contour>
      <point x="169" y="225" type="curve" smooth="yes"/>
      <point x="169" y="157"/>
      <point x="195" y="116"/>
      <point x="243" y="100" type="curve"/>
      <point x="294" y="424" type="line"/>
      <point x="221" y="411"/>
      <point x="169" y="343"/>
    </contour>
  </outline>
</glyph>
<glyph name="sterling" format="2">
  <advance width="635"/>
  <unicode hex="00A3"/>
  <outline>
    <contour>
      <point x="45" y="297" type="line"/>
      <point x="61" y="396" type="line"/>
      <point x="117" y="396" type="line"/>
      <point x="115" y="420"/>
      <point x="113" y="444"/>
      <point x="113" y="470" type="curve" smooth="yes"/>
      <point x="113" y="620"/>
      <point x="216" y="725"/>
      <point x="384" y="725" type="curve" smooth="yes"/>
      <point x="525" y="725"/>
      <point x="625" y="663"/>
      <point x="625" y="503" type="curve"/>
      <point x="473" y="503" type="line"/>
      <point x="471" y="564"/>
      <point x="448" y="601"/>
      <point x="382" y="601" type="curve" smooth="yes"/>
      <point x="295" y="601"/>
      <point x="269" y="532"/>
      <point x="269" y="453" type="curve" smooth="yes"/>
      <point x="269" y="433"/>
      <point x="269" y="414"/>
      <point x="270" y="396" type="curve"/>
      <point x="464" y="396" type="line"/>
      <point x="448" y="297" type="line"/>
      <point x="274" y="297" type="line"/>
      <point x="274" y="268" type="line" smooth="yes"/>
      <point x="274" y="227"/>
      <point x="267" y="188"/>
      <point x="247" y="151" type="curve"/>
      <point x="296" y="137"/>
      <point x="340" y="119"/>
      <point x="374" y="119" type="curve" smooth="yes"/>
      <point x="414" y="119"/>
      <point x="442" y="138"/>
      <point x="451" y="188" type="curve"/>
      <point x="594" y="188" type="line"/>
      <point x="578" y="73"/>
      <point x="512" y="-9"/>
      <point x="387" y="-9" type="curve" smooth="yes"/>
      <point x="293" y="-9"/>
      <point x="218" y="47"/>
      <point x="166" y="47" type="curve" smooth="yes"/>
      <point x="133" y="47"/>
      <point x="115" y="25"/>
      <point x="110" y="0" type="curve"/>
      <point x="-12" y="0" type="line"/>
      <point x="-1" y="70"/>
      <point x="39" y="136"/>
      <point x="108" y="158" type="curve"/>
      <point x="123" y="188"/>
      <point x="131" y="221"/>
      <point x="131" y="260" type="curve" smooth="yes"/>
      <point x="131" y="272"/>
      <point x="130" y="284"/>
      <point x="129" y="297" type="curve"/>
    </contour>
  </outline>
</glyph>
<glyph name="yen" format="2">
  <advance width="621"/>
  <unicode hex="00A5"/>
  <outline>
    <contour>
      <point x="75" y="289" type="line"/>
      <point x="85" y="356" type="line"/>
      <point x="229" y="356" type="line"/>
      <point x="88" y="715" type="line"/>
      <point x="259" y="715" type="line"/>
      <point x="346" y="449" type="line"/>
      <point x="515" y="715" type="line"/>
      <point x="674" y="715" type="line"/>
      <point x="429" y="356" type="line"/>
      <point x="574" y="356" type="line"/>
      <point x="564" y="289" type="line"/>
      <point x="400" y="289" type="line"/>
      <point x="390" y="228" type="line"/>
      <point x="553" y="228" type="line"/>
      <point x="543" y="162" type="line"/>
      <point x="380" y="162" type="line"/>
      <point x="354" y="0" type="line"/>
      <point x="193" y="0" type="line"/>
      <point x="218" y="162" type="line"/>
      <point x="54" y="162" type="line"/>
      <point x="64" y="228" type="line"/>
      <point x="228" y="228" type="line"/>
      <point x="238" y="289" type="line"/>
    </contour>
  </outline>
</glyph>
<glyph name="brokenbar" format="2">
  <advance width="262"/>
  <unicode hex="00A6"/>
  <outline>
    <contour>
      <point x="93" y="-148" type="line"/>
      <point x="93" y="300" type="line"/>
      <point x="197" y="300" type="line"/>
      <point x="197" y="-148" type="line"/>
    </contour>
    <contour>
      <point x="93" y="370" type="line"/>
      <point x="93" y="776" type="line"/>
      <point x="197" y="776" type="line"/>
      <point x="197" y="370" type="line"/>
    </contour>
  </outline>
</glyph>
<glyph name="section" format="2">
  <advance width="582"/>
  <unicode hex="00A7"/>
  <outline>
    <contour>
      <point x="244" y="-137" type="curve" smooth="yes"/>
      <point x="132" y="-137"/>
      <point x="33" y="-85"/>
      <point x="36" y="39" type="curve"/>
      <point x="171" y="39" type="line"/>
      <point x="172" y="-8"/>
      <point x="195" y="-35"/>
      <point x="251" y="-35" type="curve" smooth="yes"/>
      <point x="292" y="-35"/>
      <point x="327" y="-13"/>
      <point x="327" y="29" type="curve" smooth="yes"/>
      <point x="327" y="62"/>
      <point x="300" y="83"/>
      <point x="214" y="112" type="curve" smooth="yes"/>
      <point x="104" y="149"/>
      <point x="31" y="195"/>
      <point x="31" y="289" type="curve" smooth="yes"/>
      <point x="31" y="373"/>
      <point x="89" y="419"/>
      <point x="164" y="440" type="curve"/>
      <point x="141" y="465"/>
      <point x="129" y="494"/>
      <point x="129" y="534" type="curve" smooth="yes"/>
      <point x="129" y="659"/>
      <point x="231" y="725"/>
      <point x="352" y="725" type="curve" smooth="yes"/>
      <point x="464" y="725"/>
      <point x="549" y="677"/>
      <point x="552" y="551" type="curve"/>
      <point x="415" y="551" type="line"/>
      <point x="414" y="597"/>
      <point x="394" y="620"/>
      <point x="344" y="621" type="curve" smooth="yes"/>
      <point x="301" y="621"/>
      <point x="267" y="602"/>
      <point x="267" y="556" type="curve" smooth="yes"/>
      <point x="267" y="523"/>
      <point x="292" y="503"/>
      <point x="372" y="476" type="curve" smooth="yes"/>
      <point x="483" y="439"/>
      <point x="558" y="394"/>
      <point x="558" y="294" type="curve" smooth="yes"/>
      <point x="558" y="212"/>
      <point x="504" y="171"/>
      <point x="427" y="147" type="curve"/>
      <point x="451" y="123"/>
      <point x="466" y="89"/>
      <point x="466" y="52" type="curve" smooth="yes"/>
      <point x="466" y="-75"/>
      <point x="363" y="-137"/>
    </contour>
    <contour>
      <point x="347" y="206" type="line"/>
      <point x="380" y="213"/>
      <point x="415" y="227"/>
      <point x="415" y="269" type="curve" smooth="yes"/>
      <point x="415" y="304"/>
      <point x="385" y="323"/>
      <point x="325" y="347" type="curve" smooth="yes"/>
      <point x="244" y="379" type="line"/>
      <point x="212" y="375"/>
      <point x="175" y="357"/>
      <point x="175" y="315" type="curve" smooth="yes"/>
      <point x="175" y="283"/>
      <point x="202" y="264"/>
      <point x="264" y="239" type="curve" smooth="yes"/>
    </contour>
  </outline>
</glyph>
<glyph name="dieresis" format="2">
  <advance width="400"/>
  <unicode hex="00A8"/>
  <outline>
    <contour>
      <point x="162" y="600" type="curve" smooth="yes"/>
      <point x="121" y="600"/>
      <point x="88" y="631"/>
      <point x="88" y="671" type="curve" smooth="yes"/>
      <point x="88" y="711"/>
      <point x="122" y="744"/>
      <point x="163" y="744" type="curve" smooth="yes"/>
      <point x="203" y="744"/>
      <point x="236" y="712"/>
      <point x="236" y="672" type="curve" smooth="yes"/>
      <point x="236" y="633"/>
      <point x="203" y="600"/>
    </contour>
    <contour>
      <point x="365" y="600" type="curve" smooth="yes"/>
      <point x="325" y="600"/>
      <point x="292" y="631"/>
      <point x="292" y="671" type="curve" smooth="yes"/>
      <point x="292" y="711"/>
      <point x="325" y="744"/>
      <point x="366" y="744" type="curve" smooth="yes"/>
      <point x="407" y="744"/>
      <point x="439" y="712"/>
      <point x="439" y="672" type="curve" smooth="yes"/>
      <point x="439" y="633"/>
      <point x="407" y="600"/>
    </contour>
  </outline>
</glyph>
<glyph name="copyright" format="2">
  <advance width="843"/>
  <unicode hex="00A9"/>
  <outline>
    <contour>
      <point x="438" y="152" type="curve" smooth="yes"/>
      <point x="303" y="152"/>
      <point x="234" y="232"/>
      <point x="234" y="353" type="curve" smooth="yes"/>
      <point x="234" y="361" type="line" smooth="yes"/>
      <point x="234" y="483"/>
      <point x="320" y="563"/>
      <point x="435" y="563" type="curve" smooth="yes"/>
      <point x="536" y="563"/>
      <point x="608" y="515"/>
      <point x="617" y="413" type="curve"/>
      <point x="508" y="413" type="line"/>
      <point x="502" y="455"/>
      <point x="479" y="478"/>
      <point x="435" y="478" type="curve" smooth="yes"/>
      <point x="380" y="478"/>
      <point x="346" y="437"/>
      <point x="346" y="361" type="curve" smooth="yes"/>
      <point x="346" y="354" type="line" smooth="yes"/>
      <point x="346" y="279"/>
      <point x="378" y="238"/>
      <point x="437" y="238" type="curve" smooth="yes"/>
      <point x="480" y="238"/>
      <point x="511" y="260"/>
      <point x="517" y="307" type="curve"/>
      <point x="621" y="307" type="line"/>
      <point x="614" y="205"/>
      <point x="540" y="152"/>
    </contour>
    <contour>
      <point x="432" y="32" type="curve" smooth="yes"/>
      <point x="607" y="32"/>
      <point x="754" y="164"/>
      <point x="754" y="359" type="curve" smooth="yes"/>
      <point x="754" y="551"/>
      <point x="611" y="683"/>
      <point x="434" y="683" type="curve" smooth="yes"/>
      <point x="256" y="683"/>
      <point x="113" y="550"/>
      <point x="113" y="357" type="curve" smooth="yes"/>
      <point x="113" y="162"/>
      <point x="261" y="32"/>
    </contour>
    <contour>
      <point x="432" y="-16" type="curve" smooth="yes"/>
      <point x="224" y="-16"/>
      <point x="56" y="146"/>
      <point x="56" y="357" type="curve" smooth="yes"/>
      <point x="56" y="565"/>
      <point x="223" y="731"/>
      <point x="434" y="731" type="curve" smooth="yes"/>
      <point x="649" y="731"/>
      <point x="811" y="566"/>
      <point x="811" y="359" type="curve" smooth="yes"/>
      <point x="811" y="147"/>
      <point x="644" y="-16"/>
    </contour>
  </outline>
</glyph>
<glyph name="ordfeminine" format="2">
  <advance width="460"/>
  <unicode hex="00AA"/>
  <outline>
    <contour>
      <point x="183" y="288" type="curve" smooth="yes"/>
      <point x="107" y="288"/>
      <point x="53" y="332"/>
      <point x="53" y="403" type="curve" smooth="yes"/>
      <point x="53" y="510"/>
      <point x="143" y="545"/>
      <point x="276" y="545" type="curve" smooth="yes"/>
      <point x="332" y="545" type="line"/>
      <point x="335" y="563" type="line" smooth="yes"/>
      <point x="341" y="606"/>
      <point x="330" y="632"/>
      <point x="282" y="632" type="curve" smooth="yes"/>
      <point x="242" y="632"/>
      <point x="222" y="611"/>
      <point x="214" y="578" type="curve"/>
      <point x="92" y="578" type="line"/>
      <point x="111" y="680"/>
      <point x="193" y="724"/>
      <point x="291" y="724" type="curve" smooth="yes"/>
      <point x="418" y="724"/>
      <point x="479" y="672"/>
      <point x="458" y="542" type="curve" smooth="yes"/>
      <point x="440" y="426" type="line" smooth="yes"/>
      <point x="431" y="373"/>
      <point x="430" y="333"/>
      <point x="434" y="298" type="curve"/>
      <point x="311" y="298" type="line"/>
      <point x="308" y="317"/>
      <point x="308" y="335"/>
      <point x="308" y="351" type="curve"/>
      <point x="282" y="314"/>
      <point x="242" y="288"/>
    </contour>
    <contour>
      <point x="231" y="377" type="curve" smooth="yes"/>
      <point x="276" y="377"/>
      <point x="308" y="398"/>
      <point x="316" y="444" type="curve" smooth="yes"/>
      <point x="321" y="475" type="line"/>
      <point x="271" y="475" type="line" smooth="yes"/>
      <point x="207" y="475"/>
      <point x="180" y="458"/>
      <point x="180" y="419" type="curve" smooth="yes"/>
      <point x="180" y="394"/>
      <point x="197" y="377"/>
    </contour>
  </outline>
</glyph>
<glyph name="guillemotleft" format="2">
  <advance width="487"/>
  <unicode hex="00AB"/>
  <outline>
    <contour>
      <point x="139" y="75" type="line"/>
      <point x="40" y="264" type="line"/>
      <point x="190" y="447" type="line"/>
      <point x="296" y="447" type="line"/>
      <point x="148" y="261" type="line"/>
      <point x="240" y="75" type="line"/>
    </contour>
    <contour>
      <point x="317" y="75" type="line"/>
      <point x="220" y="263" type="line"/>
      <point x="370" y="447" type="line"/>
      <point x="476" y="447" type="line"/>
      <point x="328" y="259" type="line"/>
      <point x="418" y="75" type="line"/>
    </contour>
  </outline>
</glyph>
<glyph name="registered" format="2">
  <advance width="516"/>
  <unicode hex="00AE"/>
  <outline>
    <contour>
      <point x="211" y="396" type="line"/>
      <point x="211" y="615" type="line"/>
      <point x="296" y="615" type="line" smooth="yes"/>
      <point x="353" y="615"/>
      <point x="385" y="592"/>
      <point x="385" y="546" type="curve" smooth="yes"/>
      <point x="385" y="545" type="line" smooth="yes"/>
      <point x="385" y="513"/>
      <point x="368" y="496"/>
      <point x="345" y="486" type="curve"/>
      <point x="398" y="396" type="line"/>
      <point x="334" y="396" type="line"/>
      <point x="289" y="475" type="line"/>
      <point x="273" y="475" type="line"/>
      <point x="273" y="396" type="line"/>
    </contour>
    <contour>
      <point x="273" y="515" type="line"/>
      <point x="293" y="515" type="line" smooth="yes"/>
      <point x="314" y="515"/>
      <point x="325" y="524"/>
      <point x="325" y="542" type="curve" smooth="yes"/>
      <point x="325" y="543" type="line" smooth="yes"/>
      <point x="325" y="561"/>
      <point x="314" y="568"/>
      <point x="293" y="568" type="curve" smooth="yes"/>
      <point x="273" y="568" type="line"/>
    </contour>
    <contour>
      <point x="293" y="319" type="curve" smooth="yes"/>
      <point x="397" y="319"/>
      <point x="477" y="394"/>
      <point x="477" y="503" type="curve" smooth="yes"/>
      <point x="477" y="612"/>
      <point x="400" y="687"/>
      <point x="293" y="687" type="curve" smooth="yes"/>
      <point x="186" y="687"/>
      <point x="109" y="611"/>
      <point x="109" y="502" type="curve" smooth="yes"/>
      <point x="109" y="392"/>
      <point x="190" y="319"/>
    </contour>
    <contour>
      <point x="293" y="281" type="curve" smooth="yes"/>
      <point x="168" y="281"/>
      <point x="66" y="377"/>
      <point x="66" y="502" type="curve" smooth="yes"/>
      <point x="66" y="625"/>
      <point x="167" y="725"/>
      <point x="293" y="725" type="curve" smooth="yes"/>
      <point x="422" y="725"/>
      <point x="520" y="626"/>
      <point x="520" y="503" type="curve" smooth="yes"/>
      <point x="520" y="378"/>
      <point x="420" y="281"/>
    </contour>
  </outline>
</glyph>
<glyph name="macron" format="2">
  <advance width="400"/>
  <unicode hex="00AF"/>
  <outline>
    <contour>
      <point x="111" y="625" type="line"/>
      <point x="124" y="712" type="line"/>
      <point x="415" y="712" type="line"/>
      <point x="402" y="625" type="line"/>
    </contour>
  </outline>
</glyph>
<glyph name="degree" format="2">
  <advance width="443"/>
  <unicode hex="00B0"/>
  <outline>
    <contour>
      <point x="265" y="456" type="curve" smooth="yes"/>
      <point x="318" y="456"/>
      <point x="356" y="497"/>
      <point x="356" y="558" type="curve" smooth="yes"/>
      <point x="356" y="615"/>
      <point x="320" y="658"/>
      <point x="268" y="658" type="curve" smooth="yes"/>
      <point x="213" y="658"/>
      <point x="174" y="616"/>
      <point x="174" y="554" type="curve" smooth="yes"/>
      <point x="174" y="499"/>
      <point x="212" y="456"/>
    </contour>
    <contour>
      <point x="264" y="390" type="curve" smooth="yes"/>
      <point x="170" y="390"/>
      <point x="94" y="464"/>
      <point x="94" y="553" type="curve" smooth="yes"/>
      <point x="94" y="648"/>
      <point x="170" y="724"/>
      <point x="269" y="724" type="curve" smooth="yes"/>
      <point x="363" y="724"/>
      <point x="438" y="651"/>
      <point x="438" y="559" type="curve" smooth="yes"/>
      <point x="438" y="466"/>
      <point x="361" y="390"/>
    </contour>
  </outline>
</glyph>
<glyph name="plusminus" format="2">
  <advance width="551"/>
  <unicode hex="00B1"/>
  <outline>
    <contour>
      <point x="200" y="165" type="line"/>
      <point x="227" y="336" type="line"/>
      <point x="48" y="336" type="line"/>
      <point x="64" y="444" type="line"/>
      <point x="244" y="444" type="line"/>
      <point x="272" y="616" type="line"/>
      <point x="390" y="616" type="line"/>
      <point x="362" y="444" type="line"/>
      <point x="542" y="444" type="line"/>
      <point x="525" y="336" type="line"/>
      <point x="345" y="336" type="line"/>
      <point x="318" y="165" type="line"/>
    </contour>
    <contour>
      <point x="-5" y="0" type="line"/>
      <point x="10" y="100" type="line"/>
      <point x="490" y="100" type="line"/>
      <point x="474" y="0" type="line"/>
    </contour>
  </outline>
</glyph>
<glyph name="twosuperior" format="2">
  <advance width="329"/>
  <unicode hex="00B2"/>
  <outline>
    <contour>
      <point x="19" y="352" type="line"/>
      <point x="22" y="367" type="line"/>
      <point x="170" y="499" type="line" smooth="yes"/>
      <point x="212" y="536"/>
      <point x="250" y="570"/>
      <point x="250" y="604" type="curve" smooth="yes"/>
      <point x="250" y="628"/>
      <point x="236" y="639"/>
      <point x="216" y="639" type="curve" smooth="yes"/>
      <point x="190" y="639"/>
      <point x="171" y="623"/>
      <point x="162" y="582" type="curve"/>
      <point x="62" y="582" type="line"/>
      <point x="75" y="673"/>
      <point x="139" y="720"/>
      <point x="223" y="720" type="curve" smooth="yes"/>
      <point x="295" y="720"/>
      <point x="358" y="691"/>
      <point x="358" y="613" type="curve" smooth="yes"/>
      <point x="358" y="559"/>
      <point x="321" y="523"/>
      <point x="257" y="469" type="curve" smooth="yes"/>
      <point x="212" y="430" type="line"/>
      <point x="331" y="430" type="line"/>
      <point x="319" y="352" type="line"/>
    </contour>
  </outline>
</glyph>
<glyph name="threesuperior" format="2">
  <advance width="351"/>
  <unicode hex="00B3"/>
  <outline>
    <contour>
      <point x="203" y="345" type="curve" smooth="yes"/>
      <point x="118" y="345"/>
      <point x="52" y="380"/>
      <point x="51" y="471" type="curve"/>
      <point x="149" y="471" type="line"/>
      <point x="150" y="441"/>
      <point x="165" y="422"/>
      <point x="199" y="422" type="curve" smooth="yes"/>
      <point x="223" y="422"/>
      <point x="249" y="435"/>
      <point x="249" y="467" type="curve" smooth="yes"/>
      <point x="249" y="492"/>
      <point x="233" y="504"/>
      <point x="201" y="504" type="curve" smooth="yes"/>
      <point x="175" y="504" type="line"/>
      <point x="185" y="568" type="line"/>
      <point x="216" y="568" type="line" smooth="yes"/>
      <point x="247" y="568"/>
      <point x="266" y="582"/>
      <point x="266" y="608" type="curve" smooth="yes"/>
      <point x="266" y="630"/>
      <point x="255" y="644"/>
      <point x="227" y="644" type="curve" smooth="yes"/>
      <point x="200" y="644"/>
      <point x="180" y="628"/>
      <point x="173" y="599" type="curve"/>
      <point x="78" y="599" type="line"/>
      <point x="88" y="675"/>
      <point x="149" y="720"/>
      <point x="235" y="720" type="curve" smooth="yes"/>
      <point x="301" y="720"/>
      <point x="369" y="697"/>
      <point x="369" y="622" type="curve" smooth="yes"/>
      <point x="369" y="579"/>
      <point x="340" y="549"/>
      <point x="296" y="536" type="curve"/>
      <point x="331" y="529"/>
      <point x="357" y="505"/>
      <point x="357" y="460" type="curve" smooth="yes"/>
      <point x="357" y="383"/>
      <point x="285" y="345"/>
    </contour>
  </outline>
</glyph>
<glyph name="acute" format="2">
  <advance width="400"/>
  <unicode hex="00B4"/>
  <outline>
    <contour>
      <point x="191" y="594" type="line"/>
      <point x="267" y="753" type="line"/>
      <point x="421" y="753" type="line"/>
      <point x="298" y="594" type="line"/>
    </contour>
  </outline>
</glyph>
<glyph name="paragraph" format="2">
  <advance width="564"/>
  <unicode hex="00B6"/>
  <outline>
    <contour>
      <point x="205" y="-100" type="line"/>
      <point x="274" y="335" type="line"/>
      <point x="271" y="335" type="line" smooth="yes"/>
      <point x="156" y="335"/>
      <point x="72" y="392"/>
      <point x="72" y="503" type="curve" smooth="yes"/>
      <point x="72" y="644"/>
      <point x="179" y="715"/>
      <point x="314" y="715" type="curve" smooth="yes"/>
      <point x="557" y="715" type="line"/>
      <point x="428" y="-100" type="line"/>
      <point x="354" y="-100" type="line"/>
      <point x="474" y="654" type="line"/>
      <point x="397" y="654" type="line"/>
      <point x="278" y="-100" type="line"/>
    </contour>
  </outline>
</glyph>
<glyph name="periodcentered" format="2">
  <advance width="293"/>
  <unicode hex="00B7"/>
  <outline>
    <contour>
      <point x="155" y="239" type="curve" smooth="yes"/>
      <point x="105" y="239"/>
      <point x="66" y="278"/>
      <point x="66" y="327" type="curve" smooth="yes"/>
      <point x="66" y="375"/>
      <point x="104" y="414"/>
      <point x="154" y="414" type="curve" smooth="yes"/>
      <point x="205" y="414"/>
      <point x="245" y="375"/>
      <point x="245" y="327" type="curve" smooth="yes"/>
      <point x="245" y="278"/>
      <point x="206" y="239"/>
    </contour>
  </outline>
</glyph>
<glyph name="cedilla" format="2">
  <advance width="400"/>
  <unicode hex="00B8"/>
  <outline>
    <contour>
      <point x="140" y="-222" type="curve" smooth="yes"/>
      <point x="81" y="-222"/>
      <point x="29" y="-194"/>
      <point x="24" y="-132" type="curve"/>
      <point x="99" y="-132" type="line"/>
      <point x="101" y="-148"/>
      <point x="112" y="-163"/>
      <point x="136" y="-163" type="curve" smooth="yes"/>
      <point x="154" y="-163"/>
      <point x="172" y="-153"/>
      <point x="172" y="-128" type="curve" smooth="yes"/>
      <point x="172" y="-109"/>
      <point x="159" y="-99"/>
      <point x="139" y="-99" type="curve" smooth="yes"/>
      <point x="125" y="-99"/>
      <point x="117" y="-103"/>
      <point x="111" y="-108" type="curve"/>
      <point x="79" y="-73" type="line"/>
      <point x="137" y="0" type="line"/>
      <point x="202" y="0" type="line"/>
      <point x="164" y="-48" type="line"/>
      <point x="212" y="-44"/>
      <point x="256" y="-71"/>
      <point x="256" y="-125" type="curve" smooth="yes"/>
      <point x="256" y="-189"/>
      <point x="206" y="-222"/>
    </contour>
  </outline>
</glyph>
<glyph name="ordmasculine" format="2">
  <advance width="511"/>
  <unicode hex="00BA"/>
  <outline>
    <contour>
      <point x="270" y="288" type="curve" smooth="yes"/>
      <point x="146" y="288"/>
      <point x="69" y="362"/>
      <point x="69" y="475" type="curve" smooth="yes"/>
      <point x="69" y="621"/>
      <point x="178" y="724"/>
      <point x="312" y="724" type="curve" smooth="yes"/>
      <point x="441" y="724"/>
      <point x="513" y="647"/>
      <point x="513" y="535" type="curve" smooth="yes"/>
      <point x="513" y="387"/>
      <point x="404" y="288"/>
    </contour>
    <contour>
      <point x="279" y="385" type="curve" smooth="yes"/>
      <point x="347" y="385"/>
      <point x="384" y="453"/>
      <point x="384" y="536" type="curve" smooth="yes"/>
      <point x="384" y="592"/>
      <point x="359" y="627"/>
      <point x="304" y="627" type="curve" smooth="yes"/>
      <point x="239" y="627"/>
      <point x="198" y="561"/>
      <point x="198" y="475" type="curve" smooth="yes"/>
      <point x="198" y="419"/>
      <point x="224" y="385"/>
    </contour>
  </outline>
</glyph>
<glyph name="guillemotright" format="2">
  <advance width="487"/>
  <unicode hex="00BB"/>
  <outline>
    <contour>
      <point x="346" y="447" type="line"/>
      <point x="446" y="258" type="line"/>
      <point x="296" y="75" type="line"/>
      <point x="190" y="75" type="line"/>
      <point x="338" y="261" type="line"/>
      <point x="246" y="447" type="line"/>
    </contour>
    <contour>
      <point x="168" y="447" type="line"/>
      <point x="266" y="259" type="line"/>
      <point x="116" y="75" type="line"/>
      <point x="10" y="75" type="line"/>
      <point x="158" y="263" type="line"/>
      <point x="68" y="447" type="line"/>
    </contour>
  </outline>
</glyph>
<glyph name="onequarter" format="2">
  <advance width="759"/>
  <unicode hex="00BC"/>
  <outline>
    <contour>
      <point x="120" y="352" type="line"/>
      <point x="160" y="608" type="line"/>
      <point x="71" y="559" type="line"/>
      <point x="85" y="650" type="line"/>
      <point x="192" y="715" type="line"/>
      <point x="287" y="715" type="line"/>
      <point x="229" y="352" type="line"/>
    </contour>
    <contour>
      <point x="41" y="0" type="line"/>
      <point x="647" y="715" type="line"/>
      <point x="732" y="715" type="line"/>
      <point x="127" y="0" type="line"/>
    </contour>
    <contour>
      <point x="542" y="0" type="line"/>
      <point x="553" y="69" type="line"/>
      <point x="371" y="69" type="line"/>
      <point x="378" y="109" type="line"/>
      <point x="573" y="363" type="line"/>
      <point x="705" y="363" type="line"/>
      <point x="670" y="143" type="line"/>
      <point x="717" y="143" type="line"/>
      <point x="705" y="69" type="line"/>
      <point x="658" y="69" type="line"/>
      <point x="647" y="0" type="line"/>
    </contour>
    <contour>
      <point x="485" y="143" type="line"/>
      <point x="568" y="143" type="line"/>
      <point x="590" y="285" type="line"/>
    </contour>
  </outline>
</glyph>
<glyph name="onehalf" format="2">
  <advance width="771"/>
  <unicode hex="00BD"/>
  <outline>
    <contour>
      <point x="28" y="0" type="line"/>
      <point x="634" y="715" type="line"/>
      <point x="719" y="715" type="line"/>
      <point x="114" y="0" type="line"/>
    </contour>
    <contour>
      <point x="120" y="352" type="line"/>
      <point x="160" y="608" type="line"/>
      <point x="71" y="559" type="line"/>
      <point x="85" y="650" type="line"/>
      <point x="192" y="715" type="line"/>
      <point x="287" y="715" type="line"/>
      <point x="229" y="352" type="line"/>
    </contour>
    <contour>
      <point x="403" y="0" type="line"/>
      <point x="406" y="15" type="line"/>
      <point x="554" y="147" type="line" smooth="yes"/>
      <point x="596" y="184"/>
      <point x="634" y="219"/>
      <point x="634" y="252" type="curve" smooth="yes"/>
      <point x="634" y="276"/>
      <point x="619" y="288"/>
      <point x="599" y="288" type="curve" smooth="yes"/>
      <point x="574" y="288"/>
      <point x="555" y="271"/>
      <point x="545" y="230" type="curve"/>
      <point x="446" y="230" type="line"/>
      <point x="459" y="321"/>
      <point x="523" y="368"/>
      <point x="607" y="368" type="curve" smooth="yes"/>
      <point x="678" y="368"/>
      <point x="742" y="339"/>
      <point x="742" y="261" type="curve" smooth="yes"/>
      <point x="742" y="207"/>
      <point x="704" y="171"/>
      <point x="641" y="117" type="curve" smooth="yes"/>
      <point x="596" y="79" type="line"/>
      <point x="715" y="79" type="line"/>
      <point x="703" y="0" type="line"/>
    </contour>
  </outline>
</glyph>
<glyph name="threequarters" format="2">
  <advance width="794"/>
  <unicode hex="00BE"/>
  <outline>
    <contour>
      <point x="206" y="345" type="curve" smooth="yes"/>
      <point x="121" y="345"/>
      <point x="55" y="380"/>
      <point x="54" y="471" type="curve"/>
      <point x="152" y="471" type="line"/>
      <point x="153" y="441"/>
      <point x="168" y="422"/>
      <point x="202" y="422" type="curve" smooth="yes"/>
      <point x="226" y="422"/>
      <point x="252" y="435"/>
      <point x="252" y="467" type="curve" smooth="yes"/>
      <point x="252" y="492"/>
      <point x="236" y="504"/>
      <point x="204" y="504" type="curve" smooth="yes"/>
      <point x="178" y="504" type="line"/>
      <point x="188" y="568" type="line"/>
      <point x="219" y="568" type="line" smooth="yes"/>
      <point x="250" y="568"/>
      <point x="269" y="582"/>
      <point x="269" y="608" type="curve" smooth="yes"/>
      <point x="269" y="630"/>
      <point x="258" y="644"/>
      <point x="230" y="644" type="curve" smooth="yes"/>
      <point x="203" y="644"/>
      <point x="183" y="628"/>
      <point x="176" y="599" type="curve"/>
      <point x="81" y="599" type="line"/>
      <point x="91" y="675"/>
      <point x="152" y="720"/>
      <point x="238" y="720" type="curve" smooth="yes"/>
      <point x="304" y="720"/>
      <point x="372" y="697"/>
      <point x="372" y="622" type="curve" smooth="yes"/>
      <point x="372" y="579"/>
      <point x="343" y="549"/>
      <point x="299" y="536" type="curve"/>
      <point x="334" y="529"/>
      <point x="360" y="505"/>
      <point x="360" y="460" type="curve" smooth="yes"/>
      <point x="360" y="383"/>
      <point x="288" y="345"/>
    </contour>
    <contour>
      <point x="90" y="0" type="line"/>
      <point x="696" y="715" type="line"/>
      <point x="781" y="715" type="line"/>
      <point x="176" y="0" type="line"/>
    </contour>
    <contour>
      <point x="577" y="0" type="line"/>
      <point x="588" y="69" type="line"/>
      <point x="406" y="69" type="line"/>
      <point x="413" y="109" type="line"/>
      <point x="608" y="363" type="line"/>
      <point x="740" y="363" type="line"/>
      <point x="705" y="143" type="line"/>
      <point x="752" y="143" type="line"/>
      <point x="740" y="69" type="line"/>
      <point x="693" y="69" type="line"/>
      <point x="682" y="0" type="line"/>
    </contour>
    <contour>
      <point x="520" y="143" type="line"/>
      <point x="603" y="143" type="line"/>
      <point x="625" y="285" type="line"/>
    </contour>
  </outline>
</glyph>
<glyph name="questiondown" format="2">
  <advance width="532"/>
  <unicode hex="00BF"/>
  <outline>
    <contour>
      <point x="375" y="375" type="line"/>
      <point x="370" y="343" type="line" smooth="yes"/>
      <point x="356" y="255"/>
      <point x="295" y="210"/>
      <point x="242" y="170" type="curve" smooth="yes"/>
      <point x="194" y="134"/>
      <point x="157" y="108"/>
      <point x="157" y="56" type="curve" smooth="yes"/>
      <point x="158" y="16"/>
      <point x="184" y="-9"/>
      <point x="232" y="-9" type="curve" smooth="yes"/>
      <point x="284" y="-9"/>
      <point x="324" y="25"/>
      <point x="336" y="94" type="curve"/>
      <point x="476" y="94" type="line"/>
      <point x="458" y="-52"/>
      <point x="356" y="-128"/>
      <point x="222" y="-127" type="curve" smooth="yes"/>
      <point x="79" y="-127"/>
      <point x="4" y="-51"/>
      <point x="4" y="47" type="curve" smooth="yes"/>
      <point x="4" y="137"/>
      <point x="57" y="184"/>
      <point x="116" y="228" type="curve" smooth="yes"/>
      <point x="167" y="265"/>
      <point x="228" y="298"/>
      <point x="240" y="369" type="curve" smooth="yes"/>
      <point x="241" y="375" type="line"/>
    </contour>
    <contour>
      <point x="328" y="607" type="curve" smooth="yes"/>
      <point x="379" y="607"/>
      <point x="417" y="569"/>
      <point x="417" y="521" type="curve" smooth="yes"/>
      <point x="417" y="472"/>
      <point x="378" y="434"/>
      <point x="328" y="434" type="curve" smooth="yes"/>
      <point x="278" y="434"/>
      <point x="238" y="472"/>
      <point x="238" y="520" type="curve" smooth="yes"/>
      <point x="238" y="568"/>
      <point x="278" y="607"/>
    </contour>
  </outline>
</glyph>
<glyph name="Atilde" format="2">
  <advance width="706"/>
  <unicode hex="00C3"/>
  <outline>
    <contour>
      <point x="484" y="0" type="line"/>
      <point x="460" y="159" type="line"/>
      <point x="201" y="159" type="line"/>
      <point x="128" y="0" type="line"/>
      <point x="-28" y="0" type="line"/>
      <point x="320" y="715" type="line"/>
      <point x="531" y="715" type="line"/>
      <point x="650" y="0" type="line"/>
    </contour>
    <contour>
      <point x="494" y="764" type="curve" smooth="yes"/>
      <point x="440" y="764"/>
      <point x="408" y="801"/>
      <point x="378" y="801" type="curve" smooth="yes"/>
      <point x="361" y="801"/>
      <point x="344" y="787"/>
      <point x="339" y="764" type="curve"/>
      <point x="252" y="764" type="line"/>
      <point x="268" y="858"/>
      <point x="318" y="904"/>
      <point x="377" y="904" type="curve" smooth="yes"/>
      <point x="428" y="904"/>
      <point x="462" y="866"/>
      <point x="494" y="866" type="curve" smooth="yes"/>
      <point x="512" y="866"/>
      <point x="526" y="880"/>
      <point x="533" y="903" type="curve"/>
      <point x="619" y="903" type="line"/>
      <point x="602" y="810"/>
      <point x="551" y="764"/>
    </contour>
    <contour>
      <point x="398" y="583" type="line"/>
      <point x="255" y="274" type="line"/>
      <point x="443" y="274" type="line"/>
    </contour>
  </outline>
</glyph>
<glyph name="Adieresis" format="2">
  <advance width="706"/>
  <unicode hex="00C4"/>
  <outline>
    <contour>
      <point x="484" y="0" type="line"/>
      <point x="460" y="159" type="line"/>
      <point x="201" y="159" type="line"/>
      <point x="128" y="0" type="line"/>
      <point x="-28" y="0" type="line"/>
      <point x="320" y="715" type="line"/>
      <point x="531" y="715" type="line"/>
      <point x="650" y="0" type="line"/>
    </contour>
    <contour>
      <point x="398" y="583" type="line"/>
      <point x="255" y="274" type="line"/>
      <point x="443" y="274" type="line"/>
    </contour>
    <contour>
      <point x="325" y="769" type="curve" smooth="yes"/>
      <point x="284" y="769"/>
      <point x="251" y="801"/>
      <point x="251" y="841" type="curve" smooth="yes"/>
      <point x="251" y="881"/>
      <point x="285" y="914"/>
      <point x="325" y="914" type="curve" smooth="yes"/>
      <point x="366" y="914"/>
      <point x="399" y="882"/>
      <point x="399" y="842" type="curve" smooth="yes"/>
      <point x="399" y="802"/>
      <point x="365" y="769"/>
    </contour>
    <contour>
      <point x="540" y="769" type="curve" smooth="yes"/>
      <point x="500" y="769"/>
      <point x="467" y="801"/>
      <point x="467" y="841" type="curve" smooth="yes"/>
      <point x="467" y="881"/>
      <point x="500" y="914"/>
      <point x="541" y="914" type="curve" smooth="yes"/>
      <point x="582" y="914"/>
      <point x="614" y="882"/>
      <point x="614" y="842" type="curve" smooth="yes"/>
      <point x="614" y="802"/>
      <point x="581" y="769"/>
    </contour>
  </outline>
</glyph>
<glyph name="Aring" format="2">
  <advance width="706"/>
  <unicode hex="00C5"/>
  <outline>
    <contour>
      <point x="484" y="0" type="line"/>
      <point x="460" y="159" type="line"/>
      <point x="201" y="159" type="line"/>
      <point x="128" y="0" type="line"/>
      <point x="-28" y="0" type="line"/>
      <point x="320" y="715" type="line"/>
      <point x="531" y="715" type="line"/>
      <point x="650" y="0" type="line"/>
    </contour>
    <contour>
      <point x="431" y="750" type="curve" smooth="yes"/>
      <point x="368" y="750"/>
      <point x="317" y="799"/>
      <point x="317" y="860" type="curve" smooth="yes"/>
      <point x="317" y="923"/>
      <point x="370" y="973"/>
      <point x="433" y="973" type="curve" smooth="yes"/>
      <point x="496" y="973"/>
      <point x="547" y="924"/>
      <point x="547" y="862" type="curve" smooth="yes"/>
      <point x="547" y="800"/>
      <point x="494" y="750"/>
    </contour>
    <contour>
      <point x="398" y="583" type="line"/>
      <point x="255" y="274" type="line"/>
      <point x="443" y="274" type="line"/>
    </contour>
    <contour>
      <point x="431" y="808" type="curve" smooth="yes"/>
      <point x="459" y="808"/>
      <point x="481" y="830"/>
      <point x="481" y="862" type="curve" smooth="yes"/>
      <point x="481" y="893"/>
      <point x="462" y="915"/>
      <point x="433" y="915" type="curve" smooth="yes"/>
      <point x="404" y="915"/>
      <point x="383" y="892"/>
      <point x="383" y="860" type="curve" smooth="yes"/>
      <point x="383" y="829"/>
      <point x="402" y="808"/>
    </contour>
  </outline>
</glyph>
<glyph name="AE" format="2">
  <advance width="983"/>
  <unicode hex="00C6"/>
  <outline>
    <contour>
      <point x="-25" y="0" type="line"/>
      <point x="416" y="715" type="line"/>
      <point x="1000" y="715" type="line"/>
      <point x="979" y="589" type="line"/>
      <point x="681" y="589" type="line"/>
      <point x="655" y="422" type="line"/>
      <point x="894" y="422" type="line"/>
      <point x="876" y="304" type="line"/>
      <point x="637" y="304" type="line"/>
      <point x="608" y="126" type="line"/>
      <point x="925" y="126" type="line"/>
      <point x="906" y="0" type="line"/>
      <point x="427" y="0" type="line"/>
      <point x="453" y="168" type="line"/>
      <point x="237" y="168" type="line"/>
      <point x="136" y="0" type="line"/>
    </contour>
    <contour>
      <point x="490" y="589" type="line"/>
      <point x="304" y="280" type="line"/>
      <point x="471" y="280" type="line"/>
      <point x="520" y="589" type="line"/>
    </contour>
  </outline>
</glyph>
<glyph name="Ccedilla" format="2">
  <advance width="749"/>
  <unicode hex="00C7"/>
  <outline>
    <contour>
      <point x="309" y="-222" type="curve" smooth="yes"/>
      <point x="250" y="-222"/>
      <point x="198" y="-194"/>
      <point x="193" y="-132" type="curve"/>
      <point x="268" y="-132" type="line"/>
      <point x="270" y="-148"/>
      <point x="281" y="-163"/>
      <point x="305" y="-163" type="curve" smooth="yes"/>
      <point x="323" y="-163"/>
      <point x="341" y="-153"/>
      <point x="341" y="-128" type="curve" smooth="yes"/>
      <point x="341" y="-109"/>
      <point x="328" y="-99"/>
      <point x="308" y="-99" type="curve" smooth="yes"/>
      <point x="294" y="-99"/>
      <point x="286" y="-103"/>
      <point x="280" y="-108" type="curve"/>
      <point x="248" y="-73" type="line"/>
      <point x="303" y="-3" type="line"/>
      <point x="148" y="25"/>
      <point x="53" y="133"/>
      <point x="53" y="303" type="curve" smooth="yes"/>
      <point x="53" y="544"/>
      <point x="206" y="726"/>
      <point x="445" y="726" type="curve" smooth="yes"/>
      <point x="616" y="726"/>
      <point x="734" y="639"/>
      <point x="742" y="466" type="curve"/>
      <point x="581" y="466" type="line"/>
      <point x="570" y="552"/>
      <point x="528" y="599"/>
      <point x="440" y="599" type="curve" smooth="yes"/>
      <point x="299" y="599"/>
      <point x="223" y="467"/>
      <point x="222" y="308" type="curve" smooth="yes"/>
      <point x="221" y="194"/>
      <point x="274" y="118"/>
      <point x="392" y="118" type="curve" smooth="yes"/>
      <point x="479" y="118"/>
      <point x="539" y="169"/>
      <point x="564" y="257" type="curve"/>
      <point x="723" y="257" type="line"/>
      <point x="691" y="84"/>
      <point x="556" y="-11"/>
      <point x="390" y="-11" type="curve" smooth="yes"/>
      <point x="381" y="-11"/>
      <point x="377" y="-11"/>
      <point x="363" y="-10" type="curve"/>
      <point x="333" y="-48" type="line"/>
      <point x="381" y="-44"/>
      <point x="425" y="-71"/>
      <point x="425" y="-125" type="curve" smooth="yes"/>
      <point x="425" y="-189"/>
      <point x="375" y="-222"/>
    </contour>
  </outline>
</glyph>
<glyph name="Egrave" format="2">
  <advance width="598"/>
  <unicode hex="00C8"/>
  <outline>
    <contour>
      <point x="344" y="763" type="line"/>
      <point x="260" y="902" type="line"/>
      <point x="414" y="902" type="line"/>
      <point x="449" y="763" type="line"/>
    </contour>
    <contour>
      <point x="35" y="0" type="line"/>
      <point x="148" y="715" type="line"/>
      <point x="611" y="715" type="line"/>
      <point x="591" y="589" type="line"/>
      <point x="289" y="589" type="line"/>
      <point x="263" y="422" type="line"/>
      <point x="506" y="422" type="line"/>
      <point x="488" y="304" type="line"/>
      <point x="245" y="304" type="line"/>
      <point x="216" y="126" type="line"/>
      <point x="537" y="126" type="line"/>
      <point x="517" y="0" type="line"/>
    </contour>
  </outline>
</glyph>
<glyph name="Ecircumflex" format="2">
  <advance width="598"/>
  <unicode hex="00CA"/>
  <outline>
    <contour>
      <point x="207" y="763" type="line"/>
      <point x="335" y="902" type="line"/>
      <point x="458" y="902" type="line"/>
      <point x="550" y="763" type="line"/>
      <point x="450" y="763" type="line"/>
      <point x="388" y="816" type="line"/>
      <point x="313" y="763" type="line"/>
    </contour>
    <contour>
      <point x="35" y="0" type="line"/>
      <point x="148" y="715" type="line"/>
      <point x="611" y="715" type="line"/>
      <point x="591" y="589" type="line"/>
      <point x="289" y="589" type="line"/>
      <point x="263" y="422" type="line"/>
      <point x="506" y="422" type="line"/>
      <point x="488" y="304" type="line"/>
      <point x="245" y="304" type="line"/>
      <point x="216" y="126" type="line"/>
      <point x="537" y="126" type="line"/>
      <point x="517" y="0" type="line"/>
    </contour>
  </outline>
</glyph>
<glyph name="Edieresis" format="2">
  <advance width="598"/>
  <unicode hex="00CB"/>
  <outline>
    <contour>
      <point x="35" y="0" type="line"/>
      <point x="148" y="715" type="line"/>
      <point x="611" y="715" type="line"/>
      <point x="591" y="589" type="line"/>
      <point x="289" y="589" type="line"/>
      <point x="263" y="422" type="line"/>
      <point x="506" y="422" type="line"/>
      <point x="488" y="304" type="line"/>
      <point x="245" y="304" type="line"/>
      <point x="216" y="126" type="line"/>
      <point x="537" y="126" type="line"/>
      <point x="517" y="0" type="line"/>
    </contour>
    <contour>
      <point x="284" y="769" type="curve" smooth="yes"/>
      <point x="243" y="769"/>
      <point x="210" y="801"/>
      <point x="210" y="841" type="curve" smooth="yes"/>
      <point x="210" y="881"/>
      <point x="244" y="914"/>
      <point x="284" y="914" type="curve" smooth="yes"/>
      <point x="325" y="914"/>
      <point x="358" y="882"/>
      <point x="358" y="842" type="curve" smooth="yes"/>
      <point x="358" y="802"/>
      <point x="324" y="769"/>
    </contour>
    <contour>
      <point x="499" y="769" type="curve" smooth="yes"/>
      <point x="459" y="769"/>
      <point x="426" y="801"/>
      <point x="426" y="841" type="curve" smooth="yes"/>
      <point x="426" y="881"/>
      <point x="459" y="914"/>
      <point x="500" y="914" type="curve" smooth="yes"/>
      <point x="541" y="914"/>
      <point x="573" y="882"/>
      <point x="573" y="842" type="curve" smooth="yes"/>
      <point x="573" y="802"/>
      <point x="540" y="769"/>
    </contour>
  </outline>
</glyph>
<glyph name="Iacute" format="2">
  <advance width="326"/>
  <unicode hex="00CD"/>
  <outline>
    <contour>
      <point x="39" y="0" type="line"/>
      <point x="152" y="715" type="line"/>
      <point x="315" y="715" type="line"/>
      <point x="202" y="0" type="line"/>
    </contour>
    <contour>
      <point x="175" y="763" type="line"/>
      <point x="240" y="902" type="line"/>
      <point x="398" y="902" type="line"/>
      <point x="286" y="763" type="line"/>
    </contour>
  </outline>
</glyph>
<glyph name="Icircumflex" format="2">
  <advance width="326"/>
  <unicode hex="00CE"/>
  <outline>
    <contour>
      <point x="39" y="0" type="line"/>
      <point x="152" y="715" type="line"/>
      <point x="315" y="715" type="line"/>
      <point x="202" y="0" type="line"/>
    </contour>
    <contour>
      <point x="65" y="763" type="line"/>
      <point x="193" y="902" type="line"/>
      <point x="316" y="902" type="line"/>
      <point x="408" y="763" type="line"/>
      <point x="308" y="763" type="line"/>
      <point x="246" y="816" type="line"/>
      <point x="171" y="763" type="line"/>
    </contour>
  </outline>
</glyph>
<glyph name="Idieresis" format="2">
  <advance width="326"/>
  <unicode hex="00CF"/>
  <outline>
    <contour>
      <point x="39" y="0" type="line"/>
      <point x="152" y="715" type="line"/>
      <point x="315" y="715" type="line"/>
      <point x="202" y="0" type="line"/>
    </contour>
    <contour>
      <point x="144" y="769" type="curve" smooth="yes"/>
      <point x="103" y="769"/>
      <point x="70" y="801"/>
      <point x="70" y="841" type="curve" smooth="yes"/>
      <point x="70" y="881"/>
      <point x="104" y="914"/>
      <point x="144" y="914" type="curve" smooth="yes"/>
      <point x="185" y="914"/>
      <point x="218" y="882"/>
      <point x="218" y="842" type="curve" smooth="yes"/>
      <point x="218" y="802"/>
      <point x="184" y="769"/>
    </contour>
    <contour>
      <point x="359" y="769" type="curve" smooth="yes"/>
      <point x="319" y="769"/>
      <point x="286" y="801"/>
      <point x="286" y="841" type="curve" smooth="yes"/>
      <point x="286" y="881"/>
      <point x="319" y="914"/>
      <point x="360" y="914" type="curve" smooth="yes"/>
      <point x="401" y="914"/>
      <point x="433" y="882"/>
      <point x="433" y="842" type="curve" smooth="yes"/>
      <point x="433" y="802"/>
      <point x="400" y="769"/>
    </contour>
  </outline>
</glyph>
<glyph name="Ntilde" format="2">
  <advance width="758"/>
  <unicode hex="00D1"/>
  <outline>
    <contour>
      <point x="534" y="764" type="curve" smooth="yes"/>
      <point x="480" y="764"/>
      <point x="448" y="801"/>
      <point x="418" y="801" type="curve" smooth="yes"/>
      <point x="401" y="801"/>
      <point x="384" y="787"/>
      <point x="379" y="764" type="curve"/>
      <point x="292" y="764" type="line"/>
      <point x="308" y="858"/>
      <point x="358" y="904"/>
      <point x="417" y="904" type="curve" smooth="yes"/>
      <point x="468" y="904"/>
      <point x="502" y="866"/>
      <point x="534" y="866" type="curve" smooth="yes"/>
      <point x="552" y="866"/>
      <point x="566" y="880"/>
      <point x="573" y="903" type="curve"/>
      <point x="659" y="903" type="line"/>
      <point x="642" y="810"/>
      <point x="591" y="764"/>
    </contour>
    <contour>
      <point x="35" y="0" type="line"/>
      <point x="148" y="715" type="line"/>
      <point x="337" y="715" type="line"/>
      <point x="531" y="244" type="line"/>
      <point x="606" y="715" type="line"/>
      <point x="752" y="715" type="line"/>
      <point x="639" y="0" type="line"/>
      <point x="476" y="0" type="line"/>
      <point x="261" y="509" type="line"/>
      <point x="181" y="0" type="line"/>
    </contour>
  </outline>
</glyph>
<glyph name="Ograve" format="2">
  <advance width="816"/>
  <unicode hex="00D2"/>
  <outline>
    <contour>
      <point x="422" y="763" type="line"/>
      <point x="338" y="902" type="line"/>
      <point x="492" y="902" type="line"/>
      <point x="527" y="763" type="line"/>
    </contour>
    <contour>
      <point x="793" y="406" type="curve" smooth="yes"/>
      <point x="793" y="162"/>
      <point x="625" y="-11"/>
      <point x="392" y="-11" type="curve" smooth="yes"/>
      <point x="199" y="-11"/>
      <point x="53" y="111"/>
      <point x="53" y="305" type="curve" smooth="yes"/>
      <point x="53" y="546"/>
      <point x="221" y="725"/>
      <point x="452" y="725" type="curve" smooth="yes"/>
      <point x="653" y="725"/>
      <point x="793" y="600"/>
    </contour>
    <contour>
      <point x="624" y="402" type="curve" smooth="yes"/>
      <point x="624" y="510"/>
      <point x="567" y="596"/>
      <point x="448" y="597" type="curve" smooth="yes"/>
      <point x="304" y="598"/>
      <point x="221" y="462"/>
      <point x="221" y="310" type="curve" smooth="yes"/>
      <point x="221" y="193"/>
      <point x="289" y="117"/>
      <point x="401" y="117" type="curve" smooth="yes"/>
      <point x="542" y="117"/>
      <point x="624" y="248"/>
    </contour>
  </outline>
</glyph>
<glyph name="Odieresis" format="2">
  <advance width="816"/>
  <unicode hex="00D6"/>
  <outline>
    <contour>
      <point x="370" y="769" type="curve" smooth="yes"/>
      <point x="329" y="769"/>
      <point x="296" y="801"/>
      <point x="296" y="841" type="curve" smooth="yes"/>
      <point x="296" y="881"/>
      <point x="330" y="914"/>
      <point x="370" y="914" type="curve" smooth="yes"/>
      <point x="411" y="914"/>
      <point x="444" y="882"/>
      <point x="444" y="842" type="curve" smooth="yes"/>
      <point x="444" y="802"/>
      <point x="410" y="769"/>
    </contour>
    <contour>
      <point x="585" y="769" type="curve" smooth="yes"/>
      <point x="545" y="769"/>
      <point x="512" y="801"/>
      <point x="512" y="841" type="curve" smooth="yes"/>
      <point x="512" y="881"/>
      <point x="545" y="914"/>
      <point x="586" y="914" type="curve" smooth="yes"/>
      <point x="627" y="914"/>
      <point x="659" y="882"/>
      <point x="659" y="842" type="curve" smooth="yes"/>
      <point x="659" y="802"/>
      <point x="626" y="769"/>
    </contour>
    <contour>
      <point x="793" y="406" type="curve" smooth="yes"/>
      <point x="793" y="162"/>
      <point x="625" y="-11"/>
      <point x="392" y="-11" type="curve" smooth="yes"/>
      <point x="199" y="-11"/>
      <point x="53" y="111"/>
      <point x="53" y="305" type="curve" smooth="yes"/>
      <point x="53" y="546"/>
      <point x="221" y="725"/>
      <point x="452" y="725" type="curve" smooth="yes"/>
      <point x="653" y="725"/>
      <point x="793" y="600"/>
    </contour>
    <contour>
      <point x="624" y="402" type="curve" smooth="yes"/>
      <point x="624" y="510"/>
      <point x="567" y="596"/>
      <point x="448" y="597" type="curve" smooth="yes"/>
      <point x="304" y="598"/>
      <point x="221" y="462"/>
      <point x="221" y="310" type="curve" smooth="yes"/>
      <point x="221" y="193"/>
      <point x="289" y="117"/>
      <point x="401" y="117" type="curve" smooth="yes"/>
      <point x="542" y="117"/>
      <point x="624" y="248"/>
    </contour>
  </outline>
</glyph>
<glyph name="multiply" format="2">
  <advance width="534"/>
  <unicode hex="00D7"/>
  <outline>
    <contour>
      <point x="94" y="105" type="line"/>
      <point x="26" y="184" type="line"/>
      <point x="199" y="336" type="line"/>
      <point x="68" y="490" type="line"/>
      <point x="153" y="567" type="line"/>
      <point x="286" y="413" type="line"/>
      <point x="459" y="565" type="line"/>
      <point x="528" y="486" type="line"/>
      <point x="354" y="333" type="line"/>
      <point x="487" y="180" type="line"/>
      <point x="400" y="103" type="line"/>
      <point x="267" y="257" type="line"/>
    </contour>
  </outline>
</glyph>
<glyph name="Udieresis" format="2">
  <advance width="739"/>
  <unicode hex="00DC"/>
  <outline>
    <contour>
      <point x="353" y="-11" type="curve" smooth="yes"/>
      <point x="150" y="-11"/>
      <point x="43" y="93"/>
      <point x="76" y="299" type="curve" smooth="yes"/>
      <point x="142" y="715" type="line"/>
      <point x="305" y="715" type="line"/>
      <point x="238" y="295" type="line" smooth="yes"/>
      <point x="218" y="171"/>
      <point x="256" y="118"/>
      <point x="356" y="118" type="curve" smooth="yes"/>
      <point x="447" y="118"/>
      <point x="489" y="167"/>
      <point x="507" y="279" type="curve" smooth="yes"/>
      <point x="576" y="715" type="line"/>
      <point x="739" y="715" type="line"/>
      <point x="667" y="263" type="line" smooth="yes"/>
      <point x="639" y="84"/>
      <point x="541" y="-11"/>
    </contour>
    <contour>
      <point x="343" y="769" type="curve" smooth="yes"/>
      <point x="302" y="769"/>
      <point x="269" y="801"/>
      <point x="269" y="841" type="curve" smooth="yes"/>
      <point x="269" y="881"/>
      <point x="303" y="914"/>
      <point x="343" y="914" type="curve" smooth="yes"/>
      <point x="384" y="914"/>
      <point x="417" y="882"/>
      <point x="417" y="842" type="curve" smooth="yes"/>
      <point x="417" y="802"/>
      <point x="383" y="769"/>
    </contour>
    <contour>
      <point x="558" y="769" type="curve" smooth="yes"/>
      <point x="518" y="769"/>
      <point x="485" y="801"/>
      <point x="485" y="841" type="curve" smooth="yes"/>
      <point x="485" y="881"/>
      <point x="518" y="914"/>
      <point x="559" y="914" type="curve" smooth="yes"/>
      <point x="600" y="914"/>
      <point x="632" y="882"/>
      <point x="632" y="842" type="curve" smooth="yes"/>
      <point x="632" y="802"/>
      <point x="599" y="769"/>
    </contour>
  </outline>
</glyph>
<glyph name="Thorn" format="2">
  <advance width="626"/>
  <unicode hex="00DE"/>
  <outline>
    <contour>
      <point x="309" y="715" type="line"/>
      <point x="290" y="591" type="line"/>
      <point x="367" y="591" type="line" smooth="yes"/>
      <point x="523" y="591"/>
      <point x="615" y="523"/>
      <point x="615" y="396" type="curve" smooth="yes"/>
      <point x="615" y="229"/>
      <point x="490" y="146"/>
      <point x="327" y="146" type="curve" smooth="yes"/>
      <point x="220" y="146" type="line"/>
      <point x="197" y="0" type="line"/>
      <point x="35" y="0" type="line"/>
      <point x="148" y="715" type="line"/>
    </contour>
    <contour>
      <point x="349" y="474" type="curve" smooth="yes"/>
      <point x="271" y="474" type="line"/>
      <point x="238" y="260" type="line"/>
      <point x="324" y="260" type="line" smooth="yes"/>
      <point x="411" y="260"/>
      <point x="459" y="305"/>
      <point x="459" y="387" type="curve" smooth="yes"/>
      <point x="460" y="445"/>
      <point x="423" y="474"/>
    </contour>
  </outline>
</glyph>
<glyph name="germandbls" format="2">
  <advance width="618"/>
  <unicode hex="00DF"/>
  <outline>
    <contour>
      <point x="338" y="-10" type="curve" smooth="yes"/>
      <point x="291" y="-10"/>
      <point x="255" y="-1"/>
      <point x="228" y="11" type="curve"/>
      <point x="246" y="119" type="line"/>
      <point x="266" y="109"/>
      <point x="289" y="102"/>
      <point x="317" y="102" type="curve" smooth="yes"/>
      <point x="399" y="102"/>
      <point x="438" y="163"/>
      <point x="438" y="247" type="curve" smooth="yes"/>
      <point x="438" y="331"/>
      <point x="386" y="378"/>
      <point x="298" y="376" type="curve"/>
      <point x="316" y="487" type="line"/>
      <point x="387" y="487"/>
      <point x="446" y="517"/>
      <point x="446" y="592" type="curve" smooth="yes"/>
      <point x="446" y="643"/>
      <point x="413" y="673"/>
      <point x="359" y="673" type="curve" smooth="yes"/>
      <point x="302" y="673"/>
      <point x="267" y="634"/>
      <point x="256" y="566" type="curve" smooth="yes"/>
      <point x="166" y="0" type="line"/>
      <point x="22" y="0" type="line"/>
      <point x="111" y="563" type="line" smooth="yes"/>
      <point x="134" y="705"/>
      <point x="234" y="772"/>
      <point x="364" y="772" type="curve" smooth="yes"/>
      <point x="486" y="772"/>
      <point x="581" y="713"/>
      <point x="581" y="597" type="curve" smooth="yes"/>
      <point x="581" y="513"/>
      <point x="525" y="456"/>
      <point x="441" y="432" type="curve"/>
      <point x="527" y="407"/>
      <point x="583" y="336"/>
      <point x="583" y="236" type="curve" smooth="yes"/>
      <point x="583" y="87"/>
      <point x="492" y="-10"/>
    </contour>
  </outline>
</glyph>
<glyph name="adieresis" format="2">
  <advance width="563"/>
  <unicode hex="00E4"/>
  <outline>
    <contour>
      <point x="182" y="-11" type="curve" smooth="yes"/>
      <point x="82" y="-11"/>
      <point x="15" y="45"/>
      <point x="15" y="136" type="curve" smooth="yes"/>
      <point x="15" y="270"/>
      <point x="125" y="313"/>
      <point x="282" y="313" type="curve" smooth="yes"/>
      <point x="368" y="313" type="line"/>
      <point x="371" y="335" type="line" smooth="yes"/>
      <point x="381" y="396"/>
      <point x="364" y="430"/>
      <point x="297" y="430" type="curve" smooth="yes"/>
      <point x="242" y="430"/>
      <point x="214" y="402"/>
      <point x="204" y="356" type="curve"/>
      <point x="66" y="356" type="line"/>
      <point x="92" y="483"/>
      <point x="188" y="535"/>
      <point x="304" y="535" type="curve" smooth="yes"/>
      <point x="453" y="535"/>
      <point x="536" y="469"/>
      <point x="512" y="319" type="curve" smooth="yes"/>
      <point x="487" y="160" type="line" smooth="yes"/>
      <point x="476" y="92"/>
      <point x="473" y="44"/>
      <point x="478" y="0" type="curve"/>
      <point x="340" y="0" type="line"/>
      <point x="336" y="24"/>
      <point x="336" y="50"/>
      <point x="337" y="72" type="curve"/>
      <point x="304" y="23"/>
      <point x="254" y="-11"/>
    </contour>
    <contour>
      <point x="231" y="89" type="curve" smooth="yes"/>
      <point x="290" y="89"/>
      <point x="338" y="124"/>
      <point x="347" y="186" type="curve" smooth="yes"/>
      <point x="354" y="227" type="line"/>
      <point x="286" y="227" type="line" smooth="yes"/>
      <point x="198" y="227"/>
      <point x="158" y="207"/>
      <point x="158" y="151" type="curve" smooth="yes"/>
      <point x="158" y="117"/>
      <point x="182" y="89"/>
    </contour>
    <contour>
      <point x="223" y="600" type="curve" smooth="yes"/>
      <point x="182" y="600"/>
      <point x="149" y="631"/>
      <point x="149" y="671" type="curve" smooth="yes"/>
      <point x="149" y="711"/>
      <point x="183" y="744"/>
      <point x="224" y="744" type="curve" smooth="yes"/>
      <point x="264" y="744"/>
      <point x="297" y="712"/>
      <point x="297" y="672" type="curve" smooth="yes"/>
      <point x="297" y="633"/>
      <point x="264" y="600"/>
    </contour>
    <contour>
      <point x="426" y="600" type="curve" smooth="yes"/>
      <point x="386" y="600"/>
      <point x="353" y="631"/>
      <point x="353" y="671" type="curve" smooth="yes"/>
      <point x="353" y="711"/>
      <point x="386" y="744"/>
      <point x="427" y="744" type="curve" smooth="yes"/>
      <point x="468" y="744"/>
      <point x="500" y="712"/>
      <point x="500" y="672" type="curve" smooth="yes"/>
      <point x="500" y="633"/>
      <point x="468" y="600"/>
    </contour>
  </outline>
</glyph>
<glyph name="aring" format="2">
  <advance width="563"/>
  <unicode hex="00E5"/>
  <outline>
    <contour>
      <point x="182" y="-11" type="curve" smooth="yes"/>
      <point x="82" y="-11"/>
      <point x="15" y="45"/>
      <point x="15" y="136" type="curve" smooth="yes"/>
      <point x="15" y="270"/>
      <point x="125" y="313"/>
      <point x="282" y="313" type="curve" smooth="yes"/>
      <point x="368" y="313" type="line"/>
      <point x="371" y="335" type="line" smooth="yes"/>
      <point x="381" y="396"/>
      <point x="364" y="430"/>
      <point x="297" y="430" type="curve" smooth="yes"/>
      <point x="242" y="430"/>
      <point x="214" y="402"/>
      <point x="204" y="356" type="curve"/>
      <point x="66" y="356" type="line"/>
      <point x="92" y="483"/>
      <point x="188" y="535"/>
      <point x="304" y="535" type="curve" smooth="yes"/>
      <point x="453" y="535"/>
      <point x="536" y="469"/>
      <point x="512" y="319" type="curve" smooth="yes"/>
      <point x="487" y="160" type="line" smooth="yes"/>
      <point x="476" y="92"/>
      <point x="473" y="44"/>
      <point x="478" y="0" type="curve"/>
      <point x="340" y="0" type="line"/>
      <point x="336" y="24"/>
      <point x="336" y="50"/>
      <point x="337" y="72" type="curve"/>
      <point x="304" y="23"/>
      <point x="254" y="-11"/>
    </contour>
    <contour>
      <point x="231" y="89" type="curve" smooth="yes"/>
      <point x="290" y="89"/>
      <point x="338" y="124"/>
      <point x="347" y="186" type="curve" smooth="yes"/>
      <point x="354" y="227" type="line"/>
      <point x="286" y="227" type="line" smooth="yes"/>
      <point x="198" y="227"/>
      <point x="158" y="207"/>
      <point x="158" y="151" type="curve" smooth="yes"/>
      <point x="158" y="117"/>
      <point x="182" y="89"/>
    </contour>
    <contour>
      <point x="327" y="643" type="curve" smooth="yes"/>
      <point x="355" y="643"/>
      <point x="376" y="665"/>
      <point x="376" y="697" type="curve" smooth="yes"/>
      <point x="376" y="727"/>
      <point x="357" y="749"/>
      <point x="329" y="749" type="curve" smooth="yes"/>
      <point x="300" y="749"/>
      <point x="279" y="726"/>
      <point x="279" y="695" type="curve" smooth="yes"/>
      <point x="279" y="664"/>
      <point x="298" y="643"/>
    </contour>
    <contour>
      <point x="327" y="585" type="curve" smooth="yes"/>
      <point x="264" y="585"/>
      <point x="214" y="634"/>
      <point x="214" y="695" type="curve" smooth="yes"/>
      <point x="214" y="756"/>
      <point x="266" y="806"/>
      <point x="329" y="806" type="curve" smooth="yes"/>
      <point x="392" y="806"/>
      <point x="442" y="758"/>
      <point x="442" y="697" type="curve" smooth="yes"/>
      <point x="442" y="635"/>
      <point x="389" y="585"/>
    </contour>
  </outline>
</glyph>
<glyph name="ae" format="2">
  <advance width="895"/>
  <unicode hex="00E6"/>
  <outline>
    <contour>
      <point x="494" y="214" type="line" smooth="yes"/>
      <point x="494" y="141"/>
      <point x="523" y="92"/>
      <point x="606" y="92" type="curve" smooth="yes"/>
      <point x="665" y="92"/>
      <point x="698" y="119"/>
      <point x="713" y="165" type="curve"/>
      <point x="850" y="165" type="line"/>
      <point x="822" y="49"/>
      <point x="729" y="-11"/>
      <point x="601" y="-11" type="curve" smooth="yes"/>
      <point x="502" y="-11"/>
      <point x="430" y="25"/>
      <point x="394" y="93" type="curve"/>
      <point x="359" y="34"/>
      <point x="299" y="-11"/>
      <point x="198" y="-11" type="curve" smooth="yes"/>
      <point x="86" y="-11"/>
      <point x="15" y="43"/>
      <point x="15" y="136" type="curve" smooth="yes"/>
      <point x="15" y="269"/>
      <point x="129" y="316"/>
      <point x="286" y="316" type="curve" smooth="yes"/>
      <point x="369" y="316" type="line"/>
      <point x="372" y="337" type="line" smooth="yes"/>
      <point x="381" y="396"/>
      <point x="364" y="430"/>
      <point x="297" y="430" type="curve" smooth="yes"/>
      <point x="241" y="430"/>
      <point x="211" y="402"/>
      <point x="201" y="356" type="curve"/>
      <point x="64" y="356" type="line"/>
      <point x="88" y="484"/>
      <point x="192" y="535"/>
      <point x="303" y="535" type="curve" smooth="yes"/>
      <point x="383" y="535"/>
      <point x="438" y="513"/>
      <point x="467" y="468" type="curve"/>
      <point x="514" y="510"/>
      <point x="574" y="534"/>
      <point x="640" y="534" type="curve" smooth="yes"/>
      <point x="799" y="534"/>
      <point x="891" y="437"/>
      <point x="863" y="253" type="curve" smooth="yes"/>
      <point x="859" y="230" type="line"/>
      <point x="494" y="230" type="line"/>
    </contour>
    <contour>
      <point x="230" y="89" type="curve" smooth="yes"/>
      <point x="291" y="89"/>
      <point x="338" y="122"/>
      <point x="348" y="188" type="curve" smooth="yes"/>
      <point x="355" y="229" type="line"/>
      <point x="285" y="229" type="line" smooth="yes"/>
      <point x="198" y="229"/>
      <point x="158" y="207"/>
      <point x="158" y="150" type="curve" smooth="yes"/>
      <point x="158" y="115"/>
      <point x="182" y="89"/>
    </contour>
    <contour>
      <point x="635" y="435" type="curve" smooth="yes"/>
      <point x="578" y="435"/>
      <point x="527" y="401"/>
      <point x="505" y="316" type="curve"/>
      <point x="728" y="316" type="line"/>
      <point x="734" y="391"/>
      <point x="708" y="435"/>
    </contour>
  </outline>
</glyph>
<glyph name="ccedilla" format="2">
  <advance width="570"/>
  <unicode hex="00E7"/>
  <outline>
    <contour>
      <point x="219" y="-222" type="curve" smooth="yes"/>
      <point x="160" y="-222"/>
      <point x="108" y="-194"/>
      <point x="103" y="-132" type="curve"/>
      <point x="178" y="-132" type="line"/>
      <point x="180" y="-148"/>
      <point x="191" y="-163"/>
      <point x="215" y="-163" type="curve" smooth="yes"/>
      <point x="233" y="-163"/>
      <point x="251" y="-153"/>
      <point x="251" y="-128" type="curve" smooth="yes"/>
      <point x="251" y="-109"/>
      <point x="238" y="-99"/>
      <point x="218" y="-99" type="curve" smooth="yes"/>
      <point x="204" y="-99"/>
      <point x="196" y="-103"/>
      <point x="190" y="-108" type="curve"/>
      <point x="158" y="-73" type="line"/>
      <point x="214" y="-2" type="line"/>
      <point x="100" y="21"/>
      <point x="29" y="104"/>
      <point x="29" y="229" type="curve" smooth="yes"/>
      <point x="29" y="418"/>
      <point x="154" y="534"/>
      <point x="315" y="534" type="curve" smooth="yes"/>
      <point x="443" y="534"/>
      <point x="542" y="473"/>
      <point x="548" y="331" type="curve"/>
      <point x="412" y="331" type="line"/>
      <point x="405" y="398"/>
      <point x="369" y="421"/>
      <point x="311" y="421" type="curve" smooth="yes"/>
      <point x="225" y="421"/>
      <point x="174" y="342"/>
      <point x="174" y="228" type="curve" smooth="yes"/>
      <point x="174" y="146"/>
      <point x="211" y="97"/>
      <point x="292" y="97" type="curve" smooth="yes"/>
      <point x="350" y="97"/>
      <point x="396" y="132"/>
      <point x="408" y="198" type="curve"/>
      <point x="539" y="198" type="line"/>
      <point x="519" y="65"/>
      <point x="425" y="-10"/>
      <point x="287" y="-10" type="curve" smooth="yes"/>
      <point x="273" y="-10" type="line"/>
      <point x="243" y="-48" type="line"/>
      <point x="291" y="-44"/>
      <point x="335" y="-71"/>
      <point x="335" y="-125" type="curve" smooth="yes"/>
      <point x="335" y="-189"/>
      <point x="285" y="-222"/>
    </contour>
  </outline>
</glyph>
<glyph name="edieresis" format="2">
  <advance width="580"/>
  <unicode hex="00EB"/>
  <outline>
    <contour>
      <point x="171" y="214" type="line" smooth="yes"/>
      <point x="171" y="141"/>
      <point x="204" y="92"/>
      <point x="286" y="92" type="curve" smooth="yes"/>
      <point x="346" y="92"/>
      <point x="383" y="119"/>
      <point x="398" y="165" type="curve"/>
      <point x="535" y="165" type="line"/>
      <point x="507" y="49"/>
      <point x="409" y="-11"/>
      <point x="282" y="-11" type="curve" smooth="yes"/>
      <point x="134" y="-11"/>
      <point x="28" y="71"/>
      <point x="28" y="221" type="curve" smooth="yes"/>
      <point x="28" y="408"/>
      <point x="152" y="535"/>
      <point x="317" y="535" type="curve" smooth="yes"/>
      <point x="478" y="535"/>
      <point x="576" y="434"/>
      <point x="548" y="252" type="curve" smooth="yes"/>
      <point x="544" y="229" type="line"/>
      <point x="171" y="229" type="line"/>
    </contour>
    <contour>
      <point x="316" y="435" type="curve" smooth="yes"/>
      <point x="260" y="435"/>
      <point x="207" y="402"/>
      <point x="183" y="318" type="curve"/>
      <point x="413" y="318" type="line"/>
      <point x="419" y="393"/>
      <point x="390" y="435"/>
    </contour>
    <contour>
      <point x="238" y="600" type="curve" smooth="yes"/>
      <point x="197" y="600"/>
      <point x="164" y="631"/>
      <point x="164" y="671" type="curve" smooth="yes"/>
      <point x="164" y="711"/>
      <point x="198" y="744"/>
      <point x="239" y="744" type="curve" smooth="yes"/>
      <point x="279" y="744"/>
      <point x="312" y="712"/>
      <point x="312" y="672" type="curve" smooth="yes"/>
      <point x="312" y="633"/>
      <point x="279" y="600"/>
    </contour>
    <contour>
      <point x="441" y="600" type="curve" smooth="yes"/>
      <point x="401" y="600"/>
      <point x="368" y="631"/>
      <point x="368" y="671" type="curve" smooth="yes"/>
      <point x="368" y="711"/>
      <point x="401" y="744"/>
      <point x="442" y="744" type="curve" smooth="yes"/>
      <point x="483" y="744"/>
      <point x="515" y="712"/>
      <point x="515" y="672" type="curve" smooth="yes"/>
      <point x="515" y="633"/>
      <point x="483" y="600"/>
    </contour>
  </outline>
</glyph>
<glyph name="icircumflex" format="2">
  <advance width="281"/>
  <unicode hex="00EE"/>
  <outline>
    <contour>
      <point x="18" y="595" type="line"/>
      <point x="157" y="751" type="line"/>
      <point x="265" y="751" type="line"/>
      <point x="358" y="595" type="line"/>
      <point x="260" y="595" type="line"/>
      <point x="200" y="658" type="line"/>
      <point x="121" y="595" type="line"/>
    </contour>
    <contour>
      <point x="26" y="0" type="line"/>
      <point x="109" y="523" type="line"/>
      <point x="253" y="523" type="line"/>
      <point x="170" y="0" type="line"/>
    </contour>
  </outline>
</glyph>
<glyph name="idieresis" format="2">
  <advance width="281"/>
  <unicode hex="00EF"/>
  <outline>
    <contour>
      <point x="106" y="600" type="curve" smooth="yes"/>
      <point x="66" y="600"/>
      <point x="33" y="631"/>
      <point x="33" y="671" type="curve" smooth="yes"/>
      <point x="33" y="711"/>
      <point x="66" y="744"/>
      <point x="107" y="744" type="curve" smooth="yes"/>
      <point x="148" y="744"/>
      <point x="180" y="712"/>
      <point x="180" y="672" type="curve" smooth="yes"/>
      <point x="180" y="633"/>
      <point x="147" y="600"/>
    </contour>
    <contour>
      <point x="304" y="600" type="curve" smooth="yes"/>
      <point x="263" y="600"/>
      <point x="231" y="631"/>
      <point x="231" y="671" type="curve" smooth="yes"/>
      <point x="231" y="711"/>
      <point x="264" y="744"/>
      <point x="305" y="744" type="curve" smooth="yes"/>
      <point x="346" y="744"/>
      <point x="378" y="712"/>
      <point x="378" y="672" type="curve" smooth="yes"/>
      <point x="378" y="633"/>
      <point x="345" y="600"/>
    </contour>
    <contour>
      <point x="26" y="0" type="line"/>
      <point x="109" y="523" type="line"/>
      <point x="253" y="523" type="line"/>
      <point x="170" y="0" type="line"/>
    </contour>
  </outline>
</glyph>
<glyph name="eth" format="2">
  <advance width="610"/>
  <unicode hex="00F0"/>
  <outline>
    <contour>
      <point x="190" y="563" type="line"/>
      <point x="167" y="619" type="line"/>
      <point x="283" y="666" type="line"/>
      <point x="247" y="700"/>
      <point x="208" y="731"/>
      <point x="168" y="760" type="curve"/>
      <point x="341" y="760" type="line"/>
      <point x="361" y="748"/>
      <point x="382" y="732"/>
      <point x="403" y="714" type="curve"/>
      <point x="508" y="757" type="line"/>
      <point x="531" y="700" type="line"/>
      <point x="450" y="667" type="line"/>
      <point x="521" y="587"/>
      <point x="579" y="472"/>
      <point x="579" y="336" type="curve" smooth="yes"/>
      <point x="579" y="142"/>
      <point x="479" y="-11"/>
      <point x="282" y="-11" type="curve" smooth="yes"/>
      <point x="136" y="-11"/>
      <point x="28" y="75"/>
      <point x="28" y="229" type="curve" smooth="yes"/>
      <point x="28" y="387"/>
      <point x="130" y="530"/>
      <point x="290" y="530" type="curve" smooth="yes"/>
      <point x="345" y="530"/>
      <point x="386" y="513"/>
      <point x="419" y="470" type="curve"/>
      <point x="396" y="526"/>
      <point x="365" y="575"/>
      <point x="328" y="618" type="curve"/>
    </contour>
    <contour>
      <point x="174" y="223" type="curve" smooth="yes"/>
      <point x="174" y="156"/>
      <point x="204" y="99"/>
      <point x="285" y="99" type="curve" smooth="yes"/>
      <point x="383" y="99"/>
      <point x="432" y="199"/>
      <point x="432" y="301" type="curve" smooth="yes"/>
      <point x="432" y="366"/>
      <point x="400" y="425"/>
      <point x="319" y="425" type="curve" smooth="yes"/>
      <point x="223" y="425"/>
      <point x="174" y="331"/>
    </contour>
  </outline>
</glyph>
<glyph name="ntilde" format="2">
  <advance width="611"/>
  <unicode hex="00F1"/>
  <outline>
    <contour>
      <point x="22" y="0" type="line"/>
      <point x="78" y="357" type="line" smooth="yes"/>
      <point x="90" y="431"/>
      <point x="94" y="477"/>
      <point x="96" y="523" type="curve"/>
      <point x="235" y="523" type="line"/>
      <point x="235" y="496"/>
      <point x="234" y="461"/>
      <point x="230" y="429" type="curve"/>
      <point x="267" y="489"/>
      <point x="325" y="535"/>
      <point x="410" y="535" type="curve" smooth="yes"/>
      <point x="512" y="535"/>
      <point x="584" y="472"/>
      <point x="559" y="314" type="curve" smooth="yes"/>
      <point x="509" y="0" type="line"/>
      <point x="365" y="0" type="line"/>
      <point x="414" y="313" type="line" smooth="yes"/>
      <point x="426" y="383"/>
      <point x="402" y="417"/>
      <point x="344" y="417" type="curve" smooth="yes"/>
      <point x="277" y="417"/>
      <point x="225" y="374"/>
      <point x="213" y="294" type="curve" smooth="yes"/>
      <point x="166" y="0" type="line"/>
    </contour>
    <contour>
      <point x="416" y="598" type="curve" smooth="yes"/>
      <point x="362" y="598"/>
      <point x="331" y="636"/>
      <point x="301" y="636" type="curve" smooth="yes"/>
      <point x="284" y="636"/>
      <point x="268" y="621"/>
      <point x="262" y="599" type="curve"/>
      <point x="179" y="599" type="line"/>
      <point x="194" y="692"/>
      <point x="240" y="740"/>
      <point x="299" y="740" type="curve" smooth="yes"/>
      <point x="350" y="740"/>
      <point x="383" y="703"/>
      <point x="415" y="703" type="curve" smooth="yes"/>
      <point x="433" y="703"/>
      <point x="447" y="717"/>
      <point x="453" y="740" type="curve"/>
      <point x="537" y="740" type="line"/>
      <point x="521" y="646"/>
      <point x="473" y="598"/>
    </contour>
  </outline>
</glyph>
<glyph name="ocircumflex" format="2">
  <advance width="606"/>
  <unicode hex="00F4"/>
  <outline>
    <contour>
      <point x="162" y="595" type="line"/>
      <point x="301" y="751" type="line"/>
      <point x="409" y="751" type="line"/>
      <point x="502" y="595" type="line"/>
      <point x="404" y="595" type="line"/>
      <point x="344" y="658" type="line"/>
      <point x="265" y="595" type="line"/>
    </contour>
    <contour>
      <point x="283" y="-11" type="curve" smooth="yes"/>
      <point x="140" y="-11"/>
      <point x="30" y="75"/>
      <point x="29" y="226" type="curve" smooth="yes"/>
      <point x="29" y="403"/>
      <point x="152" y="534"/>
      <point x="322" y="534" type="curve" smooth="yes"/>
      <point x="465" y="534"/>
      <point x="577" y="450"/>
      <point x="577" y="297" type="curve" smooth="yes"/>
      <point x="577" y="117"/>
      <point x="456" y="-11"/>
    </contour>
    <contour>
      <point x="287" y="99" type="curve" smooth="yes"/>
      <point x="380" y="99"/>
      <point x="430" y="186"/>
      <point x="430" y="301" type="curve" smooth="yes"/>
      <point x="430" y="373"/>
      <point x="394" y="425"/>
      <point x="319" y="425" type="curve" smooth="yes"/>
      <point x="228" y="425"/>
      <point x="174" y="339"/>
      <point x="174" y="225" type="curve" smooth="yes"/>
      <point x="174" y="154"/>
      <point x="206" y="99"/>
    </contour>
  </outline>
</glyph>
<glyph name="otilde" format="2">
  <advance width="606"/>
  <unicode hex="00F5"/>
  <outline>
    <contour>
      <point x="283" y="-11" type="curve" smooth="yes"/>
      <point x="140" y="-11"/>
      <point x="30" y="75"/>
      <point x="29" y="226" type="curve" smooth="yes"/>
      <point x="29" y="403"/>
      <point x="152" y="534"/>
      <point x="322" y="534" type="curve" smooth="yes"/>
      <point x="465" y="534"/>
      <point x="577" y="450"/>
      <point x="577" y="297" type="curve" smooth="yes"/>
      <point x="577" y="117"/>
      <point x="456" y="-11"/>
    </contour>
    <contour>
      <point x="287" y="99" type="curve" smooth="yes"/>
      <point x="380" y="99"/>
      <point x="430" y="186"/>
      <point x="430" y="301" type="curve" smooth="yes"/>
      <point x="430" y="373"/>
      <point x="394" y="425"/>
      <point x="319" y="425" type="curve" smooth="yes"/>
      <point x="228" y="425"/>
      <point x="174" y="339"/>
      <point x="174" y="225" type="curve" smooth="yes"/>
      <point x="174" y="154"/>
      <point x="206" y="99"/>
    </contour>
    <contour>
      <point x="404" y="598" type="curve" smooth="yes"/>
      <point x="350" y="598"/>
      <point x="319" y="636"/>
      <point x="289" y="636" type="curve" smooth="yes"/>
      <point x="272" y="636"/>
      <point x="256" y="621"/>
      <point x="250" y="599" type="curve"/>
      <point x="167" y="599" type="line"/>
      <point x="182" y="692"/>
      <point x="228" y="740"/>
      <point x="287" y="740" type="curve" smooth="yes"/>
      <point x="338" y="740"/>
      <point x="371" y="703"/>
      <point x="403" y="703" type="curve" smooth="yes"/>
      <point x="421" y="703"/>
      <point x="435" y="717"/>
      <point x="441" y="740" type="curve"/>
      <point x="525" y="740" type="line"/>
      <point x="509" y="646"/>
      <point x="461" y="598"/>
    </contour>
  </outline>
</glyph>
<glyph name="odieresis" format="2">
  <advance width="606"/>
  <unicode hex="00F6"/>
  <outline>
    <contour>
      <point x="244" y="600" type="curve" smooth="yes"/>
      <point x="203" y="600"/>
      <point x="170" y="631"/>
      <point x="170" y="671" type="curve" smooth="yes"/>
      <point x="170" y="711"/>
      <point x="204" y="744"/>
      <point x="245" y="744" type="curve" smooth="yes"/>
      <point x="285" y="744"/>
      <point x="318" y="712"/>
      <point x="318" y="672" type="curve" smooth="yes"/>
      <point x="318" y="633"/>
      <point x="285" y="600"/>
    </contour>
    <contour>
      <point x="447" y="600" type="curve" smooth="yes"/>
      <point x="407" y="600"/>
      <point x="374" y="631"/>
      <point x="374" y="671" type="curve" smooth="yes"/>
      <point x="374" y="711"/>
      <point x="407" y="744"/>
      <point x="448" y="744" type="curve" smooth="yes"/>
      <point x="489" y="744"/>
      <point x="521" y="712"/>
      <point x="521" y="672" type="curve" smooth="yes"/>
      <point x="521" y="633"/>
      <point x="489" y="600"/>
    </contour>
    <contour>
      <point x="283" y="-11" type="curve" smooth="yes"/>
      <point x="140" y="-11"/>
      <point x="30" y="75"/>
      <point x="29" y="226" type="curve" smooth="yes"/>
      <point x="29" y="403"/>
      <point x="152" y="534"/>
      <point x="322" y="534" type="curve" smooth="yes"/>
      <point x="465" y="534"/>
      <point x="577" y="450"/>
      <point x="577" y="297" type="curve" smooth="yes"/>
      <point x="577" y="117"/>
      <point x="456" y="-11"/>
    </contour>
    <contour>
      <point x="287" y="99" type="curve" smooth="yes"/>
      <point x="380" y="99"/>
      <point x="430" y="186"/>
      <point x="430" y="301" type="curve" smooth="yes"/>
      <point x="430" y="373"/>
      <point x="394" y="425"/>
      <point x="319" y="425" type="curve" smooth="yes"/>
      <point x="228" y="425"/>
      <point x="174" y="339"/>
      <point x="174" y="225" type="curve" smooth="yes"/>
      <point x="174" y="154"/>
      <point x="206" y="99"/>
    </contour>
  </outline>
</glyph>
<glyph name="divide" format="2">
  <advance width="553"/>
  <unicode hex="00F7"/>
  <outline>
    <contour>
      <point x="40" y="289" type="line"/>
      <point x="56" y="393" type="line"/>
      <point x="536" y="393" type="line"/>
      <point x="519" y="289" type="line"/>
    </contour>
    <contour>
      <point x="263" y="60" type="curve" smooth="yes"/>
      <point x="216" y="60"/>
      <point x="180" y="96"/>
      <point x="180" y="142" type="curve" smooth="yes"/>
      <point x="180" y="187"/>
      <point x="216" y="224"/>
      <point x="263" y="224" type="curve" smooth="yes"/>
      <point x="311" y="224"/>
      <point x="348" y="187"/>
      <point x="348" y="142" type="curve" smooth="yes"/>
      <point x="348" y="96"/>
      <point x="311" y="60"/>
    </contour>
    <contour>
      <point x="311" y="458" type="curve" smooth="yes"/>
      <point x="264" y="458"/>
      <point x="228" y="494"/>
      <point x="228" y="540" type="curve" smooth="yes"/>
      <point x="228" y="585"/>
      <point x="264" y="622"/>
      <point x="311" y="622" type="curve" smooth="yes"/>
      <point x="359" y="622"/>
      <point x="396" y="585"/>
      <point x="396" y="540" type="curve" smooth="yes"/>
      <point x="396" y="494"/>
      <point x="359" y="458"/>
    </contour>
  </outline>
</glyph>
<glyph name="ugrave" format="2">
  <advance width="609"/>
  <unicode hex="00F9"/>
  <outline>
    <contour>
      <point x="584" y="523" type="line"/>
      <point x="527" y="160" type="line" smooth="yes"/>
      <point x="516" y="91"/>
      <point x="513" y="44"/>
      <point x="515" y="0" type="curve"/>
      <point x="375" y="0" type="line"/>
      <point x="373" y="26"/>
      <point x="373" y="56"/>
      <point x="377" y="88" type="curve"/>
      <point x="339" y="31"/>
      <point x="287" y="-11"/>
      <point x="205" y="-11" type="curve" smooth="yes"/>
      <point x="96" y="-11"/>
      <point x="26" y="54"/>
      <point x="50" y="209" type="curve" smooth="yes"/>
      <point x="100" y="523" type="line"/>
      <point x="244" y="523" type="line"/>
      <point x="194" y="204" type="line" smooth="yes"/>
      <point x="183" y="137"/>
      <point x="206" y="100"/>
      <point x="262" y="100" type="curve" smooth="yes"/>
      <point x="329" y="100"/>
      <point x="380" y="143"/>
      <point x="392" y="223" type="curve" smooth="yes"/>
      <point x="440" y="523" type="line"/>
    </contour>
    <contour>
      <point x="301" y="594" type="line"/>
      <point x="211" y="753" type="line"/>
      <point x="361" y="753" type="line"/>
      <point x="403" y="594" type="line"/>
    </contour>
  </outline>
</glyph>
<glyph name="udieresis" format="2">
  <advance width="609"/>
  <unicode hex="00FC"/>
  <outline>
    <contour>
      <point x="253" y="600" type="curve" smooth="yes"/>
      <point x="212" y="600"/>
      <point x="179" y="631"/>
      <point x="179" y="671" type="curve" smooth="yes"/>
      <point x="179" y="711"/>
      <point x="213" y="744"/>
      <point x="254" y="744" type="curve" smooth="yes"/>
      <point x="294" y="744"/>
      <point x="327" y="712"/>
      <point x="327" y="672" type="curve" smooth="yes"/>
      <point x="327" y="633"/>
      <point x="294" y="600"/>
    </contour>
    <contour>
      <point x="456" y="600" type="curve" smooth="yes"/>
      <point x="416" y="600"/>
      <point x="383" y="631"/>
      <point x="383" y="671" type="curve" smooth="yes"/>
      <point x="383" y="711"/>
      <point x="416" y="744"/>
      <point x="457" y="744" type="curve" smooth="yes"/>
      <point x="498" y="744"/>
      <point x="530" y="712"/>
      <point x="530" y="672" type="curve" smooth="yes"/>
      <point x="530" y="633"/>
      <point x="498" y="600"/>
    </contour>
    <contour>
      <point x="584" y="523" type="line"/>
      <point x="527" y="160" type="line" smooth="yes"/>
      <point x="516" y="91"/>
      <point x="513" y="44"/>
      <point x="515" y="0" type="curve"/>
      <point x="375" y="0" type="line"/>
      <point x="373" y="26"/>
      <point x="373" y="56"/>
      <point x="377" y="88" type="curve"/>
      <point x="339" y="31"/>
      <point x="287" y="-11"/>
      <point x="205" y="-11" type="curve" smooth="yes"/>
      <point x="96" y="-11"/>
      <point x="26" y="54"/>
      <point x="50" y="209" type="curve" smooth="yes"/>
      <point x="100" y="523" type="line"/>
      <point x="244" y="523" type="line"/>
      <point x="194" y="204" type="line" smooth="yes"/>
      <point x="183" y="137"/>
      <point x="206" y="100"/>
      <point x="262" y="100" type="curve" smooth="yes"/>
      <point x="329" y="100"/>
      <point x="380" y="143"/>
      <point x="392" y="223" type="curve" smooth="yes"/>
      <point x="440" y="523" type="line"/>
    </contour>
  </outline>
</glyph>
<glyph name="yacute" format="2">
  <advance width="551"/>
  <unicode hex="00FD"/>
  <outline>
    <contour>
      <point x="45" y="-178" type="line"/>
      <point x="177" y="59" type="line"/>
      <point x="51" y="523" type="line"/>
      <point x="200" y="523" type="line"/>
      <point x="273" y="208" type="line"/>
      <point x="435" y="523" type="line"/>
      <point x="581" y="523" type="line"/>
      <point x="191" y="-178" type="line"/>
    </contour>
    <contour>
      <point x="268" y="594" type="line"/>
      <point x="344" y="753" type="line"/>
      <point x="498" y="753" type="line"/>
      <point x="375" y="594" type="line"/>
    </contour>
  </outline>
</glyph>
<glyph name="thorn" format="2">
  <advance width="639"/>
  <unicode hex="00FE"/>
  <outline>
    <contour>
      <point x="-6" y="-178" type="line"/>
      <point x="142" y="760" type="line"/>
      <point x="286" y="760" type="line"/>
      <point x="235" y="437" type="line"/>
      <point x="270" y="494"/>
      <point x="334" y="535"/>
      <point x="414" y="535" type="curve" smooth="yes"/>
      <point x="524" y="535"/>
      <point x="607" y="453"/>
      <point x="607" y="307" type="curve" smooth="yes"/>
      <point x="607" y="119"/>
      <point x="505" y="-11"/>
      <point x="352" y="-11" type="curve" smooth="yes"/>
      <point x="260" y="-11"/>
      <point x="202" y="36"/>
      <point x="181" y="91" type="curve"/>
      <point x="138" y="-178" type="line"/>
    </contour>
    <contour>
      <point x="318" y="100" type="curve" smooth="yes"/>
      <point x="405" y="100"/>
      <point x="458" y="182"/>
      <point x="458" y="297" type="curve" smooth="yes"/>
      <point x="458" y="380"/>
      <point x="419" y="426"/>
      <point x="353" y="426" type="curve" smooth="yes"/>
      <point x="266" y="426"/>
      <point x="201" y="346"/>
      <point x="201" y="226" type="curve" smooth="yes"/>
      <point x="201" y="147"/>
      <point x="244" y="100"/>
    </contour>
  </outline>
</glyph>
<glyph name="ydieresis" format="2">
  <advance width="551"/>
  <unicode hex="00FF"/>
  <outline>
    <contour>
      <point x="45" y="-178" type="line"/>
      <point x="177" y="59" type="line"/>
      <point x="51" y="523" type="line"/>
      <point x="200" y="523" type="line"/>
      <point x="273" y="208" type="line"/>
      <point x="435" y="523" type="line"/>
      <point x="581" y="523" type="line"/>
      <point x="191" y="-178" type="line"/>
    </contour>
    <contour>
      <point x="236" y="600" type="curve" smooth="yes"/>
      <point x="195" y="600"/>
      <point x="162" y="631"/>
      <point x="162" y="671" type="curve" smooth="yes"/>
      <point x="162" y="711"/>
      <point x="196" y="744"/>
      <point x="237" y="744" type="curve" smooth="yes"/>
      <point x="277" y="744"/>
      <point x="310" y="712"/>
      <point x="310" y="672" type="curve" smooth="yes"/>
      <point x="310" y="633"/>
      <point x="277" y="600"/>
    </contour>
    <contour>
      <point x="439" y="600" type="curve" smooth="yes"/>
      <point x="399" y="600"/>
      <point x="366" y="631"/>
      <point x="366" y="671" type="curve" smooth="yes"/>
      <point x="366" y="711"/>
      <point x="399" y="744"/>
      <point x="440" y="744" type="curve" smooth="yes"/>
      <point x="481" y="744"/>
      <point x="513" y="712"/>
      <point x="513" y="672" type="curve" smooth="yes"/>
      <point x="513" y="633"/>
      <point x="481" y="600"/>
    </contour>
  </outline>
</glyph>
<glyph name="Amacron" format="2">
  <advance width="706"/>
  <unicode hex="0100"/>
  <outline>
    <contour>
      <point x="484" y="0" type="line"/>
      <point x="460" y="159" type="line"/>
      <point x="201" y="159" type="line"/>
      <point x="128" y="0" type="line"/>
      <point x="-28" y="0" type="line"/>
      <point x="320" y="715" type="line"/>
      <point x="531" y="715" type="line"/>
      <point x="650" y="0" type="line"/>
    </contour>
    <contour>
      <point x="398" y="583" type="line"/>
      <point x="255" y="274" type="line"/>
      <point x="443" y="274" type="line"/>
    </contour>
    <contour>
      <point x="281" y="777" type="line"/>
      <point x="295" y="868" type="line"/>
      <point x="597" y="868" type="line"/>
      <point x="582" y="777" type="line"/>
    </contour>
  </outline>
</glyph>
<glyph name="amacron" format="2">
  <advance width="563"/>
  <unicode hex="0101"/>
  <outline>
    <contour>
      <point x="182" y="-11" type="curve" smooth="yes"/>
      <point x="82" y="-11"/>
      <point x="15" y="45"/>
      <point x="15" y="136" type="curve" smooth="yes"/>
      <point x="15" y="270"/>
      <point x="125" y="313"/>
      <point x="282" y="313" type="curve" smooth="yes"/>
      <point x="368" y="313" type="line"/>
      <point x="371" y="335" type="line" smooth="yes"/>
      <point x="381" y="396"/>
      <point x="364" y="430"/>
      <point x="297" y="430" type="curve" smooth="yes"/>
      <point x="242" y="430"/>
      <point x="214" y="402"/>
      <point x="204" y="356" type="curve"/>
      <point x="66" y="356" type="line"/>
      <point x="92" y="483"/>
      <point x="188" y="535"/>
      <point x="304" y="535" type="curve" smooth="yes"/>
      <point x="453" y="535"/>
      <point x="536" y="469"/>
      <point x="512" y="319" type="curve" smooth="yes"/>
      <point x="487" y="160" type="line" smooth="yes"/>
      <point x="476" y="92"/>
      <point x="473" y="44"/>
      <point x="478" y="0" type="curve"/>
      <point x="340" y="0" type="line"/>
      <point x="336" y="24"/>
      <point x="336" y="50"/>
      <point x="337" y="72" type="curve"/>
      <point x="304" y="23"/>
      <point x="254" y="-11"/>
    </contour>
    <contour>
      <point x="231" y="89" type="curve" smooth="yes"/>
      <point x="290" y="89"/>
      <point x="338" y="124"/>
      <point x="347" y="186" type="curve" smooth="yes"/>
      <point x="354" y="227" type="line"/>
      <point x="286" y="227" type="line" smooth="yes"/>
      <point x="198" y="227"/>
      <point x="158" y="207"/>
      <point x="158" y="151" type="curve" smooth="yes"/>
      <point x="158" y="117"/>
      <point x="182" y="89"/>
    </contour>
    <contour>
      <point x="179" y="625" type="line"/>
      <point x="192" y="712" type="line"/>
      <point x="483" y="712" type="line"/>
      <point x="470" y="625" type="line"/>
    </contour>
  </outline>
</glyph>
<glyph name="Abreve" format="2">
  <advance width="706"/>
  <unicode hex="0102"/>
  <outline>
    <contour>
      <point x="484" y="0" type="line"/>
      <point x="460" y="159" type="line"/>
      <point x="201" y="159" type="line"/>
      <point x="128" y="0" type="line"/>
      <point x="-28" y="0" type="line"/>
      <point x="320" y="715" type="line"/>
      <point x="531" y="715" type="line"/>
      <point x="650" y="0" type="line"/>
    </contour>
    <contour>
      <point x="434" y="757" type="curve" smooth="yes"/>
      <point x="341" y="757"/>
      <point x="284" y="815"/>
      <point x="284" y="903" type="curve"/>
      <point x="381" y="903" type="line"/>
      <point x="384" y="870"/>
      <point x="401" y="851"/>
      <point x="436" y="851" type="curve" smooth="yes"/>
      <point x="469" y="851"/>
      <point x="489" y="868"/>
      <point x="496" y="903" type="curve"/>
      <point x="592" y="903" type="line"/>
      <point x="581" y="813"/>
      <point x="517" y="757"/>
    </contour>
    <contour>
      <point x="398" y="583" type="line"/>
      <point x="255" y="274" type="line"/>
      <point x="443" y="274" type="line"/>
    </contour>
  </outline>
</glyph>
<glyph name="Aogonek" format="2">
  <advance width="706"/>
  <unicode hex="0104"/>
  <outline>
    <contour>
      <point x="484" y="0" type="line"/>
      <point x="460" y="159" type="line"/>
      <point x="201" y="159" type="line"/>
      <point x="128" y="0" type="line"/>
      <point x="-28" y="0" type="line"/>
      <point x="320" y="715" type="line"/>
      <point x="531" y="715" type="line"/>
      <point x="649" y="6" type="line"/>
      <point x="615" y="-16"/>
      <point x="577" y="-40"/>
      <point x="577" y="-76" type="curve" smooth="yes"/>
      <point x="577" y="-94"/>
      <point x="588" y="-102"/>
      <point x="609" y="-102" type="curve" smooth="yes"/>
      <point x="621" y="-102"/>
      <point x="634" y="-100"/>
      <point x="644" y="-96" type="curve"/>
      <point x="633" y="-169" type="line"/>
      <point x="617" y="-175"/>
      <point x="595" y="-182"/>
      <point x="562" y="-182" type="curve" smooth="yes"/>
      <point x="506" y="-182"/>
      <point x="454" y="-162"/>
      <point x="455" y="-102" type="curve" smooth="yes"/>
      <point x="455" y="-51"/>
      <point x="504" y="-17"/>
      <point x="547" y="0" type="curve"/>
    </contour>
    <contour>
      <point x="398" y="583" type="line"/>
      <point x="255" y="274" type="line"/>
      <point x="443" y="274" type="line"/>
    </contour>
  </outline>
</glyph>
<glyph name="aogonek" format="2">
  <advance width="563"/>
  <unicode hex="0105"/>
  <outline>
    <contour>
      <point x="400" y="-182" type="curve" smooth="yes"/>
      <point x="344" y="-182"/>
      <point x="292" y="-162"/>
      <point x="292" y="-102" type="curve" smooth="yes"/>
      <point x="292" y="-51"/>
      <point x="341" y="-17"/>
      <point x="383" y="0" type="curve"/>
      <point x="340" y="0" type="line"/>
      <point x="336" y="24"/>
      <point x="336" y="50"/>
      <point x="337" y="72" type="curve"/>
      <point x="304" y="23"/>
      <point x="254" y="-11"/>
      <point x="182" y="-11" type="curve" smooth="yes"/>
      <point x="82" y="-11"/>
      <point x="15" y="45"/>
      <point x="15" y="136" type="curve" smooth="yes"/>
      <point x="15" y="270"/>
      <point x="125" y="313"/>
      <point x="282" y="313" type="curve" smooth="yes"/>
      <point x="368" y="313" type="line"/>
      <point x="371" y="335" type="line" smooth="yes"/>
      <point x="381" y="396"/>
      <point x="364" y="430"/>
      <point x="297" y="430" type="curve" smooth="yes"/>
      <point x="242" y="430"/>
      <point x="214" y="402"/>
      <point x="204" y="356" type="curve"/>
      <point x="66" y="356" type="line"/>
      <point x="92" y="483"/>
      <point x="188" y="535"/>
      <point x="304" y="535" type="curve" smooth="yes"/>
      <point x="453" y="535"/>
      <point x="536" y="469"/>
      <point x="512" y="319" type="curve" smooth="yes"/>
      <point x="487" y="160" type="line" smooth="yes"/>
      <point x="476" y="94"/>
      <point x="473" y="47"/>
      <point x="478" y="3" type="curve"/>
      <point x="452" y="-16"/>
      <point x="414" y="-41"/>
      <point x="414" y="-76" type="curve" smooth="yes"/>
      <point x="414" y="-94"/>
      <point x="425" y="-102"/>
      <point x="446" y="-102" type="curve" smooth="yes"/>
      <point x="458" y="-102"/>
      <point x="471" y="-100"/>
      <point x="482" y="-95" type="curve"/>
      <point x="470" y="-169" type="line"/>
      <point x="455" y="-175"/>
      <point x="433" y="-182"/>
    </contour>
    <contour>
      <point x="231" y="89" type="curve" smooth="yes"/>
      <point x="290" y="89"/>
      <point x="338" y="124"/>
      <point x="347" y="186" type="curve" smooth="yes"/>
      <point x="354" y="227" type="line"/>
      <point x="286" y="227" type="line" smooth="yes"/>
      <point x="198" y="227"/>
      <point x="158" y="207"/>
      <point x="158" y="151" type="curve" smooth="yes"/>
      <point x="158" y="117"/>
      <point x="182" y="89"/>
    </contour>
  </outline>
</glyph>
<glyph name="Cdotaccent" format="2">
  <advance width="749"/>
  <unicode hex="010A"/>
  <outline>
    <contour>
      <point x="390" y="-11" type="curve" smooth="yes"/>
      <point x="184" y="-11"/>
      <point x="53" y="103"/>
      <point x="53" y="303" type="curve" smooth="yes"/>
      <point x="53" y="544"/>
      <point x="206" y="726"/>
      <point x="445" y="726" type="curve" smooth="yes"/>
      <point x="616" y="726"/>
      <point x="734" y="639"/>
      <point x="742" y="466" type="curve"/>
      <point x="581" y="466" type="line"/>
      <point x="570" y="552"/>
      <point x="528" y="599"/>
      <point x="440" y="599" type="curve" smooth="yes"/>
      <point x="299" y="599"/>
      <point x="223" y="467"/>
      <point x="222" y="308" type="curve" smooth="yes"/>
      <point x="221" y="194"/>
      <point x="274" y="118"/>
      <point x="392" y="118" type="curve" smooth="yes"/>
      <point x="479" y="118"/>
      <point x="539" y="169"/>
      <point x="564" y="257" type="curve"/>
      <point x="723" y="257" type="line"/>
      <point x="691" y="84"/>
      <point x="556" y="-11"/>
    </contour>
    <contour>
      <point x="458" y="768" type="curve" smooth="yes"/>
      <point x="412" y="768"/>
      <point x="377" y="801"/>
      <point x="377" y="844" type="curve" smooth="yes"/>
      <point x="377" y="887"/>
      <point x="413" y="921"/>
      <point x="458" y="921" type="curve" smooth="yes"/>
      <point x="504" y="921"/>
      <point x="539" y="889"/>
      <point x="539" y="845" type="curve" smooth="yes"/>
      <point x="539" y="802"/>
      <point x="503" y="768"/>
    </contour>
  </outline>
</glyph>
<glyph name="cdotaccent" format="2">
  <advance width="570"/>
  <unicode hex="010B"/>
  <outline>
    <contour>
      <point x="287" y="-10" type="curve" smooth="yes"/>
      <point x="132" y="-10"/>
      <point x="29" y="79"/>
      <point x="29" y="229" type="curve" smooth="yes"/>
      <point x="29" y="418"/>
      <point x="154" y="534"/>
      <point x="315" y="534" type="curve" smooth="yes"/>
      <point x="443" y="534"/>
      <point x="542" y="473"/>
      <point x="548" y="331" type="curve"/>
      <point x="412" y="331" type="line"/>
      <point x="405" y="398"/>
      <point x="369" y="421"/>
      <point x="311" y="421" type="curve" smooth="yes"/>
      <point x="225" y="421"/>
      <point x="174" y="342"/>
      <point x="174" y="228" type="curve" smooth="yes"/>
      <point x="174" y="146"/>
      <point x="211" y="97"/>
      <point x="292" y="97" type="curve" smooth="yes"/>
      <point x="350" y="97"/>
      <point x="396" y="132"/>
      <point x="408" y="198" type="curve"/>
      <point x="539" y="198" type="line"/>
      <point x="519" y="65"/>
      <point x="425" y="-10"/>
    </contour>
    <contour>
      <point x="336" y="598" type="curve" smooth="yes"/>
      <point x="291" y="598"/>
      <point x="256" y="630"/>
      <point x="256" y="674" type="curve" smooth="yes"/>
      <point x="256" y="717"/>
      <point x="292" y="751"/>
      <point x="337" y="751" type="curve" smooth="yes"/>
      <point x="382" y="751"/>
      <point x="417" y="718"/>
      <point x="417" y="675" type="curve" smooth="yes"/>
      <point x="417" y="632"/>
      <point x="381" y="598"/>
    </contour>
  </outline>
</glyph>
<glyph name="Ccaron" format="2">
  <advance width="749"/>
  <unicode hex="010C"/>
  <outline>
    <contour>
      <point x="637" y="902" type="line"/>
      <point x="509" y="763" type="line"/>
      <point x="386" y="763" type="line"/>
      <point x="294" y="902" type="line"/>
      <point x="394" y="902" type="line"/>
      <point x="456" y="850" type="line"/>
      <point x="531" y="902" type="line"/>
    </contour>
    <contour>
      <point x="390" y="-11" type="curve" smooth="yes"/>
      <point x="184" y="-11"/>
      <point x="53" y="103"/>
      <point x="53" y="303" type="curve" smooth="yes"/>
      <point x="53" y="544"/>
      <point x="206" y="726"/>
      <point x="445" y="726" type="curve" smooth="yes"/>
      <point x="616" y="726"/>
      <point x="734" y="639"/>
      <point x="742" y="466" type="curve"/>
      <point x="581" y="466" type="line"/>
      <point x="570" y="552"/>
      <point x="528" y="599"/>
      <point x="440" y="599" type="curve" smooth="yes"/>
      <point x="299" y="599"/>
      <point x="223" y="467"/>
      <point x="222" y="308" type="curve" smooth="yes"/>
      <point x="221" y="194"/>
      <point x="274" y="118"/>
      <point x="392" y="118" type="curve" smooth="yes"/>
      <point x="479" y="118"/>
      <point x="539" y="169"/>
      <point x="564" y="257" type="curve"/>
      <point x="723" y="257" type="line"/>
      <point x="691" y="84"/>
      <point x="556" y="-11"/>
    </contour>
  </outline>
</glyph>
<glyph name="Dcroat" format="2">
  <advance width="749"/>
  <unicode hex="0110"/>
  <outline>
    <contour>
      <point x="37" y="303" type="line"/>
      <point x="54" y="415" type="line"/>
      <point x="119" y="415" type="line"/>
      <point x="167" y="715" type="line"/>
      <point x="377" y="715" type="line" smooth="yes"/>
      <point x="617" y="715"/>
      <point x="730" y="594"/>
      <point x="730" y="410" type="curve" smooth="yes"/>
      <point x="730" y="162"/>
      <point x="572" y="0"/>
      <point x="315" y="0" type="curve" smooth="yes"/>
      <point x="54" y="0" type="line"/>
      <point x="102" y="303" type="line"/>
    </contour>
    <contour>
      <point x="233" y="126" type="line"/>
      <point x="314" y="126" type="line" smooth="yes"/>
      <point x="472" y="126"/>
      <point x="563" y="228"/>
      <point x="563" y="405" type="curve" smooth="yes"/>
      <point x="563" y="517"/>
      <point x="507" y="590"/>
      <point x="373" y="590" type="curve" smooth="yes"/>
      <point x="307" y="590" type="line"/>
      <point x="279" y="415" type="line"/>
      <point x="431" y="415" type="line"/>
      <point x="413" y="303" type="line"/>
      <point x="261" y="303" type="line"/>
    </contour>
  </outline>
</glyph>
<glyph name="dcroat" format="2">
  <advance width="634"/>
  <unicode hex="0111"/>
  <outline>
    <contour>
      <point x="317" y="597" type="line"/>
      <point x="330" y="680" type="line"/>
      <point x="493" y="680" type="line"/>
      <point x="506" y="760" type="line"/>
      <point x="651" y="760" type="line"/>
      <point x="638" y="680" type="line"/>
      <point x="701" y="680" type="line"/>
      <point x="688" y="597" type="line"/>
      <point x="625" y="597" type="line"/>
      <point x="557" y="160" type="line" smooth="yes"/>
      <point x="546" y="91"/>
      <point x="542" y="44"/>
      <point x="546" y="0" type="curve"/>
      <point x="404" y="0" type="line"/>
      <point x="401" y="26"/>
      <point x="402" y="55"/>
      <point x="404" y="85" type="curve"/>
      <point x="366" y="23"/>
      <point x="310" y="-11"/>
      <point x="232" y="-11" type="curve" smooth="yes"/>
      <point x="114" y="-11"/>
      <point x="29" y="72"/>
      <point x="29" y="218" type="curve" smooth="yes"/>
      <point x="29" y="406"/>
      <point x="136" y="535"/>
      <point x="293" y="535" type="curve" smooth="yes"/>
      <point x="381" y="535"/>
      <point x="431" y="495"/>
      <point x="456" y="443" type="curve"/>
      <point x="480" y="597" type="line"/>
    </contour>
    <contour>
      <point x="322" y="425" type="curve" smooth="yes"/>
      <point x="233" y="425"/>
      <point x="178" y="344"/>
      <point x="178" y="228" type="curve" smooth="yes"/>
      <point x="178" y="146"/>
      <point x="215" y="99"/>
      <point x="285" y="99" type="curve" smooth="yes"/>
      <point x="371" y="99"/>
      <point x="435" y="173"/>
      <point x="435" y="302" type="curve" smooth="yes"/>
      <point x="435" y="381"/>
      <point x="391" y="425"/>
    </contour>
  </outline>
</glyph>
<glyph name="Ebreve" format="2">
  <advance width="598"/>
  <unicode hex="0114"/>
  <outline>
    <contour>
      <point x="35" y="0" type="line"/>
      <point x="148" y="715" type="line"/>
      <point x="611" y="715" type="line"/>
      <point x="591" y="589" type="line"/>
      <point x="289" y="589" type="line"/>
      <point x="263" y="422" type="line"/>
      <point x="506" y="422" type="line"/>
      <point x="488" y="304" type="line"/>
      <point x="245" y="304" type="line"/>
      <point x="216" y="126" type="line"/>
      <point x="537" y="126" type="line"/>
      <point x="517" y="0" type="line"/>
    </contour>
    <contour>
      <point x="388" y="757" type="curve" smooth="yes"/>
      <point x="295" y="757"/>
      <point x="238" y="815"/>
      <point x="238" y="903" type="curve"/>
      <point x="335" y="903" type="line"/>
      <point x="338" y="870"/>
      <point x="355" y="851"/>
      <point x="390" y="851" type="curve" smooth="yes"/>
      <point x="423" y="851"/>
      <point x="443" y="868"/>
      <point x="450" y="903" type="curve"/>
      <point x="546" y="903" type="line"/>
      <point x="535" y="813"/>
      <point x="471" y="757"/>
    </contour>
  </outline>
</glyph>
<glyph name="ebreve" format="2">
  <advance width="580"/>
  <unicode hex="0115"/>
  <outline>
    <contour>
      <point x="171" y="214" type="line" smooth="yes"/>
      <point x="171" y="141"/>
      <point x="204" y="92"/>
      <point x="286" y="92" type="curve" smooth="yes"/>
      <point x="346" y="92"/>
      <point x="383" y="119"/>
      <point x="398" y="165" type="curve"/>
      <point x="535" y="165" type="line"/>
      <point x="507" y="49"/>
      <point x="409" y="-11"/>
      <point x="282" y="-11" type="curve" smooth="yes"/>
      <point x="134" y="-11"/>
      <point x="28" y="71"/>
      <point x="28" y="221" type="curve" smooth="yes"/>
      <point x="28" y="408"/>
      <point x="152" y="535"/>
      <point x="317" y="535" type="curve" smooth="yes"/>
      <point x="478" y="535"/>
      <point x="576" y="434"/>
      <point x="548" y="252" type="curve" smooth="yes"/>
      <point x="544" y="229" type="line"/>
      <point x="171" y="229" type="line"/>
    </contour>
    <contour>
      <point x="336" y="598" type="curve" smooth="yes"/>
      <point x="246" y="598"/>
      <point x="186" y="655"/>
      <point x="188" y="747" type="curve"/>
      <point x="282" y="747" type="line"/>
      <point x="285" y="712"/>
      <point x="303" y="693"/>
      <point x="338" y="693" type="curve" smooth="yes"/>
      <point x="373" y="693"/>
      <point x="394" y="712"/>
      <point x="400" y="747" type="curve"/>
      <point x="494" y="747" type="line"/>
      <point x="483" y="654"/>
      <point x="420" y="598"/>
    </contour>
    <contour>
      <point x="316" y="435" type="curve" smooth="yes"/>
      <point x="260" y="435"/>
      <point x="207" y="402"/>
      <point x="183" y="318" type="curve"/>
      <point x="413" y="318" type="line"/>
      <point x="419" y="393"/>
      <point x="390" y="435"/>
    </contour>
  </outline>
</glyph>
<glyph name="edotaccent" format="2">
  <advance width="580"/>
  <unicode hex="0117"/>
  <outline>
    <contour>
      <point x="171" y="214" type="line" smooth="yes"/>
      <point x="171" y="141"/>
      <point x="204" y="92"/>
      <point x="286" y="92" type="curve" smooth="yes"/>
      <point x="346" y="92"/>
      <point x="383" y="119"/>
      <point x="398" y="165" type="curve"/>
      <point x="535" y="165" type="line"/>
      <point x="507" y="49"/>
      <point x="409" y="-11"/>
      <point x="282" y="-11" type="curve" smooth="yes"/>
      <point x="134" y="-11"/>
      <point x="28" y="71"/>
      <point x="28" y="221" type="curve" smooth="yes"/>
      <point x="28" y="408"/>
      <point x="152" y="535"/>
      <point x="317" y="535" type="curve" smooth="yes"/>
      <point x="478" y="535"/>
      <point x="576" y="434"/>
      <point x="548" y="252" type="curve" smooth="yes"/>
      <point x="544" y="229" type="line"/>
      <point x="171" y="229" type="line"/>
    </contour>
    <contour>
      <point x="316" y="435" type="curve" smooth="yes"/>
      <point x="260" y="435"/>
      <point x="207" y="402"/>
      <point x="183" y="318" type="curve"/>
      <point x="413" y="318" type="line"/>
      <point x="419" y="393"/>
      <point x="390" y="435"/>
    </contour>
    <contour>
      <point x="338" y="598" type="curve" smooth="yes"/>
      <point x="293" y="598"/>
      <point x="258" y="630"/>
      <point x="258" y="674" type="curve" smooth="yes"/>
      <point x="258" y="717"/>
      <point x="294" y="751"/>
      <point x="339" y="751" type="curve" smooth="yes"/>
      <point x="384" y="751"/>
      <point x="419" y="718"/>
      <point x="419" y="675" type="curve" smooth="yes"/>
      <point x="419" y="632"/>
      <point x="383" y="598"/>
    </contour>
  </outline>
</glyph>
<glyph name="Eogonek" format="2">
  <advance width="598"/>
  <unicode hex="0118"/>
  <outline>
    <contour>
      <point x="35" y="0" type="line"/>
      <point x="148" y="715" type="line"/>
      <point x="611" y="715" type="line"/>
      <point x="591" y="589" type="line"/>
      <point x="289" y="589" type="line"/>
      <point x="263" y="422" type="line"/>
      <point x="506" y="422" type="line"/>
      <point x="488" y="304" type="line"/>
      <point x="245" y="304" type="line"/>
      <point x="216" y="126" type="line"/>
      <point x="537" y="126" type="line"/>
      <point x="517" y="0" type="line"/>
      <point x="483" y="0" type="line"/>
      <point x="458" y="-16"/>
      <point x="418" y="-40"/>
      <point x="418" y="-77" type="curve" smooth="yes"/>
      <point x="418" y="-94"/>
      <point x="430" y="-102"/>
      <point x="450" y="-102" type="curve" smooth="yes"/>
      <point x="463" y="-102"/>
      <point x="476" y="-100"/>
      <point x="486" y="-96" type="curve"/>
      <point x="474" y="-169" type="line"/>
      <point x="459" y="-175"/>
      <point x="437" y="-182"/>
      <point x="404" y="-182" type="curve" smooth="yes"/>
      <point x="348" y="-182"/>
      <point x="296" y="-162"/>
      <point x="296" y="-105" type="curve" smooth="yes"/>
      <point x="296" y="-53"/>
      <point x="344" y="-18"/>
      <point x="385" y="0" type="curve"/>
    </contour>
  </outline>
</glyph>
<glyph name="eogonek" format="2">
  <advance width="580"/>
  <unicode hex="0119"/>
  <outline>
    <contour>
      <point x="282" y="-11" type="curve" smooth="yes"/>
      <point x="134" y="-11"/>
      <point x="28" y="71"/>
      <point x="28" y="221" type="curve" smooth="yes"/>
      <point x="28" y="408"/>
      <point x="152" y="535"/>
      <point x="317" y="535" type="curve" smooth="yes"/>
      <point x="478" y="535"/>
      <point x="576" y="434"/>
      <point x="548" y="252" type="curve" smooth="yes"/>
      <point x="544" y="229" type="line"/>
      <point x="171" y="229" type="line"/>
      <point x="171" y="214" type="line" smooth="yes"/>
      <point x="171" y="141"/>
      <point x="204" y="92"/>
      <point x="286" y="92" type="curve" smooth="yes"/>
      <point x="346" y="92"/>
      <point x="383" y="119"/>
      <point x="398" y="165" type="curve"/>
      <point x="535" y="165" type="line"/>
      <point x="523" y="116"/>
      <point x="502" y="80"/>
      <point x="465" y="47" type="curve" smooth="yes"/>
      <point x="427" y="11"/>
      <point x="344" y="-26"/>
      <point x="344" y="-76" type="curve" smooth="yes"/>
      <point x="344" y="-94"/>
      <point x="356" y="-102"/>
      <point x="376" y="-102" type="curve" smooth="yes"/>
      <point x="389" y="-102"/>
      <point x="401" y="-100"/>
      <point x="412" y="-95" type="curve"/>
      <point x="401" y="-169" type="line"/>
      <point x="385" y="-175"/>
      <point x="363" y="-182"/>
      <point x="330" y="-182" type="curve" smooth="yes"/>
      <point x="274" y="-182"/>
      <point x="222" y="-162"/>
      <point x="223" y="-104" type="curve" smooth="yes"/>
      <point x="223" y="-57"/>
      <point x="265" y="-29"/>
      <point x="304" y="-10" type="curve"/>
      <point x="297" y="-11"/>
      <point x="288" y="-11"/>
    </contour>
    <contour>
      <point x="316" y="435" type="curve" smooth="yes"/>
      <point x="260" y="435"/>
      <point x="207" y="402"/>
      <point x="183" y="318" type="curve"/>
      <point x="413" y="318" type="line"/>
      <point x="419" y="393"/>
      <point x="390" y="435"/>
    </contour>
  </outline>
</glyph>
<glyph name="Ecaron" format="2">
  <advance width="598"/>
  <unicode hex="011A"/>
  <outline>
    <contour>
      <point x="565" y="902" type="line"/>
      <point x="437" y="763" type="line"/>
      <point x="314" y="763" type="line"/>
      <point x="222" y="902" type="line"/>
      <point x="322" y="902" type="line"/>
      <point x="384" y="850" type="line"/>
      <point x="459" y="902" type="line"/>
    </contour>
    <contour>
      <point x="35" y="0" type="line"/>
      <point x="148" y="715" type="line"/>
      <point x="611" y="715" type="line"/>
      <point x="591" y="589" type="line"/>
      <point x="289" y="589" type="line"/>
      <point x="263" y="422" type="line"/>
      <point x="506" y="422" type="line"/>
      <point x="488" y="304" type="line"/>
      <point x="245" y="304" type="line"/>
      <point x="216" y="126" type="line"/>
      <point x="537" y="126" type="line"/>
      <point x="517" y="0" type="line"/>
    </contour>
  </outline>
</glyph>
<glyph name="ecaron" format="2">
  <advance width="580"/>
  <unicode hex="011B"/>
  <outline>
    <contour>
      <point x="171" y="214" type="line" smooth="yes"/>
      <point x="171" y="141"/>
      <point x="204" y="92"/>
      <point x="286" y="92" type="curve" smooth="yes"/>
      <point x="346" y="92"/>
      <point x="383" y="119"/>
      <point x="398" y="165" type="curve"/>
      <point x="535" y="165" type="line"/>
      <point x="507" y="49"/>
      <point x="409" y="-11"/>
      <point x="282" y="-11" type="curve" smooth="yes"/>
      <point x="134" y="-11"/>
      <point x="28" y="71"/>
      <point x="28" y="221" type="curve" smooth="yes"/>
      <point x="28" y="408"/>
      <point x="152" y="535"/>
      <point x="317" y="535" type="curve" smooth="yes"/>
      <point x="478" y="535"/>
      <point x="576" y="434"/>
      <point x="548" y="252" type="curve" smooth="yes"/>
      <point x="544" y="229" type="line"/>
      <point x="171" y="229" type="line"/>
    </contour>
    <contour>
      <point x="516" y="751" type="line"/>
      <point x="377" y="595" type="line"/>
      <point x="269" y="595" type="line"/>
      <point x="176" y="751" type="line"/>
      <point x="273" y="751" type="line"/>
      <point x="334" y="688" type="line"/>
      <point x="412" y="751" type="line"/>
    </contour>
    <contour>
      <point x="316" y="435" type="curve" smooth="yes"/>
      <point x="260" y="435"/>
      <point x="207" y="402"/>
      <point x="183" y="318" type="curve"/>
      <point x="413" y="318" type="line"/>
      <point x="419" y="393"/>
      <point x="390" y="435"/>
    </contour>
  </outline>
</glyph>
<glyph name="gbreve" format="2">
  <advance width="634"/>
  <unicode hex="011F"/>
  <outline>
    <contour>
      <point x="286" y="131" type="curve" smooth="yes"/>
      <point x="372" y="131"/>
      <point x="435" y="202"/>
      <point x="435" y="310" type="curve" smooth="yes"/>
      <point x="435" y="381"/>
      <point x="389" y="426"/>
      <point x="322" y="426" type="curve" smooth="yes"/>
      <point x="232" y="426"/>
      <point x="182" y="343"/>
      <point x="182" y="254" type="curve" smooth="yes"/>
      <point x="182" y="181"/>
      <point x="217" y="131"/>
    </contour>
    <contour>
      <point x="612" y="523" type="line"/>
      <point x="534" y="29" type="line" smooth="yes"/>
      <point x="510" y="-120"/>
      <point x="427" y="-193"/>
      <point x="257" y="-193" type="curve" smooth="yes"/>
      <point x="73" y="-193"/>
      <point x="5" y="-104"/>
      <point x="-2" y="-11" type="curve"/>
      <point x="142" y="-11" type="line"/>
      <point x="148" y="-51"/>
      <point x="180" y="-87"/>
      <point x="254" y="-87" type="curve" smooth="yes"/>
      <point x="343" y="-87"/>
      <point x="378" y="-41"/>
      <point x="390" y="32" type="curve" smooth="yes"/>
      <point x="402" y="106" type="line"/>
      <point x="366" y="52"/>
      <point x="313" y="23"/>
      <point x="239" y="23" type="curve" smooth="yes"/>
      <point x="119" y="23"/>
      <point x="33" y="105"/>
      <point x="33" y="245" type="curve" smooth="yes"/>
      <point x="33" y="410"/>
      <point x="141" y="535"/>
      <point x="291" y="535" type="curve" smooth="yes"/>
      <point x="379" y="535"/>
      <point x="430" y="495"/>
      <point x="455" y="443" type="curve"/>
      <point x="468" y="523" type="line"/>
    </contour>
    <contour>
      <point x="358" y="598" type="curve" smooth="yes"/>
      <point x="268" y="598"/>
      <point x="208" y="655"/>
      <point x="210" y="747" type="curve"/>
      <point x="304" y="747" type="line"/>
      <point x="307" y="712"/>
      <point x="325" y="693"/>
      <point x="360" y="693" type="curve" smooth="yes"/>
      <point x="395" y="693"/>
      <point x="416" y="712"/>
      <point x="422" y="747" type="curve"/>
      <point x="516" y="747" type="line"/>
      <point x="505" y="654"/>
      <point x="442" y="598"/>
    </contour>
  </outline>
</glyph>
<glyph name="Gdotaccent" format="2">
  <advance width="781"/>
  <unicode hex="0120"/>
  <outline>
    <contour>
      <point x="453" y="768" type="curve" smooth="yes"/>
      <point x="407" y="768"/>
      <point x="372" y="801"/>
      <point x="372" y="844" type="curve" smooth="yes"/>
      <point x="372" y="887"/>
      <point x="408" y="921"/>
      <point x="453" y="921" type="curve" smooth="yes"/>
      <point x="499" y="921"/>
      <point x="534" y="889"/>
      <point x="534" y="845" type="curve" smooth="yes"/>
      <point x="534" y="802"/>
      <point x="498" y="768"/>
    </contour>
    <contour>
      <point x="398" y="-11" type="curve" smooth="yes"/>
      <point x="184" y="-11"/>
      <point x="54" y="112"/>
      <point x="54" y="310" type="curve" smooth="yes"/>
      <point x="54" y="543"/>
      <point x="218" y="725"/>
      <point x="447" y="725" type="curve" smooth="yes"/>
      <point x="607" y="725"/>
      <point x="743" y="651"/>
      <point x="752" y="476" type="curve"/>
      <point x="591" y="476" type="line"/>
      <point x="583" y="557"/>
      <point x="530" y="597"/>
      <point x="442" y="597" type="curve" smooth="yes"/>
      <point x="302" y="597"/>
      <point x="221" y="465"/>
      <point x="221" y="311" type="curve" smooth="yes"/>
      <point x="221" y="190"/>
      <point x="281" y="114"/>
      <point x="402" y="114" type="curve" smooth="yes"/>
      <point x="512" y="114"/>
      <point x="566" y="178"/>
      <point x="582" y="265" type="curve"/>
      <point x="421" y="265" type="line"/>
      <point x="440" y="383" type="line"/>
      <point x="761" y="383" type="line"/>
      <point x="743" y="116"/>
      <point x="621" y="-11"/>
    </contour>
  </outline>
</glyph>
<glyph name="Hbar" format="2">
  <advance width="764"/>
  <unicode hex="0126"/>
  <outline>
    <contour>
      <point x="51" y="511" type="line"/>
      <point x="65" y="596" type="line"/>
      <point x="129" y="596" type="line"/>
      <point x="148" y="715" type="line"/>
      <point x="310" y="715" type="line"/>
      <point x="291" y="596" type="line"/>
      <point x="577" y="596" type="line"/>
      <point x="597" y="715" type="line"/>
      <point x="759" y="715" type="line"/>
      <point x="740" y="596" type="line"/>
      <point x="803" y="596" type="line"/>
      <point x="790" y="511" type="line"/>
      <point x="727" y="511" type="line"/>
      <point x="646" y="0" type="line"/>
      <point x="484" y="0" type="line"/>
      <point x="530" y="295" type="line"/>
      <point x="243" y="295" type="line"/>
      <point x="197" y="0" type="line"/>
      <point x="35" y="0" type="line"/>
      <point x="116" y="511" type="line"/>
    </contour>
    <contour>
      <point x="264" y="423" type="line"/>
      <point x="550" y="423" type="line"/>
      <point x="564" y="511" type="line"/>
      <point x="278" y="511" type="line"/>
    </contour>
  </outline>
</glyph>
<glyph name="hbar" format="2">
  <advance width="611"/>
  <unicode hex="0127"/>
  <outline>
    <contour>
      <point x="53" y="597" type="line"/>
      <point x="66" y="680" type="line"/>
      <point x="129" y="680" type="line"/>
      <point x="142" y="760" type="line"/>
      <point x="286" y="760" type="line"/>
      <point x="273" y="680" type="line"/>
      <point x="437" y="680" type="line"/>
      <point x="424" y="597" type="line"/>
      <point x="261" y="597" type="line"/>
      <point x="236" y="436" type="line"/>
      <point x="270" y="491"/>
      <point x="325" y="535"/>
      <point x="410" y="535" type="curve" smooth="yes"/>
      <point x="512" y="535"/>
      <point x="584" y="472"/>
      <point x="559" y="314" type="curve" smooth="yes"/>
      <point x="509" y="0" type="line"/>
      <point x="365" y="0" type="line"/>
      <point x="414" y="313" type="line" smooth="yes"/>
      <point x="426" y="387"/>
      <point x="402" y="417"/>
      <point x="344" y="417" type="curve" smooth="yes"/>
      <point x="277" y="417"/>
      <point x="225" y="374"/>
      <point x="213" y="294" type="curve" smooth="yes"/>
      <point x="166" y="0" type="line"/>
      <point x="22" y="0" type="line"/>
      <point x="116" y="597" type="line"/>
    </contour>
  </outline>
</glyph>
<glyph name="Itilde" format="2">
  <advance width="326"/>
  <unicode hex="0128"/>
  <outline>
    <contour>
      <point x="39" y="0" type="line"/>
      <point x="152" y="715" type="line"/>
      <point x="315" y="715" type="line"/>
      <point x="202" y="0" type="line"/>
    </contour>
    <contour>
      <point x="312" y="764" type="curve" smooth="yes"/>
      <point x="258" y="764"/>
      <point x="226" y="801"/>
      <point x="196" y="801" type="curve" smooth="yes"/>
      <point x="179" y="801"/>
      <point x="162" y="787"/>
      <point x="157" y="764" type="curve"/>
      <point x="70" y="764" type="line"/>
      <point x="86" y="858"/>
      <point x="136" y="904"/>
      <point x="195" y="904" type="curve" smooth="yes"/>
      <point x="246" y="904"/>
      <point x="280" y="866"/>
      <point x="312" y="866" type="curve" smooth="yes"/>
      <point x="330" y="866"/>
      <point x="344" y="880"/>
      <point x="351" y="903" type="curve"/>
      <point x="437" y="903" type="line"/>
      <point x="420" y="810"/>
      <point x="369" y="764"/>
    </contour>
  </outline>
</glyph>
<glyph name="itilde" format="2">
  <advance width="281"/>
  <unicode hex="0129"/>
  <outline>
    <contour>
      <point x="26" y="0" type="line"/>
      <point x="109" y="523" type="line"/>
      <point x="253" y="523" type="line"/>
      <point x="170" y="0" type="line"/>
    </contour>
    <contour>
      <point x="262" y="598" type="curve" smooth="yes"/>
      <point x="208" y="598"/>
      <point x="177" y="636"/>
      <point x="147" y="636" type="curve" smooth="yes"/>
      <point x="130" y="636"/>
      <point x="114" y="621"/>
      <point x="108" y="599" type="curve"/>
      <point x="25" y="599" type="line"/>
      <point x="40" y="692"/>
      <point x="86" y="740"/>
      <point x="145" y="740" type="curve" smooth="yes"/>
      <point x="196" y="740"/>
      <point x="229" y="703"/>
      <point x="261" y="703" type="curve" smooth="yes"/>
      <point x="279" y="703"/>
      <point x="293" y="717"/>
      <point x="299" y="740" type="curve"/>
      <point x="383" y="740" type="line"/>
      <point x="367" y="646"/>
      <point x="319" y="598"/>
    </contour>
  </outline>
</glyph>
<glyph name="Imacron" format="2">
  <advance width="326"/>
  <unicode hex="012A"/>
  <outline>
    <contour>
      <point x="39" y="0" type="line"/>
      <point x="152" y="715" type="line"/>
      <point x="315" y="715" type="line"/>
      <point x="202" y="0" type="line"/>
    </contour>
    <contour>
      <point x="91" y="777" type="line"/>
      <point x="105" y="868" type="line"/>
      <point x="407" y="868" type="line"/>
      <point x="392" y="777" type="line"/>
    </contour>
  </outline>
</glyph>
<glyph name="Ibreve" format="2">
  <advance width="326"/>
  <unicode hex="012C"/>
  <outline>
    <contour>
      <point x="39" y="0" type="line"/>
      <point x="152" y="715" type="line"/>
      <point x="315" y="715" type="line"/>
      <point x="202" y="0" type="line"/>
    </contour>
    <contour>
      <point x="247" y="757" type="curve" smooth="yes"/>
      <point x="154" y="757"/>
      <point x="97" y="815"/>
      <point x="97" y="903" type="curve"/>
      <point x="194" y="903" type="line"/>
      <point x="197" y="870"/>
      <point x="214" y="851"/>
      <point x="249" y="851" type="curve" smooth="yes"/>
      <point x="282" y="851"/>
      <point x="302" y="868"/>
      <point x="309" y="903" type="curve"/>
      <point x="405" y="903" type="line"/>
      <point x="394" y="813"/>
      <point x="330" y="757"/>
    </contour>
  </outline>
</glyph>
<glyph name="ibreve" format="2">
  <advance width="281"/>
  <unicode hex="012D"/>
  <outline>
    <contour>
      <point x="26" y="0" type="line"/>
      <point x="109" y="523" type="line"/>
      <point x="253" y="523" type="line"/>
      <point x="170" y="0" type="line"/>
    </contour>
    <contour>
      <point x="198" y="598" type="curve" smooth="yes"/>
      <point x="108" y="598"/>
      <point x="48" y="655"/>
      <point x="50" y="747" type="curve"/>
      <point x="144" y="747" type="line"/>
      <point x="147" y="712"/>
      <point x="165" y="693"/>
      <point x="200" y="693" type="curve" smooth="yes"/>
      <point x="235" y="693"/>
      <point x="256" y="712"/>
      <point x="262" y="747" type="curve"/>
      <point x="356" y="747" type="line"/>
      <point x="345" y="654"/>
      <point x="282" y="598"/>
    </contour>
  </outline>
</glyph>
<glyph name="Iogonek" format="2">
  <advance width="326"/>
  <unicode hex="012E"/>
  <outline>
    <contour>
      <point x="114" y="-182" type="curve" smooth="yes"/>
      <point x="58" y="-182"/>
      <point x="6" y="-162"/>
      <point x="6" y="-102" type="curve" smooth="yes"/>
      <point x="6" y="-51"/>
      <point x="57" y="-17"/>
      <point x="99" y="0" type="curve"/>
      <point x="39" y="0" type="line"/>
      <point x="152" y="715" type="line"/>
      <point x="315" y="715" type="line"/>
      <point x="204" y="11" type="line"/>
      <point x="168" y="-14"/>
      <point x="129" y="-43"/>
      <point x="129" y="-76" type="curve" smooth="yes"/>
      <point x="129" y="-94"/>
      <point x="140" y="-102"/>
      <point x="161" y="-102" type="curve" smooth="yes"/>
      <point x="173" y="-102"/>
      <point x="186" y="-100"/>
      <point x="196" y="-96" type="curve"/>
      <point x="184" y="-169" type="line"/>
      <point x="169" y="-175"/>
      <point x="147" y="-182"/>
    </contour>
  </outline>
</glyph>
<glyph name="iogonek" format="2">
  <advance width="281"/>
  <unicode hex="012F"/>
  <outline>
    <contour>
      <point x="26" y="0" type="line"/>
      <point x="109" y="523" type="line"/>
      <point x="253" y="523" type="line"/>
      <point x="172" y="11" type="line"/>
      <point x="136" y="-13"/>
      <point x="98" y="-40"/>
      <point x="98" y="-76" type="curve" smooth="yes"/>
      <point x="98" y="-94"/>
      <point x="110" y="-102"/>
      <point x="129" y="-102" type="curve" smooth="yes"/>
      <point x="141" y="-102"/>
      <point x="154" y="-100"/>
      <point x="164" y="-96" type="curve"/>
      <point x="153" y="-169" type="line"/>
      <point x="137" y="-175"/>
      <point x="115" y="-182"/>
      <point x="82" y="-182" type="curve" smooth="yes"/>
      <point x="28" y="-182"/>
      <point x="-25" y="-162"/>
      <point x="-24" y="-102" type="curve" smooth="yes"/>
      <point x="-24" y="-51"/>
      <point x="25" y="-17"/>
      <point x="66" y="0" type="curve"/>
    </contour>
    <contour>
      <point x="202" y="595" type="curve" smooth="yes"/>
      <point x="156" y="595"/>
      <point x="121" y="628"/>
      <point x="121" y="673" type="curve" smooth="yes"/>
      <point x="121" y="717"/>
      <point x="157" y="751"/>
      <point x="203" y="751" type="curve" smooth="yes"/>
      <point x="249" y="751"/>
      <point x="284" y="718"/>
      <point x="284" y="674" type="curve" smooth="yes"/>
      <point x="284" y="629"/>
      <point x="248" y="595"/>
    </contour>
  </outline>
</glyph>
<glyph name="Idotaccent" format="2">
  <advance width="326"/>
  <unicode hex="0130"/>
  <outline>
    <contour>
      <point x="39" y="0" type="line"/>
      <point x="152" y="715" type="line"/>
      <point x="315" y="715" type="line"/>
      <point x="202" y="0" type="line"/>
    </contour>
    <contour>
      <point x="246" y="768" type="curve" smooth="yes"/>
      <point x="200" y="768"/>
      <point x="165" y="801"/>
      <point x="165" y="844" type="curve" smooth="yes"/>
      <point x="165" y="887"/>
      <point x="201" y="921"/>
      <point x="246" y="921" type="curve" smooth="yes"/>
      <point x="292" y="921"/>
      <point x="327" y="889"/>
      <point x="327" y="845" type="curve" smooth="yes"/>
      <point x="327" y="802"/>
      <point x="291" y="768"/>
    </contour>
  </outline>
</glyph>
